<svg width="264" height="219" viewBox="0 0 264 219" fill="none" xmlns="http://www.w3.org/2000/svg">
<g opacity="0.1">
<path opacity="0.1" d="M202.141 214.049C202.141 217.252 178.507 219 149.355 219C120.202 219 97.265 217.21 96.5752 214.049C95.2932 208.255 120.202 208.255 149.355 208.255C178.507 208.255 202.141 208.255 202.141 214.049Z" fill="#2D3962"/>
</g>
<g opacity="0.1">
<path opacity="0.1" d="M247.166 172.552C247.166 177.531 204.441 180.212 151.71 180.212C98.9792 180.212 57.5358 177.427 56.2538 172.552C53.9406 163.548 98.9792 163.548 151.71 163.548C204.441 163.548 247.166 163.548 247.166 172.552Z" fill="#2D3962"/>
</g>
<path d="M222.299 44.7275H83.2185C76.8037 44.7275 71.6035 49.9248 71.6035 56.336V161.243C71.6035 167.655 76.8037 172.852 83.2185 172.852H222.299C228.714 172.852 233.914 167.655 233.914 161.243V56.336C233.914 49.9248 228.714 44.7275 222.299 44.7275Z" fill="white"/>
<path d="M233.921 67.631V55.8416C233.921 52.8866 232.746 50.0526 230.656 47.9631C228.565 45.8736 225.729 44.6997 222.773 44.6997H82.7239C79.7672 44.6997 76.9316 45.8736 74.8409 47.9631C72.7502 50.0526 71.5757 52.8866 71.5757 55.8416V67.631H233.921Z" fill="#744EFF"/>
<path d="M142.457 77.7283H123.449V91.4675H142.457V77.7283Z" fill="#9580FF"/>
<path d="M163.416 77.7283H144.408V91.4675H163.416V77.7283Z" fill="#9580FF"/>
<path d="M226.298 77.7283H207.291V91.4675H226.298V77.7283Z" fill="#744EFF"/>
<path d="M184.374 77.7283H165.367V91.4675H184.374V77.7283Z" fill="#9580FF"/>
<path d="M205.333 77.7283H186.325V91.4675H205.333V77.7283Z" fill="#744EFF"/>
<path d="M100.533 94.051H81.5254V107.79H100.533V94.051Z" fill="#9580FF"/>
<path d="M142.457 94.051H123.449V107.79H142.457V94.051Z" fill="#9580FF"/>
<path d="M163.416 94.051H144.408V107.79H163.416V94.051Z" fill="#9580FF"/>
<path d="M226.298 94.051H207.291V107.79H226.298V94.051Z" fill="#744EFF"/>
<path d="M205.333 94.051H186.325V107.79H205.333V94.051Z" fill="#744EFF"/>
<path d="M100.533 110.374H81.5254V124.113H100.533V110.374Z" fill="#9580FF"/>
<path d="M121.498 110.374H102.491V124.113H121.498V110.374Z" fill="#9580FF"/>
<path d="M163.416 110.374H144.408V124.113H163.416V110.374Z" fill="#9580FF"/>
<path d="M226.298 110.374H207.291V124.113H226.298V110.374Z" fill="#744EFF"/>
<path d="M184.374 110.374H165.367V124.113H184.374V110.374Z" fill="#9580FF"/>
<path d="M205.333 110.374H186.325V124.113H205.333V110.374Z" fill="#744EFF"/>
<path d="M100.533 126.697H81.5254V140.436H100.533V126.697Z" fill="#9580FF"/>
<path d="M142.457 126.697H123.449V140.436H142.457V126.697Z" fill="#9580FF"/>
<path d="M163.416 126.697H144.408V140.436H163.416V126.697Z" fill="#9580FF"/>
<path d="M226.298 126.697H207.291V140.436H226.298V126.697Z" fill="#744EFF"/>
<path d="M184.374 126.697H165.367V140.436H184.374V126.697Z" fill="#9580FF"/>
<path d="M205.333 126.697H186.325V140.436H205.333V126.697Z" fill="#744EFF"/>
<path d="M100.533 143.02H81.5254V156.759H100.533V143.02Z" fill="#9580FF"/>
<path d="M142.457 143.02H123.449V156.759H142.457V143.02Z" fill="#9580FF"/>
<path d="M163.416 143.02H144.408V156.759H163.416V143.02Z" fill="#9580FF"/>
<path d="M121.505 94.0581H102.498V107.797H121.505V94.0581Z" fill="#9580FF"/>
<path d="M111.555 104.232C111.467 104.233 111.379 104.213 111.298 104.176C111.217 104.139 111.146 104.084 111.089 104.016L108.761 101.231C108.709 101.169 108.67 101.098 108.645 101.021C108.621 100.944 108.612 100.863 108.618 100.782C108.625 100.702 108.648 100.623 108.685 100.551C108.722 100.48 108.773 100.416 108.835 100.364C108.896 100.312 108.968 100.272 109.045 100.248C109.122 100.223 109.203 100.214 109.284 100.221C109.364 100.228 109.442 100.25 109.514 100.287C109.586 100.324 109.65 100.375 109.702 100.437L111.472 102.526L114.259 97.8812C114.346 97.7502 114.48 97.6577 114.634 97.6229C114.787 97.588 114.948 97.6135 115.083 97.6941C115.219 97.7746 115.318 97.904 115.36 98.0555C115.402 98.207 115.385 98.369 115.311 98.5079L112.085 103.884C112.035 103.969 111.965 104.04 111.881 104.092C111.798 104.145 111.703 104.176 111.604 104.183L111.555 104.232Z" fill="#2D3962"/>
<path d="M142.443 110.402H123.436V124.141H142.443V110.402Z" fill="#9580FF"/>
<path d="M132.493 120.576C132.403 120.576 132.314 120.557 132.233 120.52C132.151 120.483 132.078 120.428 132.019 120.36L129.699 117.574C129.646 117.514 129.606 117.443 129.581 117.366C129.555 117.289 129.546 117.208 129.552 117.128C129.559 117.048 129.581 116.969 129.618 116.898C129.656 116.826 129.707 116.762 129.769 116.711C129.831 116.659 129.902 116.62 129.979 116.596C130.056 116.572 130.137 116.563 130.217 116.57C130.297 116.577 130.375 116.6 130.446 116.637C130.518 116.675 130.581 116.726 130.633 116.787L132.41 118.877L135.197 114.232C135.235 114.156 135.288 114.089 135.353 114.035C135.418 113.981 135.494 113.941 135.575 113.918C135.656 113.895 135.742 113.888 135.826 113.9C135.909 113.911 135.99 113.939 136.062 113.983C136.135 114.027 136.197 114.085 136.246 114.155C136.295 114.224 136.328 114.302 136.345 114.385C136.362 114.468 136.362 114.553 136.344 114.636C136.326 114.719 136.291 114.797 136.242 114.866L133.016 120.241C132.966 120.324 132.896 120.394 132.814 120.445C132.732 120.495 132.638 120.526 132.542 120.534L132.493 120.576Z" fill="#2D3962"/>
<path d="M121.485 126.711H102.477V140.45H121.485V126.711Z" fill="#9580FF"/>
<path d="M111.981 137.762C111.154 137.762 110.346 137.517 109.658 137.058C108.971 136.599 108.435 135.946 108.119 135.183C107.802 134.419 107.719 133.579 107.881 132.769C108.042 131.958 108.44 131.214 109.025 130.629C109.609 130.045 110.354 129.647 111.165 129.486C111.976 129.325 112.817 129.407 113.581 129.724C114.345 130.04 114.998 130.575 115.457 131.262C115.916 131.95 116.161 132.757 116.161 133.584C116.161 134.692 115.721 135.755 114.937 136.538C114.153 137.322 113.09 137.762 111.981 137.762ZM111.981 130.631C111.395 130.631 110.822 130.805 110.335 131.13C109.848 131.456 109.468 131.919 109.244 132.46C109.02 133.001 108.962 133.596 109.077 134.171C109.192 134.745 109.475 135.272 109.889 135.686C110.304 136.099 110.833 136.381 111.407 136.494C111.982 136.608 112.578 136.548 113.119 136.323C113.66 136.098 114.122 135.717 114.446 135.23C114.771 134.742 114.943 134.169 114.942 133.584C114.942 133.195 114.865 132.811 114.717 132.452C114.568 132.093 114.349 131.768 114.074 131.493C113.799 131.219 113.473 131.002 113.114 130.854C112.754 130.706 112.369 130.63 111.981 130.631Z" fill="#2D3962"/>
<path d="M121.498 143.02H102.491V156.759H121.498V143.02Z" fill="#9580FF"/>
<path d="M111.542 153.194C111.453 153.194 111.365 153.174 111.285 153.137C111.204 153.1 111.133 153.045 111.075 152.978L108.755 150.192C108.702 150.131 108.662 150.06 108.636 149.984C108.611 149.907 108.601 149.826 108.608 149.746C108.614 149.665 108.637 149.587 108.674 149.515C108.711 149.444 108.762 149.38 108.825 149.329C108.948 149.224 109.109 149.172 109.271 149.185C109.433 149.198 109.583 149.275 109.689 149.398L111.458 151.487L114.245 146.843C114.33 146.704 114.467 146.605 114.624 146.566C114.782 146.527 114.949 146.551 115.088 146.634C115.157 146.675 115.218 146.729 115.265 146.793C115.313 146.857 115.348 146.93 115.367 147.008C115.387 147.086 115.391 147.167 115.379 147.246C115.367 147.325 115.339 147.401 115.297 147.469L112.071 152.845C112.022 152.931 111.952 153.002 111.868 153.055C111.784 153.107 111.689 153.138 111.591 153.145L111.542 153.194Z" fill="#2D3962"/>
<path d="M184.374 94.051H165.367V107.79H184.374V94.051Z" fill="#9580FF"/>
<path d="M174.877 105.102C174.051 105.102 173.242 104.857 172.555 104.398C171.867 103.939 171.331 103.287 171.015 102.523C170.699 101.76 170.616 100.92 170.777 100.109C170.938 99.2987 171.337 98.5542 171.921 97.9699C172.506 97.3855 173.251 96.9876 174.062 96.8264C174.873 96.6652 175.713 96.7479 176.477 97.0641C177.241 97.3804 177.894 97.9159 178.353 98.603C178.813 99.2901 179.058 100.098 179.058 100.924C179.058 102.032 178.617 103.095 177.833 103.879C177.049 104.662 175.986 105.102 174.877 105.102ZM174.877 97.9647C174.291 97.9634 173.718 98.1358 173.23 98.4601C172.742 98.7845 172.362 99.2462 172.137 99.7869C171.911 100.328 171.852 100.923 171.965 101.497C172.079 102.072 172.36 102.6 172.774 103.015C173.188 103.429 173.715 103.712 174.29 103.826C174.865 103.941 175.46 103.883 176.002 103.659C176.543 103.435 177.006 103.056 177.332 102.569C177.658 102.082 177.832 101.51 177.832 100.924C177.83 100.141 177.518 99.3905 176.965 98.8361C176.411 98.2816 175.661 97.9684 174.877 97.9647Z" fill="#2D3962"/>
<g opacity="0.05">
<path opacity="0.05" d="M233.921 136.021V161.243C233.921 162.768 233.62 164.278 233.036 165.687C232.452 167.096 231.596 168.376 230.517 169.454C229.437 170.532 228.156 171.387 226.746 171.97C225.336 172.553 223.825 172.853 222.299 172.852H171.073C171.073 172.852 196.568 166.139 209.611 158.611C218.481 153.514 233.921 136.021 233.921 136.021Z" fill="#2D3962"/>
</g>
<path d="M222.299 174.077H83.2256C79.821 174.074 76.5569 172.72 74.1495 170.314C71.7421 167.908 70.388 164.646 70.3843 161.243V56.3429C70.3843 52.9372 71.7365 49.6707 74.1441 47.2605C76.5517 44.8504 79.8179 43.4936 83.2256 43.488H222.299C225.704 43.4936 228.968 44.8484 231.376 47.2556C233.783 49.6628 235.137 52.9257 235.14 56.329V161.243C235.137 164.646 233.783 167.908 231.375 170.314C228.968 172.72 225.704 174.074 222.299 174.077ZM83.2256 45.9462C80.4702 45.9499 77.8289 47.0459 75.8813 48.9938C73.9336 50.9417 72.8387 53.5822 72.8369 56.336V161.243C72.8424 163.995 73.9389 166.632 75.8862 168.577C77.8334 170.521 80.4727 171.616 83.2256 171.619H222.299C225.054 171.617 227.696 170.523 229.645 168.577C231.594 166.63 232.691 163.99 232.695 161.236V56.3429C232.693 53.588 231.597 50.9464 229.648 48.9983C227.699 47.0502 225.056 45.955 222.299 45.9532L83.2256 45.9462Z" fill="#2D3962"/>
<path d="M94.1299 60.577C96.7274 60.577 98.833 58.4725 98.833 55.8765C98.833 53.2805 96.7274 51.176 94.1299 51.176C91.5324 51.176 89.4268 53.2805 89.4268 55.8765C89.4268 58.4725 91.5324 60.577 94.1299 60.577Z" fill="#2D3962"/>
<path d="M94.1367 56.4335C93.5139 56.4335 92.9167 56.1862 92.4763 55.7461C92.0359 55.306 91.7886 54.7091 91.7886 54.0867V41.7889C91.7886 41.1665 92.0359 40.5696 92.4763 40.1295C92.9167 39.6894 93.5139 39.4421 94.1367 39.4421C94.445 39.4421 94.7503 39.5028 95.0352 39.6208C95.3201 39.7387 95.579 39.9116 95.797 40.1295C96.015 40.3474 96.188 40.6061 96.306 40.8908C96.424 41.1755 96.4847 41.4807 96.4847 41.7889V54.0867C96.4847 54.3949 96.424 54.7 96.306 54.9848C96.188 55.2695 96.015 55.5282 95.797 55.7461C95.579 55.964 95.3201 56.1369 95.0352 56.2548C94.7503 56.3728 94.445 56.4335 94.1367 56.4335Z" fill="#F4B04E"/>
<path d="M132.375 60.577C134.972 60.577 137.078 58.4725 137.078 55.8765C137.078 53.2805 134.972 51.176 132.375 51.176C129.778 51.176 127.672 53.2805 127.672 55.8765C127.672 58.4725 129.778 60.577 132.375 60.577Z" fill="#2D3962"/>
<path d="M132.375 56.4335C131.752 56.4335 131.155 56.1862 130.715 55.7461C130.274 55.306 130.027 54.7091 130.027 54.0867V41.7889C130.027 41.1665 130.274 40.5696 130.715 40.1295C131.155 39.6894 131.752 39.4421 132.375 39.4421C132.998 39.4421 133.595 39.6894 134.035 40.1295C134.476 40.5696 134.723 41.1665 134.723 41.7889V54.0867C134.723 54.7091 134.476 55.306 134.035 55.7461C133.595 56.1862 132.998 56.4335 132.375 56.4335Z" fill="#F4B04E"/>
<path d="M170.613 60.577C173.211 60.577 175.316 58.4725 175.316 55.8765C175.316 53.2805 173.211 51.176 170.613 51.176C168.016 51.176 165.91 53.2805 165.91 55.8765C165.91 58.4725 168.016 60.577 170.613 60.577Z" fill="#2D3962"/>
<path d="M170.613 56.4335C169.99 56.4335 169.393 56.1862 168.953 55.7461C168.512 55.306 168.265 54.7091 168.265 54.0867V41.7889C168.265 41.1665 168.512 40.5696 168.953 40.1295C169.393 39.6894 169.99 39.4421 170.613 39.4421C170.922 39.4412 171.228 39.5013 171.514 39.6188C171.8 39.7363 172.059 39.909 172.278 40.127C172.497 40.345 172.67 40.604 172.789 40.8892C172.907 41.1744 172.968 41.4801 172.968 41.7889V54.0867C172.968 54.3955 172.907 54.7012 172.789 54.9864C172.67 55.2716 172.497 55.5306 172.278 55.7486C172.059 55.9666 171.8 56.1393 171.514 56.2568C171.228 56.3744 170.922 56.4344 170.613 56.4335Z" fill="#F4B04E"/>
<path d="M208.852 60.577C211.449 60.577 213.555 58.4725 213.555 55.8765C213.555 53.2805 211.449 51.176 208.852 51.176C206.254 51.176 204.148 53.2805 204.148 55.8765C204.148 58.4725 206.254 60.577 208.852 60.577Z" fill="#2D3962"/>
<path d="M208.858 56.4335C208.549 56.4344 208.243 56.3744 207.958 56.2568C207.672 56.1393 207.412 55.9666 207.194 55.7486C206.975 55.5306 206.801 55.2716 206.683 54.9864C206.564 54.7012 206.503 54.3955 206.503 54.0867V41.7889C206.503 41.4801 206.564 41.1744 206.683 40.8892C206.801 40.604 206.975 40.345 207.194 40.127C207.412 39.909 207.672 39.7363 207.958 39.6188C208.243 39.5013 208.549 39.4412 208.858 39.4421C209.481 39.4421 210.078 39.6894 210.519 40.1295C210.959 40.5696 211.207 41.1665 211.207 41.7889V54.0867C211.207 54.7091 210.959 55.306 210.519 55.7461C210.078 56.1862 209.481 56.4335 208.858 56.4335Z" fill="#F4B04E"/>
<g opacity="0.1">
<path opacity="0.1" d="M253.507 192.127C253.507 194.913 239.913 196.41 223.149 196.41C206.385 196.41 193.188 194.857 192.798 192.127C192.059 187.106 206.385 187.106 223.149 187.106C239.913 187.106 253.507 187.106 253.507 192.127Z" fill="#2D3962"/>
</g>
<g opacity="0.1">
<path opacity="0.1" d="M103.87 192.51C103.87 196.535 80.6265 198.729 51.9548 198.729C23.2831 198.729 0.728952 196.479 0.0461263 192.51C-1.20804 185.219 23.2901 185.219 51.9548 185.219C80.6195 185.219 103.87 185.226 103.87 192.51Z" fill="#2D3962"/>
</g>
<path d="M92.7081 91.8994H13.5282C12.3622 91.8994 11.417 92.8441 11.417 94.0094V189.502C11.417 190.667 12.3622 191.612 13.5282 191.612H92.7081C93.8741 191.612 94.8193 190.667 94.8193 189.502V94.0094C94.8193 92.8441 93.8741 91.8994 92.7081 91.8994Z" fill="white"/>
<g opacity="0.05">
<path opacity="0.05" d="M94.8262 148.256V189.509C94.8262 190.063 94.606 190.594 94.214 190.986C93.822 191.378 93.2903 191.598 92.7359 191.598H13.5351C12.9807 191.598 12.4491 191.378 12.0571 190.986C11.6651 190.594 11.4448 190.063 11.4448 189.509C11.4448 189.509 54.5046 182.81 70.4117 171.195C82.4029 162.42 94.8262 148.256 94.8262 148.256Z" fill="#2D3962"/>
</g>
<path d="M94.8262 110.59V94.0789C94.8374 93.8011 94.7929 93.5238 94.6955 93.2634C94.5981 93.003 94.4497 92.7646 94.2589 92.5623C94.0681 92.3599 93.8388 92.1977 93.5845 92.085C93.3301 91.9724 93.0559 91.9116 92.7777 91.9062H13.4794C13.2012 91.9116 12.9269 91.9724 12.6726 92.085C12.4183 92.1977 12.189 92.3599 11.9982 92.5623C11.8074 92.7646 11.659 93.003 11.5616 93.2634C11.4641 93.5238 11.4197 93.8011 11.4309 94.0789V110.59H94.8262Z" fill="#9580FF"/>
<path d="M92.7156 192.663H13.5357C12.6986 192.663 11.8958 192.331 11.3039 191.74C10.7119 191.148 10.3794 190.346 10.3794 189.509V94.0164C10.3794 93.1797 10.7119 92.3774 11.3039 91.7858C11.8958 91.1942 12.6986 90.8618 13.5357 90.8618H92.7156C93.5527 90.8618 94.3556 91.1942 94.9475 91.7858C95.5394 92.3774 95.872 93.1797 95.872 94.0164V189.509C95.872 190.346 95.5394 191.148 94.9475 191.74C94.3556 192.331 93.5527 192.663 92.7156 192.663ZM13.5357 92.93C13.3955 92.9291 13.2564 92.956 13.1267 93.0092C12.9969 93.0625 12.879 93.1409 12.7799 93.24C12.6807 93.3391 12.6022 93.457 12.5489 93.5866C12.4957 93.7163 12.4688 93.8553 12.4697 93.9955V189.509C12.4688 189.649 12.4957 189.788 12.5489 189.918C12.6022 190.047 12.6807 190.165 12.7799 190.264C12.879 190.364 12.9969 190.442 13.1267 190.495C13.2564 190.548 13.3955 190.575 13.5357 190.574H92.7156C92.9984 190.574 93.2695 190.462 93.4695 190.262C93.6694 190.063 93.7817 189.792 93.7817 189.509V94.0164C93.7817 93.7338 93.6694 93.4628 93.4695 93.263C93.2695 93.0632 92.9984 92.9509 92.7156 92.9509L13.5357 92.93Z" fill="#2D3962"/>
<path d="M41.6079 123.312H22.3146C21.8409 123.312 21.3865 123.125 21.0509 122.791C20.7153 122.457 20.5258 122.003 20.5239 121.53C20.5239 121.055 20.7126 120.6 21.0484 120.264C21.3842 119.929 21.8397 119.74 22.3146 119.74H41.6079C42.0828 119.74 42.5383 119.929 42.8741 120.264C43.2099 120.6 43.3986 121.055 43.3986 121.53C43.3968 122.003 43.2073 122.457 42.8717 122.791C42.536 123.125 42.0816 123.312 41.6079 123.312Z" fill="#744EFF"/>
<path d="M62.7337 126.571H21.3879C21.1593 126.57 20.9406 126.478 20.779 126.317C20.6174 126.155 20.5257 125.936 20.5239 125.708C20.5257 125.48 20.6174 125.261 20.779 125.099C20.9406 124.938 21.1593 124.846 21.3879 124.844H62.7337C62.9616 124.846 63.1796 124.938 63.3401 125.1C63.5007 125.262 63.5907 125.48 63.5907 125.708C63.5907 125.936 63.5007 126.154 63.3401 126.316C63.1796 126.478 62.9616 126.57 62.7337 126.571Z" fill="#2D3962"/>
<path d="M62.7337 129.837H21.3879C21.1588 129.837 20.939 129.746 20.777 129.585C20.615 129.423 20.5239 129.203 20.5239 128.974C20.5258 128.746 20.6176 128.528 20.7794 128.368C20.9413 128.207 21.16 128.117 21.3879 128.117H62.7337C62.961 128.117 63.179 128.208 63.3397 128.368C63.5004 128.529 63.5907 128.747 63.5907 128.974C63.5916 129.087 63.5701 129.199 63.5275 129.304C63.4848 129.409 63.4218 129.504 63.3422 129.584C63.2625 129.664 63.1677 129.728 63.0633 129.772C62.9588 129.815 62.8468 129.837 62.7337 129.837Z" fill="#2D3962"/>
<path d="M85.1204 126.878C85.1204 127.704 84.8752 128.512 84.4158 129.199C83.9565 129.886 83.3035 130.422 82.5397 130.738C81.7758 131.054 80.9352 131.137 80.1242 130.976C79.3133 130.814 78.5684 130.416 77.9837 129.832C77.3991 129.248 77.0009 128.503 76.8396 127.693C76.6783 126.882 76.7611 126.042 77.0775 125.279C77.3939 124.515 77.9297 123.863 78.6172 123.404C79.3047 122.945 80.113 122.699 80.9398 122.699C82.0486 122.699 83.1119 123.14 83.8959 123.923C84.6799 124.707 85.1204 125.77 85.1204 126.878Z" fill="#F4B04E"/>
<path d="M80.6545 128.967C80.5975 128.967 80.5412 128.954 80.4895 128.93C80.4378 128.906 80.3919 128.871 80.3549 128.828L78.8847 127.052C78.8519 127.013 78.8272 126.968 78.8118 126.92C78.7965 126.872 78.7909 126.821 78.7955 126.77C78.8 126.72 78.8146 126.671 78.8383 126.626C78.862 126.581 78.8943 126.541 78.9335 126.509C78.9718 126.476 79.0163 126.45 79.0645 126.434C79.1126 126.419 79.1634 126.412 79.214 126.416C79.2645 126.42 79.3138 126.434 79.359 126.457C79.4041 126.48 79.4442 126.512 79.477 126.551L80.5988 127.888L82.3685 124.942C82.3944 124.898 82.4286 124.86 82.4693 124.83C82.51 124.799 82.5563 124.777 82.6056 124.765C82.6549 124.753 82.7061 124.75 82.7563 124.758C82.8065 124.766 82.8547 124.783 82.8981 124.81C82.9421 124.836 82.9804 124.871 83.0109 124.912C83.0413 124.954 83.0633 125 83.0756 125.05C83.0879 125.1 83.0903 125.152 83.0825 125.203C83.0748 125.253 83.0571 125.302 83.0305 125.346L80.989 128.751C80.9547 128.803 80.9095 128.847 80.8566 128.879C80.8036 128.912 80.7441 128.932 80.6824 128.939L80.6545 128.967Z" fill="#2D3962"/>
<path d="M41.6079 145.68H22.3146C21.8397 145.68 21.3842 145.491 21.0484 145.156C20.7126 144.82 20.5239 144.365 20.5239 143.89C20.5258 143.417 20.7153 142.963 21.0509 142.629C21.3865 142.295 21.8409 142.107 22.3146 142.107H41.6079C42.0816 142.107 42.536 142.295 42.8717 142.629C43.2073 142.963 43.3968 143.417 43.3986 143.89C43.3986 144.365 43.2099 144.82 42.8741 145.156C42.5383 145.491 42.0828 145.68 41.6079 145.68Z" fill="#744EFF"/>
<path d="M62.7337 148.932H21.3879C21.16 148.932 20.9413 148.842 20.7794 148.681C20.6176 148.521 20.5258 148.303 20.5239 148.075C20.5257 147.847 20.6174 147.628 20.779 147.467C20.9406 147.305 21.1593 147.213 21.3879 147.212H62.7337C62.9616 147.214 63.1796 147.305 63.3401 147.467C63.5007 147.629 63.5907 147.847 63.5907 148.075C63.5907 148.302 63.5004 148.52 63.3397 148.681C63.179 148.841 62.961 148.932 62.7337 148.932Z" fill="#2D3962"/>
<path d="M62.7337 152.191H21.3879C21.1593 152.189 20.9406 152.097 20.779 151.936C20.6174 151.774 20.5257 151.556 20.5239 151.327C20.5258 151.099 20.6176 150.882 20.7794 150.721C20.9413 150.561 21.16 150.471 21.3879 150.471H62.7337C62.961 150.471 63.179 150.561 63.3397 150.722C63.5004 150.882 63.5907 151.1 63.5907 151.327C63.5907 151.555 63.5007 151.774 63.3401 151.935C63.1796 152.097 62.9616 152.189 62.7337 152.191Z" fill="#2D3962"/>
<path d="M85.1204 149.238C85.1204 150.064 84.8752 150.872 84.4158 151.559C83.9565 152.246 83.3035 152.782 82.5397 153.098C81.7758 153.414 80.9352 153.497 80.1242 153.336C79.3133 153.175 78.5684 152.777 77.9837 152.192C77.3991 151.608 77.0009 150.864 76.8396 150.053C76.6783 149.243 76.7611 148.403 77.0775 147.639C77.3939 146.876 77.9297 146.223 78.6172 145.764C79.3047 145.305 80.113 145.06 80.9398 145.06C82.0486 145.06 83.1119 145.5 83.8959 146.284C84.6799 147.067 85.1204 148.13 85.1204 149.238Z" fill="#F4B04E"/>
<path d="M80.6546 151.334C80.5978 151.332 80.542 151.319 80.4904 151.295C80.4389 151.271 80.3928 151.237 80.355 151.195L78.8848 149.447C78.8518 149.408 78.8269 149.362 78.8115 149.313C78.796 149.264 78.7905 149.213 78.795 149.162C78.7995 149.111 78.8141 149.061 78.8379 149.015C78.8617 148.97 78.8942 148.93 78.9336 148.897C79.0126 148.832 79.1137 148.801 79.2153 148.81C79.3169 148.82 79.4108 148.868 79.4771 148.946L80.5988 150.276L82.3686 147.337C82.3947 147.294 82.4291 147.256 82.4698 147.225C82.5105 147.195 82.5568 147.173 82.606 147.161C82.6552 147.149 82.7063 147.146 82.7564 147.154C82.8065 147.161 82.8547 147.179 82.8982 147.205C82.9416 147.231 82.9795 147.265 83.0097 147.306C83.0399 147.346 83.0617 147.393 83.074 147.442C83.0863 147.491 83.0888 147.542 83.0813 147.592C83.0739 147.642 83.0566 147.69 83.0305 147.734L80.989 151.146C80.9556 151.198 80.9104 151.241 80.8572 151.273C80.804 151.304 80.7441 151.323 80.6825 151.327L80.6546 151.334Z" fill="#2D3962"/>
<path d="M41.6079 168.047H22.3146C21.8397 168.047 21.3842 167.858 21.0484 167.523C20.7126 167.187 20.5239 166.732 20.5239 166.257C20.5239 165.783 20.7126 165.327 21.0484 164.992C21.3842 164.656 21.8397 164.468 22.3146 164.468H41.6079C42.0828 164.468 42.5383 164.656 42.8741 164.992C43.2099 165.327 43.3986 165.783 43.3986 166.257C43.3986 166.732 43.2099 167.187 42.8741 167.523C42.5383 167.858 42.0828 168.047 41.6079 168.047Z" fill="#744EFF"/>
<path d="M62.7267 169.572H21.3879C20.9107 169.572 20.5239 169.957 20.5239 170.432C20.5239 170.907 20.9107 171.292 21.3879 171.292H62.7267C63.2039 171.292 63.5907 170.907 63.5907 170.432C63.5907 169.957 63.2039 169.572 62.7267 169.572Z" fill="#2D3962"/>
<path d="M62.7337 174.551H21.3879C21.16 174.551 20.9413 174.461 20.7794 174.301C20.6176 174.14 20.5258 173.922 20.5239 173.695C20.5257 173.466 20.6174 173.248 20.779 173.086C20.9406 172.924 21.1593 172.833 21.3879 172.831H62.7337C62.9616 172.833 63.1796 172.925 63.3401 173.086C63.5007 173.248 63.5907 173.467 63.5907 173.695C63.5907 173.922 63.5004 174.14 63.3397 174.3C63.179 174.461 62.961 174.551 62.7337 174.551Z" fill="#2D3962"/>
<path d="M85.1204 171.619C85.1204 172.446 84.8752 173.254 84.4158 173.941C83.9565 174.628 83.3035 175.163 82.5397 175.48C81.7758 175.796 80.9352 175.878 80.1242 175.717C79.3133 175.556 78.5684 175.158 77.9837 174.574C77.3991 173.989 77.0009 173.245 76.8396 172.434C76.6783 171.624 76.7611 170.784 77.0775 170.02C77.3939 169.257 77.9297 168.604 78.6172 168.145C79.3047 167.686 80.113 167.441 80.9398 167.441C82.0486 167.441 83.1119 167.881 83.8959 168.665C84.6799 169.448 85.1204 170.511 85.1204 171.619Z" fill="#F4B04E"/>
<path d="M80.6546 173.708C80.5982 173.708 80.5426 173.696 80.491 173.673C80.4395 173.651 80.3932 173.618 80.355 173.576L78.8848 171.828C78.8518 171.789 78.8269 171.744 78.8115 171.695C78.796 171.646 78.7905 171.594 78.795 171.543C78.7995 171.492 78.8141 171.442 78.8379 171.397C78.8617 171.351 78.8942 171.311 78.9336 171.278C78.9723 171.245 79.0172 171.221 79.0656 171.205C79.114 171.19 79.165 171.184 79.2155 171.189C79.2661 171.193 79.3152 171.208 79.3601 171.232C79.405 171.255 79.4448 171.288 79.4771 171.327L80.5988 172.657L82.3686 169.718C82.4213 169.631 82.5067 169.567 82.606 169.543C82.7053 169.518 82.8104 169.533 82.8982 169.586C82.9859 169.639 83.0492 169.724 83.074 169.823C83.0989 169.922 83.0832 170.027 83.0305 170.115L80.989 173.52C80.9568 173.574 80.9121 173.619 80.8587 173.652C80.8054 173.685 80.7449 173.704 80.6825 173.708H80.6546Z" fill="#2D3962"/>
<path d="M62.5665 102.394H44.7295C44.3599 102.394 44.0054 102.247 43.7441 101.986C43.4828 101.725 43.3359 101.37 43.3359 101.001C43.3359 100.632 43.4828 100.277 43.7441 100.016C44.0054 99.7549 44.3599 99.6082 44.7295 99.6082H62.5665C62.9361 99.6082 63.2906 99.7549 63.5519 100.016C63.8133 100.277 63.9601 100.632 63.9601 101.001C63.9601 101.37 63.8133 101.725 63.5519 101.986C63.2906 102.247 62.9361 102.394 62.5665 102.394Z" fill="#2D3962"/>
<path d="M191.607 2.2214H189.809V0.424783C189.809 0.312124 189.764 0.204079 189.685 0.124416C189.605 0.044754 189.497 0 189.384 0C189.271 0 189.163 0.044754 189.084 0.124416C189.004 0.204079 188.959 0.312124 188.959 0.424783V2.2214H187.161C187.049 2.2214 186.941 2.26616 186.861 2.34582C186.781 2.42548 186.736 2.53353 186.736 2.64619C186.736 2.75885 186.781 2.86689 186.861 2.94655C186.941 3.02622 187.049 3.07097 187.161 3.07097H188.959V4.86759C188.959 4.98025 189.004 5.0883 189.084 5.16796C189.163 5.24762 189.271 5.29238 189.384 5.29238C189.497 5.29238 189.605 5.24762 189.685 5.16796C189.764 5.0883 189.809 4.98025 189.809 4.86759V3.09882H191.607C191.719 3.09882 191.828 3.05407 191.907 2.97441C191.987 2.89475 192.032 2.7867 192.032 2.67404C192.032 2.56138 191.987 2.45334 191.907 2.37367C191.828 2.29401 191.719 2.24926 191.607 2.24926V2.2214Z" fill="#2D3962"/>
<path d="M36.2846 72.1991C35.969 72.1991 35.6605 72.1056 35.3981 71.9304C35.1357 71.7552 34.9312 71.5061 34.8104 71.2147C34.6897 70.9233 34.6581 70.6027 34.7196 70.2933C34.7812 69.984 34.9331 69.6999 35.1563 69.4768C35.3794 69.2538 35.6637 69.1019 35.9733 69.0404C36.2828 68.9789 36.6036 69.0105 36.8952 69.1312C37.1867 69.2518 37.4359 69.4562 37.6112 69.7185C37.7865 69.9807 37.8801 70.2891 37.8801 70.6045C37.8783 71.0268 37.7096 71.4314 37.4108 71.73C37.1119 72.0287 36.7072 72.1973 36.2846 72.1991ZM36.2846 69.8593C36.1371 69.8593 35.9929 69.903 35.8703 69.9849C35.7477 70.0668 35.6522 70.1832 35.5958 70.3193C35.5393 70.4555 35.5246 70.6053 35.5533 70.7498C35.5821 70.8943 35.6531 71.0271 35.7574 71.1313C35.8616 71.2355 35.9945 71.3065 36.1391 71.3352C36.2837 71.364 36.4336 71.3492 36.5698 71.2928C36.7061 71.2365 36.8225 71.1409 36.9044 71.0184C36.9863 70.8959 37.0301 70.7518 37.0301 70.6045C37.031 70.5063 37.0124 70.409 36.9752 70.3182C36.9381 70.2274 36.8832 70.1449 36.8138 70.0755C36.7444 70.0061 36.6618 69.9513 36.5709 69.9142C36.4801 69.877 36.3827 69.8584 36.2846 69.8593Z" fill="#2D3962"/>
<path d="M263.575 62.1645H261.777V60.3679C261.777 60.2552 261.733 60.1472 261.653 60.0675C261.573 59.9879 261.465 59.9431 261.352 59.9431C261.24 59.9431 261.131 59.9879 261.052 60.0675C260.972 60.1472 260.927 60.2552 260.927 60.3679V62.1645H259.13C259.017 62.1645 258.909 62.2093 258.829 62.2889C258.749 62.3686 258.705 62.4766 258.705 62.5893C258.705 62.702 258.749 62.81 258.829 62.8897C258.909 62.9693 259.017 63.0141 259.13 63.0141H260.927V64.8107C260.927 64.9234 260.972 65.0314 261.052 65.1111C261.131 65.1907 261.24 65.2355 261.352 65.2355C261.465 65.2355 261.573 65.1907 261.653 65.1111C261.733 65.0314 261.777 64.9234 261.777 64.8107V62.9862H263.575C263.688 62.9862 263.796 62.9415 263.875 62.8618C263.955 62.7822 264 62.6741 264 62.5614C264 62.4488 263.955 62.3407 263.875 62.2611C263.796 62.1814 263.688 62.1367 263.575 62.1367V62.1645Z" fill="#2D3962"/>
<path d="M243.411 16.65C243.093 16.6514 242.782 16.5585 242.518 16.383C242.253 16.2076 242.047 15.9575 241.925 15.6645C241.802 15.3716 241.77 15.049 241.832 14.7377C241.893 14.4263 242.046 14.1403 242.271 13.9159C242.495 13.6915 242.781 13.5388 243.093 13.4772C243.404 13.4156 243.727 13.4479 244.02 13.57C244.313 13.6921 244.564 13.8985 244.739 14.1629C244.915 14.4274 245.008 14.738 245.006 15.0554C245.005 15.4777 244.836 15.8823 244.537 16.1809C244.238 16.4796 243.833 16.6482 243.411 16.65ZM243.411 14.3103C243.263 14.3103 243.119 14.354 242.997 14.4358C242.874 14.5177 242.778 14.6341 242.722 14.7702C242.666 14.9064 242.651 15.0562 242.68 15.2007C242.708 15.3453 242.779 15.478 242.884 15.5822C242.988 15.6864 243.121 15.7574 243.265 15.7862C243.41 15.8149 243.56 15.8002 243.696 15.7438C243.832 15.6874 243.949 15.5919 244.031 15.4693C244.113 15.3468 244.156 15.2027 244.156 15.0554C244.156 14.8577 244.078 14.6682 243.938 14.5285C243.798 14.3888 243.609 14.3103 243.411 14.3103Z" fill="#2D3962"/>
<path d="M146.944 27.0329H145.167V25.2363C145.167 25.1236 145.123 25.0156 145.043 24.9359C144.963 24.8563 144.855 24.8115 144.742 24.8115C144.63 24.8115 144.522 24.8563 144.442 24.9359C144.362 25.0156 144.317 25.1236 144.317 25.2363V27.0329H142.52C142.407 27.0329 142.299 27.0777 142.219 27.1573C142.14 27.237 142.095 27.3451 142.095 27.4577C142.095 27.5704 142.14 27.6784 142.219 27.7581C142.299 27.8377 142.407 27.8825 142.52 27.8825H144.317V29.6791C144.319 29.7912 144.365 29.8982 144.444 29.9775C144.523 30.0568 144.63 30.1021 144.742 30.1039C144.855 30.1039 144.963 30.0591 145.043 29.9795C145.123 29.8998 145.167 29.7918 145.167 29.6791V27.8825H146.965C147.078 27.8825 147.186 27.8377 147.266 27.7581C147.345 27.6784 147.39 27.5704 147.39 27.4577C147.39 27.3451 147.345 27.237 147.266 27.1573C147.186 27.0777 147.078 27.0329 146.965 27.0329H146.944Z" fill="#2D3962"/>
<path d="M55.6198 36.197H53.8291V34.4352C53.8369 34.3744 53.8316 34.3126 53.8137 34.254C53.7957 34.1953 53.7654 34.1412 53.7249 34.0952C53.6843 34.0492 53.6345 34.0123 53.5785 33.987C53.5226 33.9618 53.462 33.9487 53.4006 33.9487C53.3393 33.9487 53.2786 33.9618 53.2227 33.987C53.1668 34.0123 53.1169 34.0492 53.0764 34.0952C53.0359 34.1412 53.0056 34.1953 52.9876 34.254C52.9696 34.3126 52.9643 34.3744 52.9721 34.4352V36.2249H51.1814C51.0772 36.2382 50.9814 36.289 50.912 36.3678C50.8425 36.4467 50.8042 36.5481 50.8042 36.6531C50.8042 36.7581 50.8425 36.8596 50.912 36.9384C50.9814 37.0172 51.0772 37.0681 51.1814 37.0814H52.9721V38.871C52.9854 38.9752 53.0363 39.071 53.1152 39.1404C53.1941 39.2098 53.2955 39.2481 53.4006 39.2481C53.5057 39.2481 53.6072 39.2098 53.6861 39.1404C53.765 39.071 53.8158 38.9752 53.8291 38.871V37.0814H55.6198C55.6807 37.0892 55.7425 37.0839 55.8012 37.0659C55.8598 37.0479 55.914 37.0177 55.96 36.9772C56.0061 36.9367 56.043 36.8868 56.0682 36.8309C56.0935 36.7751 56.1066 36.7144 56.1066 36.6531C56.1066 36.5918 56.0935 36.5312 56.0682 36.4753C56.043 36.4194 56.0061 36.3696 55.96 36.3291C55.914 36.2885 55.8598 36.2583 55.8012 36.2403C55.7425 36.2224 55.6807 36.2171 55.6198 36.2249V36.197Z" fill="#2D3962"/>
<path d="M98.2548 8.01528C97.9392 8.01528 97.6307 7.92176 97.3683 7.74653C97.1059 7.57131 96.9014 7.32225 96.7806 7.03086C96.6599 6.73947 96.6283 6.41884 96.6898 6.1095C96.7514 5.80016 96.9034 5.51602 97.1265 5.293C97.3497 5.06998 97.634 4.9181 97.9435 4.85657C98.253 4.79504 98.5738 4.82662 98.8654 4.94731C99.1569 5.06801 99.4061 5.27241 99.5814 5.53465C99.7568 5.79689 99.8503 6.10521 99.8503 6.4206C99.8513 6.63028 99.8106 6.83806 99.7308 7.03195C99.6509 7.22584 99.5334 7.402 99.3851 7.55027C99.2367 7.69853 99.0605 7.81596 98.8665 7.89577C98.6725 7.97559 98.4646 8.0162 98.2548 8.01528ZM98.2548 5.68246C98.1067 5.68108 97.9616 5.72378 97.838 5.80513C97.7143 5.88647 97.6177 6.00277 97.5604 6.1392C97.5031 6.27563 97.4877 6.42602 97.5163 6.5712C97.5448 6.71638 97.616 6.84979 97.7207 6.95441C97.8253 7.05903 97.9588 7.13014 98.1041 7.15867C98.2493 7.1872 98.3998 7.17185 98.5363 7.11459C98.6728 7.05734 98.7892 6.96076 98.8706 6.83717C98.952 6.71357 98.9947 6.56856 98.9933 6.4206C98.9915 6.2254 98.9131 6.0387 98.775 5.90066C98.6369 5.76262 98.4501 5.68427 98.2548 5.68246Z" fill="#2D3962"/>
</svg>
