<svg width="346" height="244" viewBox="0 0 346 244" fill="none" xmlns="http://www.w3.org/2000/svg">
<path d="M282.049 161.517C282.436 161.013 282.708 160.43 282.846 159.81C282.984 159.189 282.985 158.546 282.848 157.925C282.711 157.304 282.441 156.72 282.054 156.216C281.668 155.711 281.177 155.298 280.614 155.004L281.472 145.101L275.594 143.111L274.579 157.113C274.15 158.093 274.094 159.197 274.423 160.216C274.751 161.234 275.441 162.096 276.362 162.639C277.282 163.182 278.369 163.368 279.417 163.161C280.465 162.954 281.401 162.369 282.047 161.517L282.049 161.517Z" fill="#FFB8B8"/>
<path d="M311.373 238.509H306.085L303.568 218.052H311.377L311.373 238.509Z" fill="#FFB8B8"/>
<path d="M302.305 236.993H312.509V243.432H295.881C295.881 241.724 296.558 240.086 297.763 238.879C298.967 237.671 300.602 236.993 302.305 236.993Z" fill="#2F2E41"/>
<path d="M299.366 224.934L294.229 226.2L286.914 206.938L294.497 205.07L299.366 224.934Z" fill="#FFB8B8"/>
<path d="M290.27 225.449L300.178 223.005L301.714 229.258L285.567 233.241C285.16 231.583 285.427 229.83 286.309 228.369C287.191 226.908 288.616 225.858 290.27 225.449Z" fill="#2F2E41"/>
<path d="M305.183 231.986C304.7 231.987 304.234 231.808 303.874 231.484C303.515 231.16 303.289 230.714 303.24 230.233L297.153 173.384L291.855 190.769L299.358 217.921C299.488 218.386 299.441 218.883 299.227 219.316C299.013 219.749 298.647 220.087 298.199 220.266L292.234 222.658C291.988 222.756 291.725 222.804 291.461 222.798C291.196 222.791 290.936 222.731 290.695 222.621C290.454 222.512 290.238 222.354 290.06 222.158C289.882 221.962 289.745 221.732 289.658 221.481L280.463 195.037C279.456 192.149 279.011 189.095 279.151 186.04L280.434 157.501L314.238 158.935L313.711 229.545C313.705 230.036 313.516 230.508 313.181 230.867C312.846 231.226 312.389 231.447 311.9 231.486L305.336 231.982C305.284 231.984 305.234 231.986 305.183 231.986Z" fill="#2F2E41"/>
<path d="M299.585 94.3408C305.862 94.3408 310.952 89.2399 310.952 82.9475C310.952 76.6552 305.862 71.5542 299.585 71.5542C293.307 71.5542 288.218 76.6552 288.218 82.9475C288.218 89.2399 293.307 94.3408 299.585 94.3408Z" fill="#FFB8B8"/>
<path d="M307.944 160.792C304.951 160.792 301.233 160.546 297.384 160.293C292.127 159.946 286.691 159.587 282.632 159.823C282.084 159.877 281.532 159.79 281.027 159.57C280.522 159.349 280.082 159.003 279.748 158.564C275.565 153.195 282.016 132.258 282.294 131.37L287.544 107.959L287.77 108.01L287.544 107.959C288.701 102.81 292.39 99.0116 297.176 98.0467C301.656 97.1449 305.989 98.9425 308.768 102.859C308.916 103.067 309.063 103.281 309.21 103.499C318.259 116.932 313.141 150.304 312.798 152.456C313.276 153.03 315.861 156.275 315.15 158.529C314.861 159.446 314.076 160.071 312.817 160.385C311.213 160.703 309.577 160.839 307.943 160.79L307.944 160.792Z" fill="#6C63FF"/>
<path d="M282.815 160.802C281.786 160.802 280.397 160.421 278.524 159.642C277.72 159.306 275.27 158.286 278.244 132.24C279.704 119.446 281.797 106.742 281.818 106.615L281.838 106.493L281.95 106.442C282.004 106.417 287.348 103.962 288.277 100.807C288.308 100.698 288.344 100.592 288.385 100.49C288.641 99.7882 289.157 99.213 289.826 98.8839C290.494 98.5547 291.264 98.4971 291.974 98.7231C292.724 98.9027 293.378 99.3617 293.802 100.007C294.227 100.652 294.391 101.435 294.261 102.197C293.937 104.254 293.315 106.253 292.414 108.131C289.9 113.331 288.196 127.116 288.179 127.255C288.083 128.432 285.801 156.327 285.362 158.444C285.208 159.183 284.926 160.088 284.097 160.526C283.699 160.723 283.26 160.819 282.816 160.805L282.815 160.802Z" fill="#2F2E41"/>
<path d="M295.233 159.733C295.025 159.733 294.823 159.664 294.659 159.536C291.315 156.989 296.727 126.113 299.935 115.46C300.578 113.326 301.15 111.5 301.637 110.03C302.523 107.392 303.141 104.672 303.483 101.909C303.66 100.413 304.043 99.5584 304.657 99.2964C305.083 99.1141 305.583 99.2379 306.147 99.6642C309.112 99.5176 311.993 100.731 314.663 102.068L317.066 103.269L319.762 151.118C319.685 154.171 313.68 156.327 311.061 156.465C306.855 156.686 299.301 157.373 295.974 159.484C295.756 159.636 295.499 159.722 295.233 159.733L295.233 159.733Z" fill="#2F2E41"/>
<path d="M280.212 150.755C280.172 150.755 280.133 150.755 280.092 150.752L274.646 150.416C274.375 150.399 274.11 150.326 273.869 150.201C273.627 150.076 273.414 149.903 273.244 149.691C273.073 149.479 272.948 149.234 272.877 148.971C272.806 148.709 272.79 148.434 272.831 148.165L275.295 131.799L279.934 108.837C280.048 108.272 280.28 107.737 280.614 107.266C280.948 106.796 281.376 106.402 281.872 106.108C282.368 105.815 282.92 105.629 283.492 105.563C284.064 105.497 284.643 105.552 285.192 105.725C286.132 106.026 286.933 106.653 287.451 107.493C287.969 108.333 288.171 109.332 288.019 110.308L284.334 133.316L282.151 149.064C282.084 149.532 281.852 149.96 281.495 150.271C281.139 150.582 280.684 150.753 280.212 150.755H280.212Z" fill="#2F2E41"/>
<path d="M298.817 132.843C299.149 132.301 299.596 131.839 300.126 131.489C300.655 131.139 301.255 130.909 301.883 130.817C302.51 130.724 303.151 130.771 303.759 130.953C304.366 131.135 304.927 131.449 305.401 131.872L314.33 127.548L318.275 132.347L305.579 138.275C304.818 139.025 303.808 139.47 302.741 139.524C301.674 139.578 300.625 139.239 299.791 138.569C298.958 137.899 298.398 136.947 298.219 135.891C298.039 134.836 298.252 133.751 298.817 132.843Z" fill="#FFB8B8"/>
<path d="M311.222 137.486C310.783 137.486 310.356 137.337 310.01 137.065C309.665 136.792 309.421 136.411 309.318 135.982L308.022 130.578C307.923 130.172 307.957 129.744 308.119 129.358C308.28 128.973 308.561 128.649 308.92 128.435L316.742 123.743L312.743 109.068C312.397 107.812 312.556 106.469 313.185 105.329C313.814 104.188 314.864 103.339 316.11 102.964C317.355 102.589 318.698 102.718 319.85 103.323C321.002 103.928 321.872 104.961 322.274 106.201L326.688 119.712C327.231 121.359 327.235 123.136 326.7 124.785C326.166 126.435 325.121 127.871 323.717 128.884L312.369 137.113C312.035 137.355 311.634 137.486 311.222 137.486Z" fill="#2F2E41"/>
<path d="M226.715 0H7.71953C5.67294 0.00245525 3.71087 0.818444 2.2637 2.26897C0.816538 3.7195 0.00244955 5.68613 0 7.73749V31.3582C0.00244955 33.4095 0.816538 35.3762 2.2637 36.8267C3.71087 38.2772 5.67294 39.0932 7.71953 39.0957H226.715C228.761 39.0932 230.723 38.2772 232.171 36.8267C233.618 35.3762 234.432 33.4095 234.434 31.3582V7.73749C234.432 5.68613 233.618 3.7195 232.171 2.26897C230.723 0.818444 228.761 0.00245525 226.715 0ZM233.622 31.3582C233.619 33.1934 232.89 34.9527 231.596 36.2504C230.301 37.5481 228.546 38.2784 226.715 38.2811H7.71953C5.88855 38.2784 4.13333 37.5481 2.83862 36.2504C1.54392 34.9527 0.815372 33.1934 0.812679 31.3582V7.73749C0.815372 5.90224 1.54392 4.14294 2.83862 2.84523C4.13333 1.54751 5.88855 0.817268 7.71953 0.814569H226.715C228.546 0.817268 230.301 1.54751 231.596 2.84523C232.89 4.14294 233.619 5.90224 233.622 7.73749V31.3582Z" fill="#3F3D56"/>
<path d="M226.715 94.8877H7.71953C5.67294 94.8852 3.71087 94.0692 2.2637 92.6187C0.816538 91.1682 0.00244955 89.2015 0 87.1502V63.53C0.00244955 61.4786 0.816538 59.512 2.2637 58.0615C3.71087 56.6109 5.67294 55.7949 7.71953 55.7925H226.715C228.761 55.7949 230.723 56.6109 232.171 58.0615C233.618 59.512 234.432 61.4786 234.434 63.53V87.1502C234.432 89.2015 233.618 91.1682 232.171 92.6187C230.723 94.0692 228.761 94.8852 226.715 94.8877ZM7.71953 56.6071C5.88836 56.6091 4.13279 57.3392 2.83795 58.637C1.54312 59.9349 0.814761 61.6946 0.812679 63.53V87.1502C0.814394 88.9859 1.54258 90.7459 2.83746 92.044C4.13233 93.3422 5.88812 94.0724 7.71953 94.0745H226.715C228.546 94.0725 230.302 93.3426 231.597 92.0447C232.891 90.7468 233.62 88.9871 233.622 87.1516V63.53C233.62 61.6946 232.892 59.9349 231.597 58.637C230.302 57.3392 228.546 56.6091 226.715 56.6071H7.71953Z" fill="#CCCCCC"/>
<path d="M226.715 150.68H7.71953C5.67294 150.678 3.71087 149.862 2.2637 148.411C0.816538 146.961 0.00244955 144.994 0 142.943V119.322C0.00244955 117.271 0.816538 115.304 2.2637 113.854C3.71087 112.403 5.67294 111.587 7.71953 111.585H226.715C228.761 111.587 230.723 112.403 232.171 113.854C233.618 115.304 234.432 117.271 234.434 119.322V142.943C234.432 144.994 233.618 146.961 232.171 148.411C230.723 149.862 228.761 150.678 226.715 150.68ZM7.71953 112.398C5.88836 112.4 4.13279 113.13 2.83795 114.428C1.54312 115.726 0.814761 117.485 0.812679 119.321V142.941C0.814639 144.776 1.54294 146.536 2.83779 147.834C4.13264 149.132 5.88828 149.862 7.71953 149.864H226.715C228.546 149.862 230.302 149.132 231.597 147.834C232.891 146.537 233.62 144.777 233.622 142.941V119.322C233.62 117.487 232.892 115.726 231.597 114.428C230.302 113.13 228.546 112.4 226.715 112.398H7.71953Z" fill="#CCCCCC"/>
<path d="M37.3106 33.0152C34.6532 33.0152 32.0555 32.2254 29.8459 30.7455C27.6364 29.2657 25.9142 27.1624 24.8973 24.7016C23.8803 22.2408 23.6143 19.5329 24.1327 16.9205C24.6511 14.3081 25.9308 11.9085 27.8098 10.0251C29.6889 8.14162 32.083 6.85898 34.6893 6.33934C37.2957 5.8197 39.9972 6.0864 42.4523 7.10571C44.9075 8.12502 47.0059 9.85116 48.4823 12.0658C49.9586 14.2805 50.7467 16.8843 50.7467 19.5479C50.7467 23.1196 49.3311 26.5451 46.8113 29.0707C44.2916 31.5963 40.874 33.0152 37.3106 33.0152Z" fill="#6C63FF"/>
<path d="M206.877 30.5432H63.4546C62.5925 30.5432 61.7657 30.1999 61.1562 29.5889C60.5466 28.9779 60.2041 28.1492 60.2041 27.2851C60.2041 26.4211 60.5466 25.5924 61.1562 24.9814C61.7657 24.3704 62.5925 24.0271 63.4546 24.0271H206.877C207.739 24.0271 208.566 24.3704 209.175 24.9814C209.785 25.5924 210.127 26.4211 210.127 27.2851C210.127 28.1492 209.785 28.9779 209.175 29.5889C208.566 30.1999 207.739 30.5432 206.877 30.5432Z" fill="#CCCCCC"/>
<path d="M160.15 16.6969H63.4517C62.5896 16.6969 61.7628 16.3536 61.1532 15.7426C60.5436 15.1316 60.2012 14.3029 60.2012 13.4388C60.2012 12.5747 60.5436 11.746 61.1532 11.135C61.7628 10.524 62.5896 10.1808 63.4517 10.1808H160.15C161.012 10.1808 161.839 10.524 162.449 11.135C163.058 11.746 163.401 12.5747 163.401 13.4388C163.401 14.3029 163.058 15.1316 162.449 15.7426C161.839 16.3536 161.012 16.6969 160.15 16.6969Z" fill="#CCCCCC"/>
<path d="M37.3106 88.8072C34.6532 88.8072 32.0555 88.0173 29.8459 86.5375C27.6364 85.0577 25.9142 82.9544 24.8973 80.4936C23.8803 78.0328 23.6143 75.3249 24.1327 72.7125C24.6511 70.1001 25.9308 67.7005 27.8098 65.817C29.6889 63.9336 32.083 62.651 34.6893 62.1313C37.2957 61.6117 39.9972 61.8784 42.4523 62.8977C44.9075 63.917 47.0059 65.6432 48.4823 67.8578C49.9586 70.0725 50.7467 72.6763 50.7467 75.3399C50.7467 78.9116 49.3311 82.3371 46.8113 84.8627C44.2916 87.3883 40.874 88.8072 37.3106 88.8072Z" fill="#E6E6E6"/>
<path d="M206.877 86.3356H63.4546C62.5925 86.3356 61.7657 85.9923 61.1562 85.3813C60.5466 84.7703 60.2041 83.9416 60.2041 83.0775C60.2041 82.2134 60.5466 81.3847 61.1562 80.7737C61.7657 80.1627 62.5925 79.8195 63.4546 79.8195H206.877C207.739 79.8195 208.566 80.1627 209.175 80.7737C209.785 81.3847 210.127 82.2134 210.127 83.0775C210.127 83.9416 209.785 84.7703 209.175 85.3813C208.566 85.9923 207.739 86.3356 206.877 86.3356Z" fill="#E6E6E6"/>
<path d="M160.15 72.4894H63.4517C62.5896 72.4894 61.7628 72.1461 61.1532 71.5351C60.5436 70.9241 60.2012 70.0954 60.2012 69.2313C60.2012 68.3672 60.5436 67.5385 61.1532 66.9275C61.7628 66.3165 62.5896 65.9733 63.4517 65.9733H160.15C161.012 65.9733 161.839 66.3165 162.449 66.9275C163.058 67.5385 163.401 68.3672 163.401 69.2313C163.401 70.0954 163.058 70.9241 162.449 71.5351C161.839 72.1461 161.012 72.4894 160.15 72.4894Z" fill="#E6E6E6"/>
<path d="M37.3106 144.6C34.6532 144.6 32.0555 143.81 29.8459 142.33C27.6364 140.85 25.9142 138.747 24.8973 136.286C23.8803 133.825 23.6143 131.117 24.1327 128.505C24.6511 125.893 25.9308 123.493 27.8098 121.61C29.6889 119.726 32.083 118.443 34.6893 117.924C37.2957 117.404 39.9972 117.671 42.4523 118.69C44.9075 119.709 47.0059 121.436 48.4823 123.65C49.9586 125.865 50.7467 128.469 50.7467 131.132C50.7467 134.704 49.3311 138.13 46.8113 140.655C44.2916 143.181 40.874 144.6 37.3106 144.6Z" fill="#E6E6E6"/>
<path d="M206.877 142.128H63.4546C62.5925 142.128 61.7657 141.785 61.1562 141.174C60.5466 140.563 60.2041 139.734 60.2041 138.87C60.2041 138.006 60.5466 137.177 61.1562 136.566C61.7657 135.955 62.5925 135.612 63.4546 135.612H206.877C207.739 135.612 208.566 135.955 209.175 136.566C209.785 137.177 210.127 138.006 210.127 138.87C210.127 139.734 209.785 140.563 209.175 141.174C208.566 141.785 207.739 142.128 206.877 142.128Z" fill="#E6E6E6"/>
<path d="M160.15 128.282H63.4517C62.5896 128.282 61.7628 127.939 61.1532 127.328C60.5436 126.717 60.2012 125.888 60.2012 125.024C60.2012 124.16 60.5436 123.331 61.1532 122.72C61.7628 122.109 62.5896 121.766 63.4517 121.766H160.15C161.012 121.766 161.839 122.109 162.449 122.72C163.058 123.331 163.401 124.16 163.401 125.024C163.401 125.888 163.058 126.717 162.449 127.328C161.839 127.939 161.012 128.282 160.15 128.282Z" fill="#E6E6E6"/>
<path d="M36.6247 24.2849C36.291 24.2857 35.9661 24.1776 35.6991 23.9769L35.6824 23.9644L32.1998 21.2943C32.0385 21.1703 31.9032 21.0158 31.8015 20.8394C31.6998 20.663 31.6337 20.4683 31.6071 20.2664C31.5805 20.0644 31.5938 19.8592 31.6463 19.6624C31.6988 19.4656 31.7895 19.2811 31.9131 19.1194C32.0368 18.9577 32.191 18.822 32.367 18.7201C32.5429 18.6182 32.7372 18.552 32.9387 18.5253C33.1402 18.4986 33.3449 18.5119 33.5413 18.5646C33.7376 18.6172 33.9217 18.7081 34.083 18.832L36.3387 20.566L41.6688 13.5958C41.9184 13.2695 42.2871 13.056 42.6938 13.0021C43.1005 12.9483 43.5118 13.0585 43.8374 13.3086L43.8046 13.355L43.8384 13.3086C44.1635 13.5592 44.3762 13.9289 44.4298 14.3364C44.4835 14.744 44.3736 15.1563 44.1244 15.4828L37.8548 23.6777C37.7095 23.8662 37.523 24.0186 37.3095 24.1232C37.096 24.2277 36.8614 24.2817 36.6238 24.2807L36.6247 24.2849Z" fill="white"/>
<path d="M345.537 244H253.902C253.78 244 253.662 243.951 253.575 243.864C253.488 243.777 253.439 243.659 253.439 243.536C253.439 243.413 253.488 243.295 253.575 243.208C253.662 243.121 253.78 243.072 253.902 243.072H345.537C345.66 243.072 345.778 243.121 345.864 243.208C345.951 243.295 346 243.413 346 243.536C346 243.659 345.951 243.777 345.864 243.864C345.778 243.951 345.66 244 345.537 244Z" fill="#CCCCCC"/>
<path d="M303.763 85.9843C303.763 85.9843 302.38 78.3182 299.233 79.2341C296.085 80.1501 287.985 81.0872 287.969 77.4769C287.954 73.8665 295.595 70.6754 300.099 71.1073C304.603 71.5392 312.263 72.8605 311.841 79.6317C311.503 83.8963 310.188 88.0252 307.998 91.6971L303.763 85.9843Z" fill="#2F2E41"/>
</svg>
