<svg width="283" height="246" viewBox="0 0 283 246" fill="none" xmlns="http://www.w3.org/2000/svg">
<path d="M251.647 241.934H282.981L268.373 116.33L251.647 241.934Z" fill="#E0E0E0"/>
<path d="M97.4644 116.33L77.064 243.416L251.147 245.678L268.372 116.33H97.4644Z" fill="#FAFAFA"/>
<path d="M260.62 174.548H88.1184L91.8713 151.148H263.736L260.62 174.548Z" fill="#EBEBEB"/>
<path d="M260.632 174.566H88.1003L91.8593 151.166H263.754L260.632 174.566ZM88.1364 174.536H260.608L263.717 151.136H91.8893L88.1364 174.536Z" fill="#263238"/>
<path d="M97.4644 116.33L91.8711 151.148H263.735L268.372 116.33H97.4644Z" fill="#6C63FF"/>
<path d="M97.4886 116.33L268.397 116.186H268.559V116.348C263.525 154.214 257.811 197.156 251.773 242.51V242.648H249.68L77.2084 242.6H77.04V242.45L97.4886 116.33C97.3202 117.374 89.5498 166.1 77.3588 242.51L77.2325 242.36H249.638H251.593L251.442 242.492C257.487 197.138 263.212 154.202 268.282 116.336L268.421 116.492L97.4886 116.33Z" fill="#263238"/>
<path d="M263.735 151.148C263.735 151.232 225.244 151.304 177.809 151.304C130.375 151.304 91.8711 151.232 91.8711 151.148C91.8711 151.064 130.363 150.992 177.809 150.992C225.256 150.992 263.735 151.058 263.735 151.148Z" fill="#263238"/>
<path d="M260.62 174.548C260.62 174.638 221.924 174.704 174.207 174.704C126.49 174.704 87.7876 174.638 87.7876 174.548C87.7876 174.458 126.471 174.392 174.207 174.392C221.942 174.392 260.62 174.464 260.62 174.548Z" fill="#263238"/>
<path d="M257.108 196.082C257.108 196.172 218.418 196.238 170.7 196.238C122.983 196.238 84.2571 196.172 84.2571 196.082C84.2571 195.992 122.941 195.926 170.676 195.926C218.412 195.926 257.108 195.998 257.108 196.082Z" fill="#263238"/>
<path d="M253.601 217.616C253.601 217.7 214.905 217.772 167.188 217.772C119.471 217.772 80.7688 217.7 80.7688 217.616C80.7688 217.532 119.453 217.46 167.188 217.46C214.923 217.46 253.601 217.532 253.601 217.616Z" fill="#263238"/>
<path d="M101.5 242.684C101.416 242.684 104.573 222.164 108.561 196.892C112.548 171.62 115.838 151.13 115.922 151.148C116.007 151.166 112.849 171.656 108.868 196.94C104.886 222.224 101.59 242.696 101.5 242.684Z" fill="#263238"/>
<path d="M128.101 242.684C128.011 242.684 131.175 222.164 135.156 196.892C139.137 171.62 142.433 151.13 142.524 151.148C142.614 151.166 139.45 171.656 135.463 196.94C131.475 222.224 128.161 242.696 128.101 242.684Z" fill="#263238"/>
<path d="M152.82 241.766C152.736 241.766 155.863 221.456 159.803 196.436C163.742 171.416 167.02 151.13 167.098 151.148C167.176 151.166 164.055 171.452 160.115 196.484C156.176 221.516 152.898 241.778 152.82 241.766Z" fill="#263238"/>
<path d="M177.268 242.492C177.184 242.492 180.336 222.014 184.311 196.796C188.286 171.578 191.576 151.13 191.66 151.148C191.745 151.166 188.593 171.614 184.618 196.844C180.642 222.074 177.352 242.504 177.268 242.492Z" fill="#263238"/>
<path d="M201.837 242.492C201.752 242.492 204.904 222.014 208.879 196.796C212.855 171.578 216.145 151.13 216.229 151.148C216.313 151.166 213.168 171.614 209.192 196.844C205.217 222.074 201.927 242.504 201.837 242.492Z" fill="#263238"/>
<path d="M226.387 242.6C226.303 242.6 229.46 222.098 233.442 196.838C237.423 171.578 240.713 151.106 240.803 151.124C240.893 151.142 237.73 171.62 233.748 196.886C229.767 222.152 226.471 242.636 226.387 242.6Z" fill="#263238"/>
<path d="M210.93 152.78C213.889 151.472 215.741 148.4 216.505 145.262C217.269 142.124 217.149 138.848 217.263 135.614C217.377 132.38 217.762 129.05 219.416 126.272C220.396 124.634 221.774 123.272 222.862 121.694C223.951 120.116 224.757 118.196 224.354 116.294L205.842 116.39L210.93 152.78Z" fill="black"/>
<path d="M139.21 181.796C139.21 181.796 139.27 181.64 139.396 181.334C139.596 180.89 139.837 180.466 140.118 180.068C141.224 178.527 142.783 177.367 144.58 176.75C145.867 176.286 147.241 176.106 148.604 176.222C150.228 176.379 151.793 176.911 153.175 177.776C154.77 178.757 156.119 180.091 157.114 181.676C158.266 183.445 158.84 185.526 158.756 187.634C158.687 188.771 158.333 189.873 157.728 190.838C157.093 191.839 156.247 192.691 155.25 193.334C153.125 194.693 150.624 195.346 148.105 195.2C146.785 195.129 145.486 194.848 144.256 194.366C142.976 193.867 141.825 193.088 140.888 192.086C140.422 191.559 140.029 190.972 139.721 190.34C139.427 189.695 139.224 189.013 139.119 188.312C138.92 186.877 139.045 185.415 139.486 184.034C140.406 181.155 142.4 178.738 145.056 177.284C147.846 175.755 151.188 175.602 154.107 176.87C155.599 177.497 156.905 178.495 157.902 179.768C158.9 181.075 159.523 182.629 159.706 184.262C159.914 185.919 159.646 187.6 158.93 189.11C158.563 189.868 158.08 190.564 157.499 191.174C156.907 191.775 156.24 192.298 155.514 192.728C152.554 194.355 149.048 194.68 145.837 193.628C144.273 193.149 142.835 192.329 141.627 191.228C140.429 190.126 139.611 188.675 139.288 187.082C138.949 185.516 139.172 183.88 139.919 182.462C140.298 181.763 140.818 181.15 141.447 180.662C142.066 180.196 142.756 179.833 143.492 179.588C144.936 179.126 146.451 178.923 147.966 178.988C149.442 178.999 150.909 179.2 152.333 179.588C153.74 179.957 155.04 180.652 156.128 181.616C157.17 182.586 157.881 183.858 158.161 185.252C158.437 186.6 158.356 187.995 157.926 189.302C157.5 190.562 156.781 191.703 155.827 192.632C154.016 194.399 151.616 195.441 149.085 195.56C147.9 195.622 146.715 195.451 145.597 195.056C144.523 194.672 143.558 194.036 142.782 193.202C142.048 192.406 141.492 191.463 141.152 190.436C140.817 189.472 140.668 188.455 140.713 187.436C140.799 185.55 141.553 183.755 142.842 182.372C143.944 181.169 145.338 180.27 146.89 179.762C148.192 179.338 149.572 179.208 150.931 179.378C152.81 179.611 154.595 180.328 156.11 181.46C156.503 181.749 156.875 182.065 157.222 182.408C157.457 182.642 157.571 182.768 157.571 182.768C157.571 182.768 157.439 182.654 157.204 182.432C156.847 182.101 156.469 181.792 156.074 181.508C154.556 180.41 152.781 179.718 150.919 179.498C147.94 179.154 144.979 180.272 142.975 182.498C141.719 183.851 140.988 185.606 140.912 187.448C140.871 188.447 141.02 189.444 141.351 190.388C141.686 191.385 142.229 192.298 142.945 193.07C143.698 193.878 144.635 194.495 145.675 194.87C146.766 195.248 147.92 195.411 149.073 195.35C151.543 195.228 153.883 194.206 155.647 192.476C156.568 191.577 157.263 190.473 157.673 189.254C158.085 187.991 158.159 186.643 157.89 185.342C157.619 184.003 156.936 182.782 155.935 181.85C154.877 180.922 153.617 180.252 152.255 179.894C150.855 179.512 149.412 179.31 147.96 179.294C146.481 179.238 145.003 179.442 143.594 179.894C142.157 180.333 140.94 181.3 140.19 182.6C139.478 183.957 139.265 185.519 139.589 187.016C139.9 188.547 140.69 189.939 141.844 190.994C143.014 192.073 144.411 192.876 145.934 193.346C149.059 194.372 152.471 194.055 155.352 192.47C156.056 192.058 156.701 191.553 157.271 190.97C157.829 190.384 158.294 189.717 158.648 188.99C159.34 187.533 159.6 185.91 159.4 184.31C159.228 182.733 158.631 181.232 157.673 179.966C156.71 178.735 155.447 177.771 154.005 177.164C151.173 175.93 147.927 176.076 145.218 177.56C142.637 178.978 140.699 181.329 139.805 184.13C139.376 185.47 139.251 186.888 139.438 188.282C139.546 188.959 139.749 189.617 140.04 190.238C140.337 190.845 140.713 191.409 141.158 191.918C142.065 192.888 143.179 193.643 144.418 194.126C145.621 194.601 146.892 194.88 148.183 194.954C150.648 195.105 153.098 194.475 155.184 193.154C157.138 191.961 158.408 189.912 158.606 187.634C158.69 185.572 158.133 183.535 157.012 181.802C156.039 180.237 154.717 178.917 153.151 177.944C151.793 177.087 150.256 176.555 148.658 176.39C147.315 176.263 145.96 176.431 144.689 176.882C142.908 177.483 141.354 178.614 140.238 180.122C139.95 180.513 139.7 180.931 139.492 181.37C139.288 181.646 139.21 181.796 139.21 181.796Z" fill="#FF725E"/>
<path d="M234.614 175.862C234.614 175.862 236.942 190.226 234.584 199.388L211.826 198.902C211.826 198.902 216.481 184.274 213.528 176.96L234.614 175.862Z" fill="#EBEBEB"/>
<path d="M234.512 175.322C234.512 175.322 234.362 193.388 233.442 198.902L210.726 197.828C210.726 197.828 212.716 180.068 211.928 175.322H234.512Z" fill="#455A64"/>
<path d="M215.152 183.362C215.152 183.446 218.568 183.518 222.784 183.524C227 183.53 230.422 183.47 230.422 183.386C230.422 183.302 227.006 183.23 222.784 183.224C218.562 183.218 215.152 183.278 215.152 183.362Z" fill="white"/>
<path d="M215.369 187.184C215.369 187.268 218.785 187.34 223.001 187.346C227.217 187.352 230.639 187.292 230.639 187.208C230.639 187.124 227.223 187.052 223.001 187.046C218.779 187.04 215.369 187.1 215.369 187.184Z" fill="white"/>
<path d="M219.44 190.706C219.859 190.795 220.287 190.834 220.715 190.82C221.503 190.82 222.592 190.862 223.795 190.868C224.998 190.874 226.08 190.868 226.868 190.826C227.296 190.843 227.724 190.809 228.143 190.724C227.725 190.635 227.296 190.599 226.868 190.616C226.08 190.586 224.998 190.568 223.795 190.562C222.592 190.556 221.503 190.562 220.715 190.604C220.288 190.587 219.86 190.621 219.44 190.706Z" fill="white"/>
<path d="M127.085 217.256C127.085 217.256 127.277 231.998 123.549 240.824L100.821 236.96C100.821 236.96 107.665 222.992 105.8 215.228L127.085 217.256Z" fill="#EBEBEB"/>
<path d="M127.079 216.704C127.079 216.704 124.228 234.8 122.484 240.2L99.8943 235.724C99.8943 235.724 104.543 218.228 104.483 213.356L127.079 216.704Z" fill="#6C63FF"/>
<path d="M106.775 221.468C106.775 221.552 110.131 222.332 114.311 223.208C118.49 224.084 121.889 224.726 121.907 224.648C121.925 224.57 118.551 223.784 114.371 222.908C110.191 222.032 106.793 221.384 106.775 221.468Z" fill="white"/>
<path d="M106.197 225.302C106.197 225.386 109.553 226.16 113.733 227.042C117.913 227.924 121.311 228.56 121.329 228.482C121.347 228.404 117.973 227.618 113.793 226.742C109.613 225.866 106.215 225.2 106.197 225.302Z" fill="white"/>
<path d="M109.517 229.64C109.903 229.807 110.306 229.928 110.72 230C111.496 230.186 112.572 230.432 113.757 230.684C114.942 230.936 116.031 231.14 116.818 231.284C117.239 231.39 117.672 231.442 118.105 231.44C117.706 231.272 117.288 231.149 116.861 231.074C116.091 230.882 115.014 230.636 113.823 230.39C112.632 230.144 111.55 229.928 110.768 229.79C110.358 229.69 109.939 229.639 109.517 229.64Z" fill="white"/>
<path d="M156.284 242.498C156.218 242.438 160.957 237.482 166.864 231.44C172.77 225.398 177.611 220.532 177.689 220.592C177.767 220.652 173.016 225.608 167.11 231.656C161.204 237.704 156.345 242.558 156.284 242.498Z" fill="#FF725E"/>
<path d="M176.318 242.492C176.318 242.492 176.24 242.426 176.119 242.282L175.614 241.682C175.145 241.082 174.52 240.308 173.756 239.36C172.186 237.404 169.961 234.746 167.381 231.92C164.8 229.094 162.353 226.64 160.548 224.9L158.407 222.8L157.806 222.236C157.736 222.173 157.674 222.102 157.619 222.026C157.619 222.026 157.71 222.074 157.848 222.188L158.449 222.71C158.985 223.166 159.742 223.844 160.669 224.696C162.509 226.4 164.987 228.836 167.579 231.668C170.171 234.5 172.39 237.188 173.894 239.18C174.664 240.176 175.271 240.98 175.698 241.58L176.161 242.24C176.224 242.318 176.276 242.402 176.318 242.492Z" fill="#FF725E"/>
<path d="M205.71 198.596C205.758 198.662 201.199 202.148 195.515 206.396C189.832 210.644 185.189 213.998 185.135 213.926C185.081 213.854 189.645 210.374 195.329 206.126C201.012 201.878 205.655 198.524 205.71 198.596Z" fill="#263238"/>
<path d="M207.478 213.356C207.436 213.428 202.588 210.434 196.652 206.66C190.716 202.886 185.959 199.778 186.001 199.7C186.043 199.622 190.89 202.628 196.826 206.396C202.763 210.164 207.55 213.284 207.478 213.356Z" fill="#263238"/>
<g opacity="0.568952">
<path d="M155.502 198.362C155.557 198.428 150.787 202.496 144.845 207.452C138.903 212.408 134.019 216.362 133.983 216.296C133.947 216.23 138.699 212.162 144.641 207.212C150.583 202.262 155.448 198.296 155.502 198.362Z" fill="#263238"/>
<path d="M156.543 215.762C156.26 215.596 155.992 215.405 155.743 215.192L153.626 213.548C151.852 212.144 149.416 210.188 146.734 208.016C144.051 205.844 141.64 203.864 139.901 202.418L137.851 200.69C137.591 200.492 137.349 200.271 137.129 200.03C137.411 200.198 137.678 200.389 137.929 200.6L140.04 202.244C141.814 203.648 144.25 205.604 146.932 207.776C149.615 209.948 152.026 211.928 153.77 213.374L155.815 215.096C156.074 215.3 156.317 215.523 156.543 215.762Z" fill="#263238"/>
</g>
<path d="M239.426 134.444C235.18 134.444 230.903 131.786 228.654 127.604C226.467 123.439 225.79 118.65 226.736 114.044C227.981 108.044 231.962 103.124 236.882 101.552C241.062 100.214 248.531 100.952 252.056 106.838C253.735 109.716 254.569 113.008 254.461 116.336C254.395 117.33 253.533 118.082 252.537 118.016C251.54 117.95 250.787 117.09 250.853 116.096C250.885 113.497 250.217 110.938 248.916 108.686C246.198 104.156 240.238 104.246 237.94 104.978C233.73 106.322 231.036 110.864 230.224 114.77C229.444 118.552 229.999 122.485 231.794 125.906C233.568 129.206 237.158 131.258 240.34 130.772C241.327 130.635 242.239 131.322 242.376 132.307C242.51 133.272 241.851 134.169 240.887 134.33C240.404 134.405 239.915 134.443 239.426 134.444Z" fill="#263238"/>
<path d="M122.941 134.444C118.689 134.444 114.419 131.786 112.169 127.604C109.981 123.44 109.301 118.65 110.245 114.044C111.297 108.98 114.858 103.148 120.469 101.54C123.174 100.809 126.043 100.954 128.661 101.954L127.362 105.314C125.478 104.6 123.417 104.488 121.468 104.996C117.33 106.196 114.635 110.768 113.805 114.77C113.026 118.552 113.58 122.485 115.375 125.906C117.149 129.212 120.746 131.258 123.921 130.772L124.469 134.33C123.963 134.408 123.452 134.446 122.941 134.444Z" fill="#263238"/>
<path d="M237.94 116.426L236.28 125.492H260.704L262.875 116.516L237.94 116.426Z" fill="#6C63FF"/>
<path d="M129.13 133.01C129.133 135.151 127.397 136.888 125.251 136.892C123.105 136.896 121.363 135.163 121.359 133.022C121.356 130.881 123.093 129.144 125.239 129.14C125.243 129.14 125.246 129.14 125.251 129.14C127.392 129.143 129.127 130.874 129.13 133.01Z" fill="#263238"/>
<path d="M245.512 133.01C245.516 135.151 243.779 136.888 241.633 136.892C239.487 136.896 237.745 135.163 237.742 133.022C237.738 130.881 239.475 129.144 241.621 129.14C241.625 129.14 241.629 129.14 241.633 129.14C243.774 129.143 245.509 130.874 245.512 133.01Z" fill="#263238"/>
<path d="M181.211 57.7973L174.325 81.8318L152.234 83.7433L152.153 87.6429L183.101 89.3643L189.483 62.3725L181.211 57.7973Z" fill="#FFBE9D"/>
<path d="M191.164 45.6942C191.164 45.6942 182.722 48.4678 180.725 57.7893L189.483 62.3743L191.164 45.6942Z" fill="#6C63FF"/>
<path d="M190.71 90.1518C190.71 90.1518 156.26 88.5138 146.451 96.1518C136.641 103.79 141.393 116.33 141.393 116.33L196.832 116.186L201.728 88.1478L190.71 90.1518Z" fill="#263238"/>
<path d="M196.574 108.65C196.407 108.654 196.239 108.642 196.075 108.614C195.75 108.578 195.275 108.53 194.661 108.452C193.458 108.302 191.654 108.05 189.489 107.684C183.804 106.719 178.181 105.423 172.649 103.802C169.413 102.848 166.352 101.888 163.525 101.186C161.03 100.542 158.478 100.14 155.905 99.9859C154.169 99.8887 152.428 99.9895 150.715 100.286C150.113 100.358 149.65 100.514 149.326 100.568C149.165 100.608 149.003 100.638 148.838 100.658C148.991 100.593 149.151 100.542 149.314 100.508C149.766 100.368 150.225 100.254 150.691 100.166C152.408 99.8197 154.161 99.6847 155.911 99.7639C158.521 99.8881 161.112 100.272 163.646 100.91C166.49 101.594 169.558 102.554 172.781 103.508C178.284 105.115 183.867 106.435 189.507 107.462C191.678 107.858 193.44 108.14 194.661 108.332L196.069 108.554C196.239 108.572 196.408 108.604 196.574 108.65Z" fill="#455A64"/>
<path d="M164.554 101C163.597 100.213 162.577 99.5041 161.505 98.8819C160.38 98.3575 159.216 97.9237 158.022 97.5859C158.393 97.5535 158.766 97.5901 159.123 97.6939C160.002 97.8829 160.852 98.1895 161.649 98.6059C162.445 99.0247 163.181 99.5473 163.838 100.16C164.127 100.393 164.369 100.678 164.554 101Z" fill="#455A64"/>
<path d="M194.361 164.858L194.824 179.3L191.913 190.832C191.723 191.624 192.214 192.421 193.008 192.61C193.044 192.619 193.08 192.626 193.116 192.632C193.587 192.718 194.072 192.57 194.415 192.236C196.604 190.1 204.639 182.204 204.537 181.154C204.429 179.954 205.06 165.878 205.06 165.878L194.361 164.858Z" fill="#6C63FF"/>
<path d="M193.062 192.656L204.489 180.2V180.8C204.495 181.33 204.312 181.845 203.971 182.252C203.063 183.338 200.483 186.284 194.415 192.248C194.062 192.596 193.559 192.744 193.074 192.644L193.062 192.656Z" fill="white"/>
<path d="M201.457 175.562C201.077 175.84 200.975 176.362 201.223 176.762C201.486 177.135 201.994 177.24 202.384 177.002C202.775 176.713 202.879 176.173 202.624 175.76C202.313 175.395 201.767 175.341 201.391 175.64" fill="white"/>
<path d="M196.315 186.308C196.231 186.35 195.894 185.6 195.034 185.198C194.502 184.989 193.934 184.888 193.362 184.898C193.362 184.862 193.531 184.748 193.868 184.694C194.779 184.584 195.671 185.013 196.153 185.792C196.321 186.086 196.345 186.296 196.315 186.308Z" fill="#263238"/>
<path d="M195.299 188.258C194.883 188.031 194.453 187.831 194.012 187.658C193.542 187.575 193.068 187.519 192.592 187.49C193.041 187.202 193.602 187.15 194.096 187.352C194.95 187.58 195.371 188.216 195.299 188.258Z" fill="#263238"/>
<path d="M198.21 183.8C197.595 183.396 196.952 183.037 196.285 182.726C195.581 182.511 194.861 182.35 194.132 182.246C195.679 181.923 197.272 182.53 198.21 183.8Z" fill="#263238"/>
<path d="M198.438 179.408C198.402 179.498 197.596 179.168 196.556 179.144C195.515 179.12 194.691 179.372 194.655 179.282C195.844 178.629 197.296 178.677 198.438 179.408Z" fill="#263238"/>
<path d="M198.408 175.166C197.775 174.967 197.117 174.856 196.454 174.836C195.796 174.912 195.152 175.08 194.541 175.334C194.541 175.304 194.673 175.118 195.004 174.926C195.902 174.42 196.989 174.373 197.927 174.8C198.258 174.962 198.432 175.13 198.408 175.166Z" fill="#263238"/>
<path d="M196.471 174.026C196.434 173.846 196.434 173.66 196.471 173.48C196.517 172.978 196.662 172.491 196.898 172.046C197.039 171.703 197.291 171.418 197.614 171.236C197.843 171.134 198.112 171.184 198.288 171.362C198.443 171.542 198.526 171.772 198.522 172.01C198.464 173.007 197.709 173.825 196.718 173.966C195.737 174.075 194.787 173.582 194.312 172.718C194.194 172.503 194.176 172.246 194.264 172.016C194.38 171.796 194.618 171.67 194.866 171.698C195.223 171.774 195.555 171.942 195.828 172.184C196.222 172.496 196.56 172.873 196.826 173.3C196.933 173.451 197.01 173.619 197.055 173.798C196.672 173.256 196.213 172.773 195.69 172.364C195.445 172.164 195.157 172.026 194.848 171.962C194.71 171.939 194.575 172.007 194.511 172.13C194.468 172.286 194.489 172.452 194.571 172.592C195.002 173.322 195.82 173.734 196.664 173.648C197.51 173.541 198.164 172.857 198.234 172.01C198.241 171.846 198.19 171.684 198.089 171.554C197.996 171.448 197.845 171.417 197.716 171.476C197.452 171.637 197.243 171.873 197.115 172.154C196.795 172.737 196.577 173.37 196.471 174.026Z" fill="#263238"/>
<path d="M201.698 88.1479C201.698 88.1479 186.8 116.246 186.596 121.148C186.391 126.05 186.596 171.236 186.596 171.236H209.655C210.256 171.236 213.714 150.878 213.011 146.192C212.307 141.506 209.823 116.318 209.823 116.318H223.09C223.09 116.318 226.729 112.436 226.597 107.51C226.519 104.792 224.738 99.2359 222.988 96.2899C221.852 94.3999 214.568 84.5059 214.568 84.5059L201.698 88.1479Z" fill="#263238"/>
<path d="M200.699 90.0498C200.683 90.1062 200.661 90.1602 200.633 90.2118C200.579 90.3318 200.507 90.4818 200.417 90.6678L199.551 92.4198C199.16 93.1818 198.697 94.1058 198.155 95.1798L197.289 96.9018L196.381 98.8638L191.913 108.518C191.065 110.318 190.175 112.244 189.248 114.218L187.847 117.218C187.394 118.255 187.051 119.337 186.825 120.446C186.596 121.558 186.478 122.689 186.47 123.824C186.434 124.946 186.41 126.056 186.392 127.142C186.392 129.326 186.349 131.426 186.355 133.43C186.355 137.438 186.404 141.05 186.446 144.08C186.488 147.11 186.524 149.54 186.554 151.28C186.554 152.108 186.554 152.762 186.554 153.23C186.554 153.44 186.554 153.608 186.554 153.74C186.554 153.872 186.554 153.914 186.554 153.914C186.544 153.856 186.544 153.797 186.554 153.74C186.554 153.608 186.554 153.44 186.554 153.236C186.554 152.762 186.506 152.114 186.47 151.28C186.41 149.588 186.331 147.134 186.265 144.08C186.199 141.026 186.127 137.444 186.109 133.43C186.109 131.426 186.109 129.32 186.109 127.142C186.109 126.05 186.145 124.94 186.187 123.812C186.193 122.659 186.312 121.51 186.542 120.38C186.775 119.251 187.125 118.148 187.588 117.092L188.996 114.092L191.678 108.404L196.237 98.7738L197.163 96.8178C197.482 96.2178 197.765 95.6178 198.053 95.1078L199.491 92.3718C199.882 91.6338 200.194 91.0578 200.411 90.6438C200.513 90.4638 200.597 90.3198 200.657 90.1998C200.718 90.0798 200.693 90.0438 200.699 90.0498Z" fill="#455A64"/>
<path d="M195.876 99.6199C195.398 98.4775 194.996 97.3051 194.673 96.1099C194.251 94.9459 193.907 93.7555 193.645 92.5459C194.205 93.6547 194.649 94.8193 194.968 96.0199C195.393 97.1857 195.698 98.3917 195.876 99.6199Z" fill="#455A64"/>
<path d="M213.059 145.31C213.02 145.208 212.996 145.1 212.987 144.992C212.958 144.748 212.916 144.442 212.86 144.074C212.752 143.228 212.614 142.076 212.439 140.678C212.108 137.774 211.663 133.832 211.17 129.476C210.677 125.12 210.274 121.13 210.028 118.256C209.913 116.852 209.817 115.7 209.745 114.854C209.745 114.476 209.697 114.17 209.679 113.924C209.671 113.816 209.671 113.708 209.679 113.6C209.717 113.702 209.739 113.809 209.745 113.918C209.775 114.164 209.817 114.47 209.865 114.842C209.961 115.688 210.094 116.834 210.25 118.238C210.569 121.142 211.002 125.09 211.453 129.446C211.904 133.802 212.331 137.744 212.656 140.654C212.788 142.058 212.902 143.21 212.981 144.056C213.011 144.428 213.035 144.74 213.053 144.986C213.064 145.093 213.066 145.202 213.059 145.31Z" fill="#455A64"/>
<path d="M203.131 12.4782C202.46 10.1451 204.197 7.58308 206.518 6.99003C208.84 6.39699 211.415 7.55072 212.787 9.55444C214.1 11.6024 214.502 14.1027 213.896 16.4559C213.502 18.0403 212.604 19.7098 211.018 20.0417C209.431 20.3736 208.04 19.317 206.828 18.3334" fill="#263238"/>
<path d="M187.934 26.5111C181.766 16.714 192.384 9.96846 198.772 10.8883C204.783 11.7553 207.643 14.3067 209.115 18.0475C210.681 21.7887 211.024 25.9266 210.097 29.8718C209.59 31.7922 208.491 33.8155 206.567 34.3012" fill="#263238"/>
<path d="M203.237 16.188C204.268 16.1583 205.149 16.9241 205.262 17.9474L207.712 44.6382C208.091 47.7787 203.749 50.1598 200.374 50.5354C196.975 50.9142 196.638 49.2636 196.166 46.2928C195.42 41.3241 195.169 39.4503 195.173 39.48C195.177 39.5097 190.788 39.3358 189.151 33.8679C188.331 31.1492 187.862 26.5735 187.595 22.8188C187.359 19.4413 189.028 15.0297 192.42 14.9123L203.237 16.188Z" fill="#FFBE9D"/>
<path d="M190.21 25.7086C190.256 26.0992 190.607 26.3814 190.999 26.3426C191.38 26.3222 191.673 25.9974 191.652 25.6167C191.652 25.6095 191.651 25.603 191.651 25.5958C191.602 25.2067 191.254 24.9261 190.862 24.9617C190.481 24.9822 190.188 25.307 190.209 25.6876C190.209 25.6948 190.21 25.7014 190.21 25.7086Z" fill="#263238"/>
<path d="M188.917 25.0642C189.018 25.1416 189.513 24.6697 190.282 24.5674C191.051 24.4651 191.675 24.776 191.746 24.6697C191.816 24.5633 191.67 24.4676 191.396 24.3223C191.03 24.1357 190.616 24.0659 190.21 24.1224C189.809 24.1716 189.434 24.3517 189.144 24.6339C188.93 24.8442 188.87 25.028 188.917 25.0642Z" fill="#263238"/>
<path d="M197.763 24.7023C197.81 25.0825 198.145 25.362 198.528 25.3395C198.909 25.3191 199.202 24.9943 199.182 24.6137C199.181 24.6064 199.18 24.5999 199.18 24.5927C199.131 24.2037 198.783 23.923 198.391 23.9587C198.013 23.9921 197.732 24.3244 197.763 24.7023Z" fill="#263238"/>
<path d="M196.555 24.192C196.656 24.2695 197.145 23.7983 197.914 23.6961C198.683 23.5938 199.307 23.9047 199.378 23.8043C199.45 23.7039 199.302 23.5963 199.028 23.4509C198.663 23.2637 198.248 23.1934 197.842 23.251C197.441 23.3043 197.068 23.4837 196.776 23.7626C196.526 23.9777 196.484 24.165 196.555 24.192Z" fill="#263238"/>
<path d="M194.493 30.2846C194.07 30.2137 193.64 30.1934 193.212 30.2249C193.016 30.251 192.817 30.2169 192.77 30.09C192.724 29.8854 192.742 29.6717 192.821 29.4777C192.942 28.9773 193.066 28.4523 193.216 27.8995C193.585 26.5578 193.847 25.1884 194 23.8053C193.519 25.1134 193.146 26.4593 192.885 27.8285L192.528 29.4138C192.436 29.6681 192.437 29.9465 192.53 30.2006C192.609 30.3323 192.743 30.4216 192.896 30.4425C193.009 30.4566 193.123 30.4577 193.236 30.4457C193.66 30.4444 194.082 30.39 194.493 30.2846Z" fill="#263238"/>
<path d="M195.184 39.4709C197.837 39.1672 200.351 38.13 202.444 36.4756C202.444 36.4756 201.136 40.5636 195.463 40.7849L195.184 39.4709Z" fill="#EB996E"/>
<path d="M195.07 32.095C195.32 31.6826 195.764 31.4266 196.247 31.4175C196.597 31.4007 196.938 31.5279 197.192 31.7704C197.437 32.0055 197.51 32.3677 197.374 32.6789C197.159 32.9971 196.771 33.1522 196.396 33.0695C196.011 32.9892 195.647 32.8316 195.326 32.606C195.232 32.5562 195.146 32.4894 195.076 32.4092C195.007 32.3298 194.992 32.2179 195.037 32.1235" fill="#EB996E"/>
<path d="M196.842 30.5152C196.716 30.5319 196.821 31.3598 196.186 32.0499C195.551 32.7401 194.644 32.7638 194.651 32.8598C194.658 32.9558 194.869 32.9943 195.27 32.9531C195.763 32.893 196.219 32.6633 196.56 32.3031C196.883 31.9567 197.06 31.4994 197.056 31.0258C197.018 30.6977 196.894 30.5021 196.842 30.5152Z" fill="#263238"/>
<path d="M196.004 22.8907C196.11 23.0887 196.871 22.8845 197.792 22.8771C198.713 22.8697 199.478 23.0103 199.573 22.8099C199.614 22.7134 199.457 22.5344 199.137 22.3648C198.71 22.1646 198.242 22.0694 197.771 22.086C197.3 22.0898 196.837 22.2077 196.422 22.4291C196.105 22.6045 195.961 22.7934 196.004 22.8907Z" fill="#263238"/>
<path d="M188.904 22.7898C189.065 22.9502 189.571 22.7011 190.215 22.6154C190.859 22.5298 191.423 22.5759 191.512 22.3763C191.553 22.2799 191.476 22.1084 191.186 21.9833C190.844 21.8191 190.459 21.7661 190.086 21.8327C189.711 21.8904 189.364 22.0615 189.09 22.3227C188.886 22.5255 188.833 22.7144 188.904 22.7898Z" fill="#263238"/>
<path d="M194.97 12.7082C193.083 13.0575 191.316 13.8753 189.831 15.0862C188.126 16.2786 186.966 18.0991 186.606 20.147C186.502 20.5774 186.581 21.0308 186.823 21.4019C187.25 21.8157 187.911 21.8677 188.398 21.5258C188.866 21.1844 189.243 20.7329 189.495 20.2114C189.973 21.4485 191.365 22.0654 192.604 21.589C193.466 21.2571 194.062 20.461 194.134 19.5406C194.373 20.6425 195.437 21.3629 196.549 21.1758C197.634 20.9354 198.471 20.0746 198.681 18.9852C198.942 19.9352 199.402 20.8193 200.029 21.5794C200.684 22.3499 201.752 22.6295 202.7 22.2783C202.611 23.1271 202.739 23.9857 203.072 24.7722C203.475 25.518 206.465 38.7999 207.226 38.4202C207.988 38.0405 206.118 24.3373 206.19 23.5164C206.381 21.9348 206.369 20.3346 206.157 18.7552C205.816 15.3792 203.074 12.746 199.682 12.5364C198.036 12.3827 196.377 12.4504 194.749 12.7375" fill="#263238"/>
<path d="M209.467 35.6885C209.467 35.6885 209.419 35.7314 209.305 35.7889C209.146 35.8724 208.978 35.9371 208.804 35.9827C207.142 36.4217 205.375 35.8648 204.266 34.552C203.515 33.5742 203.094 32.3835 203.064 31.1517C202.982 29.8609 203.124 28.6554 203.117 27.5665C203.124 26.598 203.08 25.6297 202.983 24.6661C202.873 23.8452 202.784 23.1849 202.722 22.7209C202.665 22.487 202.632 22.2478 202.626 22.0071C202.728 22.2314 202.803 22.468 202.848 22.7102C203 23.3518 203.12 24.0006 203.205 24.6546C203.334 25.6232 203.403 26.5991 203.409 27.576C203.425 28.688 203.302 29.8971 203.378 31.1403C203.405 32.31 203.794 33.4426 204.492 34.3827C205.089 35.1254 205.925 35.6409 206.857 35.842C207.486 35.9903 208.138 36.0028 208.772 35.878C209.226 35.7872 209.457 35.6596 209.467 35.6885Z" fill="#263238"/>
<path d="M192.903 12.2564C193.175 12.6351 193.337 13.0805 193.373 13.5444C193.731 15.8859 192.127 18.0748 189.784 18.4426C189.332 18.5476 188.859 18.5263 188.418 18.3821C188.411 18.3286 188.942 18.4032 189.741 18.2062C191.915 17.7657 193.399 15.7508 193.173 13.5467C193.085 12.753 192.851 12.2754 192.903 12.2564Z" fill="#455A64"/>
<path d="M194.608 18.7244C194.638 18.7204 194.617 19.111 194.244 19.5849C193.738 20.1789 193.011 20.5405 192.231 20.5861C191.473 20.6191 190.718 20.468 190.03 20.1455C189.507 19.906 189.213 19.7087 189.229 19.646C189.53 19.6981 189.823 19.7876 190.102 19.9117C190.774 20.1543 191.488 20.2655 192.202 20.2383C192.908 20.1863 193.571 19.8829 194.072 19.3836C194.47 19.0518 194.569 18.7053 194.608 18.7244Z" fill="#455A64"/>
<path d="M207.879 15.2187C207.988 15.7257 208.021 16.2458 207.977 16.7621C207.975 18.0275 207.663 19.2724 207.069 20.3894C206.434 21.5136 205.362 22.3265 204.107 22.6364C203.729 22.7218 203.338 22.7345 202.954 22.6747C202.688 22.6314 202.552 22.5707 202.556 22.552C203.059 22.5747 203.562 22.5302 204.054 22.4194C205.213 22.0696 206.194 21.2887 206.794 20.2382C207.36 19.1595 207.686 17.972 207.752 16.7558C207.762 16.2414 207.805 15.7282 207.879 15.2187Z" fill="#455A64"/>
<path d="M209.267 17.7883C209.342 17.9339 209.394 18.0906 209.42 18.2524C209.518 18.6802 209.587 19.1144 209.625 19.5515C209.79 21.02 209.454 22.5005 208.672 23.754C208.229 24.4452 207.606 25.0029 206.869 25.3685C206.265 25.659 205.595 25.7899 204.925 25.7482C204.475 25.7226 204.036 25.6042 203.635 25.3989C203.36 25.2477 203.234 25.1252 203.244 25.1117C203.775 25.3572 204.348 25.4991 204.932 25.5292C205.559 25.5355 206.177 25.3932 206.738 25.1134C207.418 24.7547 207.995 24.2274 208.413 23.5826C209.152 22.3772 209.499 20.9732 209.408 19.5622C209.359 18.4725 209.214 17.8014 209.267 17.7883Z" fill="#455A64"/>
<path d="M133.309 91.4899L122.394 116.396H137.423L148.129 91.2919L133.309 91.4899Z" fill="#455A64"/>
<path d="M125.371 64.9998L137.682 89.1558H176.51L174.94 85.9998L163.694 85.6638L154.522 65.2998C153.953 64.0326 152.691 63.2172 151.298 63.2178H126.465C125.801 63.1938 125.244 63.7116 125.22 64.374C125.212 64.5924 125.264 64.809 125.371 64.9998Z" fill="#E0E0E0"/>
<path d="M144.815 75.8298C144.815 76.6482 144.15 77.3118 143.329 77.3118C142.509 77.3118 141.844 76.6482 141.844 75.8298C141.844 75.0114 142.509 74.3478 143.329 74.3478C144.148 74.3508 144.812 75.0126 144.815 75.8298Z" fill="#263238"/>
<path d="M133.183 89.204H180.648V91.514H133.183V89.204Z" fill="#455A64"/>
<path d="M166.027 90.3619L180.468 116.42H187.372L188.876 113.438L190.259 110.3L180.648 91.5139L166.027 90.3619Z" fill="#455A64"/>
<path d="M191.119 45.6859C191.119 45.6859 185.255 58.8019 185.477 65.9659C185.556 68.4559 187.191 74.9659 187.191 74.9659L190.241 91.0819C190.241 91.0819 213.582 87.9319 214.099 87.9319C214.617 87.9319 213.317 74.7019 213.317 74.7019L217.125 49.2799C217.125 49.2799 215.38 45.8179 207.502 44.6179C202.78 43.8799 191.119 45.6859 191.119 45.6859Z" fill="#6C63FF"/>
<path d="M188.906 53.2998C188.96 53.3298 188.346 54.3078 187.607 55.9998C187.178 56.9904 186.816 58.0086 186.524 59.0478C186.173 60.321 185.917 61.6188 185.76 62.9298C185.622 64.2432 185.58 65.5644 185.634 66.8838C185.689 67.9608 185.815 69.0336 186.013 70.0938C186.35 71.8938 186.735 72.9978 186.674 73.0158C186.548 72.777 186.448 72.5256 186.374 72.2658C186.267 71.9688 186.174 71.6664 186.097 71.3598C186.001 70.9998 185.875 70.5978 185.79 70.1598C185.565 69.0918 185.416 68.0088 185.345 66.9198C185.273 65.583 185.307 64.2432 185.448 62.9118C185.608 61.5822 185.875 60.2682 186.247 58.9818C186.557 57.936 186.945 56.9154 187.408 55.9278C187.577 55.5444 187.766 55.17 187.974 54.8058C188.117 54.5238 188.276 54.249 188.449 53.9838C188.577 53.7408 188.731 53.5116 188.906 53.2998Z" fill="#263238"/>
<path d="M193.958 45.566L194.294 41.966C194.371 41.1914 195.018 40.5974 195.798 40.586L207.315 40.412C208.04 40.4036 208.647 40.9568 208.705 41.678L208.999 45.56C208.035 47.5988 206.404 49.2494 204.374 50.24C200.988 51.878 195.726 51.932 195.726 51.932L193.958 45.566Z" fill="#6C63FF"/>
<path d="M196.971 40.616C197.007 40.616 196.839 40.85 196.766 41.216C196.701 41.7458 196.701 42.2822 196.766 42.812C196.867 43.5848 196.867 44.3672 196.766 45.14C196.559 44.3876 196.454 43.6106 196.454 42.83C196.373 42.2744 196.398 41.7086 196.526 41.162C196.724 40.748 196.953 40.586 196.971 40.616Z" fill="#263238"/>
<path d="M199.731 45.068C199.53 44.333 199.433 43.574 199.443 42.812C199.398 42.2732 199.398 41.7308 199.443 41.192C199.503 40.76 199.677 40.538 199.713 40.592C199.749 40.646 199.659 40.844 199.665 41.24C199.671 41.636 199.731 42.2 199.731 42.8C199.832 43.5524 199.832 44.3156 199.731 45.068Z" fill="#263238"/>
<path d="M203.189 44.9719C202.94 44.2717 202.789 43.5409 202.738 42.7999C202.59 42.0655 202.543 41.3149 202.6 40.5679C202.851 41.2735 203.003 42.0103 203.051 42.7579C203.197 43.4863 203.244 44.2309 203.189 44.9719Z" fill="#263238"/>
<path d="M206.173 45.1998C205.898 44.4288 205.752 43.6182 205.74 42.7998C205.624 41.9838 205.645 41.1552 205.8 40.3458C205.957 41.1366 206.042 41.94 206.052 42.7458C206.169 43.5582 206.209 44.3796 206.173 45.1998Z" fill="#263238"/>
<path d="M208.458 58.9458C207.995 62.9838 208.302 69.9438 209.733 73.7538L216.457 62.6718L208.458 58.9458Z" fill="black"/>
<path d="M193.891 52.9159C193.218 52.5247 192.599 52.0465 192.051 51.4939C191.433 51.0181 190.883 50.4613 190.415 49.8379C191.706 50.7043 192.875 51.7399 193.891 52.9159Z" fill="#FAFAFA"/>
<path d="M192.105 59.8579C191.634 60.3415 191.087 60.7465 190.487 61.0579C189.937 61.4563 189.328 61.7677 188.683 61.9819C189.704 61.1065 190.854 60.3943 192.093 59.8699L192.105 59.8579Z" fill="#FAFAFA"/>
<path d="M199.485 61.5678C199.378 60.7152 199.378 59.8524 199.485 58.9998C199.489 58.1424 199.594 57.2886 199.797 56.4558C199.903 57.3066 199.903 58.167 199.797 59.0178C199.795 59.877 199.69 60.7332 199.485 61.5678Z" fill="#FAFAFA"/>
<path d="M206.66 68.5099C206.061 67.9495 205.503 67.3477 204.988 66.7099C204.397 66.1477 203.844 65.5465 203.334 64.9099C204.056 65.3275 204.694 65.8747 205.216 66.5239C205.812 67.0957 206.3 67.7677 206.66 68.5099Z" fill="#FAFAFA"/>
<path d="M207.67 53.9958C207.154 54.5316 206.565 54.9918 205.92 55.3639C205.329 55.8174 204.68 56.1889 203.989 56.4678C204.507 55.9315 205.098 55.4706 205.745 55.0998C206.335 54.6486 206.983 54.2772 207.67 53.9958Z" fill="#FAFAFA"/>
<path d="M201.187 48.7458C200.616 49.2996 199.973 49.7743 199.274 50.1559C198.634 50.6286 197.934 51.0163 197.193 51.3079C197.765 50.7529 198.408 50.277 199.106 49.8918C199.749 49.4244 200.448 49.0398 201.187 48.7458Z" fill="#FAFAFA"/>
<path d="M207.033 50.8338C206.639 50.253 206.331 49.6182 206.119 48.9498C205.823 48.3138 205.62 47.6394 205.517 46.9458C205.916 47.526 206.224 48.1632 206.431 48.8358C206.731 49.4682 206.933 50.1414 207.033 50.8338Z" fill="#FAFAFA"/>
<path d="M191.498 70.196C191.008 69.5186 190.603 68.783 190.295 68.006C189.892 67.2728 189.581 66.4928 189.369 65.684C189.859 66.3614 190.263 67.097 190.571 67.874C190.976 68.6066 191.287 69.3866 191.498 70.196Z" fill="#FAFAFA"/>
<path d="M200.333 79.6638C199.767 79.1514 199.276 78.564 198.871 77.9178C198.388 77.3286 197.984 76.6788 197.668 75.9858C198.235 76.4988 198.729 77.0862 199.136 77.7318C199.621 78.3186 200.024 78.9684 200.333 79.6638Z" fill="#FAFAFA"/>
<path d="M207.634 75.692C207.015 76.0946 206.343 76.4096 205.637 76.628C204.969 76.943 204.258 77.159 203.526 77.27C204.813 76.5506 206.196 76.019 207.634 75.692Z" fill="#FAFAFA"/>
<path d="M189.646 83.36C189.934 82.2278 190.421 81.1556 191.083 80.192C190.981 80.7728 190.777 81.3314 190.482 81.842C190.294 82.3928 190.011 82.907 189.646 83.36Z" fill="#FAFAFA"/>
<path d="M183.986 56.2459C183.638 55.8067 183.429 55.2739 183.385 54.7159C183.243 54.1753 183.268 53.6041 183.457 53.0779C183.581 53.5981 183.661 54.1279 183.697 54.6619C183.836 55.1815 183.933 55.7107 183.986 56.2459Z" fill="#FAFAFA"/>
<path d="M194.036 77.2878C193.394 77.1192 192.784 76.8456 192.232 76.4778C191.633 76.2066 191.08 75.8418 190.596 75.3978C191.237 75.5694 191.846 75.843 192.4 76.2078C192.997 76.4838 193.548 76.8474 194.036 77.2878Z" fill="#FAFAFA"/>
<path d="M199.84 67.292C198.853 68.4704 197.708 69.506 196.436 70.37C196.892 69.749 197.43 69.1922 198.035 68.714C198.569 68.1602 199.176 67.682 199.84 67.292Z" fill="#FAFAFA"/>
<path d="M196.285 67.1058C196.577 69.1974 197.512 71.1468 198.962 72.6858C200.465 74.1498 202.793 74.8878 204.747 74.1258C205.181 74.007 205.529 73.6842 205.679 73.2618C205.747 72.7344 205.433 72.2322 204.928 72.0618C204.441 71.9058 203.93 71.8326 203.418 71.8458C200.453 71.6514 197.8 69.9402 196.405 67.3218" fill="black"/>
<path d="M204.104 71.942C204.104 71.942 203.965 71.99 203.701 72.014C203.329 72.0518 202.954 72.0518 202.582 72.014C202.029 71.9492 201.487 71.8202 200.964 71.63C199.675 71.1674 198.53 70.3748 197.644 69.332C197.285 68.909 196.976 68.4464 196.724 67.952C196.547 67.6226 196.408 67.2746 196.309 66.914C196.261 66.7856 196.235 66.6494 196.231 66.512C196.291 66.512 196.453 67.052 196.917 67.844C197.188 68.306 197.504 68.7404 197.861 69.14C198.303 69.6266 198.797 70.0628 199.334 70.442C199.877 70.8092 200.458 71.117 201.066 71.36C201.566 71.5556 202.083 71.7008 202.612 71.792C203.52 71.924 204.104 71.882 204.104 71.942Z" fill="#263238"/>
<path d="M216.724 48.6491L216.757 48.688C218.487 50.8375 219.672 53.3732 220.209 56.0786L220.967 61.7979L207.614 62.7267C207.091 60.2837 207.132 57.7539 207.735 55.3282C208.741 51.1482 216.724 48.6491 216.724 48.6491Z" fill="#6C63FF"/>
<path d="M220.967 61.798C220.879 61.8208 220.789 61.8355 220.698 61.8417L219.931 61.916L217.07 62.14L207.399 62.7869L207.231 62.7728L207.246 62.5994C207.283 61.8015 207.329 60.9742 207.383 60.1235C207.54 57.9142 207.749 55.8056 208.044 53.8969C208.281 52.1839 208.95 50.5596 209.989 49.1753C210.687 48.2442 211.599 47.4943 212.648 46.989C212.931 46.8519 213.227 46.743 213.532 46.6656C213.635 46.6284 213.742 46.6073 213.851 46.602C213.851 46.602 213.418 46.7283 212.698 47.1076C211.696 47.6361 210.829 48.3874 210.165 49.3045C209.174 50.6832 208.541 52.2858 208.321 53.9683C208.022 55.8586 207.85 57.9642 207.699 60.174C207.628 61.0113 207.599 61.8461 207.55 62.637L207.389 62.4729L217.088 61.9307L219.953 61.8034L220.727 61.778C220.808 61.7745 220.888 61.7812 220.967 61.798Z" fill="#263238"/>
<path d="M214.879 53.5362C213.977 52.7926 213.215 51.8944 212.629 50.8839C213.112 51.216 213.533 51.6307 213.871 52.1085C214.291 52.5196 214.632 53.003 214.879 53.5362Z" fill="#FAFAFA"/>
<path d="M211.084 59.0875C210.944 58.4808 210.91 57.8547 210.982 57.2364C210.945 56.6166 211.015 55.9951 211.192 55.3993C211.365 56.626 211.329 57.8731 211.084 59.0875Z" fill="#FAFAFA"/>
<path d="M217.845 58.44C217.138 58.4922 216.428 58.4085 215.754 58.192C215.056 58.0756 214.387 57.8295 213.781 57.4657C214.477 57.5314 215.163 57.674 215.827 57.8907C216.518 58.0018 217.194 58.1858 217.845 58.44Z" fill="#FAFAFA"/>
<path d="M168.588 77.8987L177.35 77.6149L183.129 82.1297L206.972 78.4889L208.879 62.5506L219.379 62.057L217.737 81.4095C217.202 86.291 212.811 89.8222 207.92 89.3045L173.75 85.4827L172.541 82.4533L165.208 81.6158L168.588 77.8987Z" fill="#FFBE9D"/>
<path d="M206.702 78.4331C206.554 78.4785 206.401 78.5122 206.247 78.5336L204.949 78.7562L200.158 79.5236L184.331 81.9748L182.858 82.2008L182.798 82.1957L182.75 82.1917L176.977 77.6613L177.061 77.6683L168.293 77.9449L168.356 77.914L165.808 80.6363L165.144 81.3522C165.069 81.4383 164.986 81.5162 164.895 81.5846C164.959 81.4917 165.029 81.4029 165.104 81.3188L165.77 80.5789L168.25 77.8086L168.286 77.8117L177.049 77.4563L177.097 77.4603L177.133 77.4633L182.919 81.9768L182.811 81.9677L184.285 81.7418L200.123 79.3699L204.931 78.6823L206.237 78.5086C206.39 78.4714 206.545 78.4459 206.702 78.4331Z" fill="#EB996E"/>
<path d="M173.117 80.7672C171.986 80.8043 170.855 80.7533 169.732 80.6156L169.133 80.5653L169.219 80.5424C168.489 81.1079 167.709 81.6071 166.89 82.0343C167.566 81.4052 168.292 80.8335 169.063 80.3244L169.102 80.2915L169.767 80.3474C170.893 80.3955 172.013 80.536 173.117 80.7672Z" fill="#EB996E"/>
<path d="M210.79 81.4145C210.404 80.6735 209.875 80.0153 209.235 79.4766C208.547 79.0086 207.772 78.6815 206.957 78.5143C207.207 78.4509 207.468 78.4517 207.717 78.5178C208.946 78.7529 209.995 79.547 210.552 80.6655C210.696 80.8897 210.778 81.1483 210.79 81.4145Z" fill="#EB996E"/>
<path d="M47.164 172.147L49.2576 171.87C50.7464 171.674 52.1748 171.159 53.4451 170.36C54.0663 169.956 54.7116 169.591 55.3776 169.267C57.9266 168.102 60.8429 168.145 63.6347 167.863C68.209 167.407 72.6452 166.04 76.6806 163.844C76.9232 163.723 77.1237 163.53 77.2552 163.293C77.6485 162.486 76.8087 161.824 76.0968 161.433C72.4383 159.425 68.7185 157.396 64.6463 156.509C60.574 155.622 56.0125 156.032 52.7063 158.557C48.8202 161.524 47.6319 167.28 47.1941 172.145" fill="#6C63FF"/>
<path d="M77.2593 163.016C77.1355 162.972 77.0144 162.922 76.8966 162.865L75.8735 162.393C74.9859 161.98 73.7091 161.369 72.0921 160.698C70.2176 159.885 68.2733 159.245 66.2827 158.784C63.8482 158.213 61.3244 158.133 58.859 158.548C56.3891 158.946 54.0937 160.067 52.2639 161.769C50.8409 163.226 49.7308 164.958 49.0012 166.858C48.341 168.471 47.9454 169.837 47.6665 170.764L47.341 171.844C47.31 171.971 47.2681 172.096 47.2151 172.216C47.226 172.085 47.2496 171.955 47.2861 171.828C47.3567 171.554 47.4469 171.189 47.5569 170.739C47.8922 169.41 48.3057 168.101 48.7946 166.82C49.5088 164.877 50.6223 163.105 52.0636 161.617C53.9176 159.856 56.2597 158.694 58.7855 158.281C61.284 157.854 63.8433 157.932 66.3113 158.512C68.3138 158.993 70.2676 159.657 72.1483 160.496C73.7548 161.199 75.0208 161.834 75.8979 162.277L76.8993 162.799C77.028 162.856 77.149 162.929 77.2593 163.016Z" fill="#263238"/>
<path d="M72.3436 165.991C72.3046 166.053 69.4595 164.414 65.9961 162.326C62.5326 160.237 59.7543 158.487 59.7813 158.426C59.8084 158.364 62.6594 160.002 66.1229 162.091C69.5864 164.18 72.3824 165.923 72.3436 165.991Z" fill="#263238"/>
<path d="M69.283 157.687C67.9023 158.197 66.4284 158.407 64.96 158.303C65.6663 158.12 66.3883 158 67.1159 157.944C67.8294 157.796 68.5543 157.71 69.283 157.687Z" fill="#263238"/>
<path d="M56.8284 156.092C56.3647 157.358 55.7345 158.557 54.9531 159.657C55.1363 159.008 55.4094 158.388 55.7644 157.814C56.0356 157.192 56.3938 156.612 56.8284 156.092Z" fill="#263238"/>
<path d="M59.8998 168.227C59.4259 168.057 58.9707 167.837 58.5427 167.573C57.72 167.132 56.6092 166.466 55.4392 165.7C54.2692 164.935 53.2026 164.188 52.4412 163.649C52.0166 163.38 51.6184 163.072 51.2515 162.728C51.7092 162.938 52.1452 163.192 52.5536 163.487L55.5963 165.47C56.7786 166.241 57.8657 166.915 58.6607 167.404C59.097 167.642 59.5117 167.917 59.8998 168.227Z" fill="#263238"/>
<path d="M50.6957 180.914C48.6633 180.479 46.3642 182.545 46.0631 184.597C45.762 186.649 46.622 188.685 47.6048 190.53C49.7264 194.627 52.7481 198.194 56.4446 200.964C60.1711 203.718 64.7201 205.135 69.3536 204.985C68.3109 201.095 69.175 196.931 68.5074 192.956C67.2843 185.747 61.2341 180.335 53.9206 179.908C52.6346 179.833 51.1414 179.709 50.6897 180.914" fill="#6C63FF"/>
<path d="M69.3532 204.984C69.2506 204.956 69.1518 204.917 69.0584 204.867C68.788 204.732 68.5286 204.576 68.2827 204.4C67.405 203.711 66.6851 202.843 66.1693 201.855C65.8212 201.271 65.4263 200.593 65.0407 199.861C64.6551 199.129 64.2674 198.355 63.8404 197.517C63.4118 196.659 62.9256 195.829 62.3864 195.035C61.8085 194.189 61.1649 193.389 60.4613 192.643C59.0121 191.104 57.4656 189.786 56.12 188.512C54.9055 187.406 53.79 186.197 52.7856 184.897C52.112 184.016 51.5471 183.057 51.1023 182.042C50.958 181.683 50.8473 181.394 50.7894 181.198C50.7514 181.101 50.7259 181 50.7141 180.896C50.7141 180.896 50.8725 181.297 51.2026 182.001C51.6809 182.988 52.2643 183.92 52.9423 184.782C53.9633 186.051 55.0854 187.235 56.2972 188.323C57.6479 189.579 59.2005 190.896 60.6685 192.452C61.3876 193.208 62.0463 194.02 62.6374 194.879C63.1755 195.687 63.6617 196.527 64.0932 197.397L65.2695 199.742C65.6428 200.469 66.0251 201.135 66.3681 201.737C66.8564 202.717 67.5385 203.589 68.374 204.3C68.9761 204.787 69.382 204.959 69.3532 204.984Z" fill="#263238"/>
<path d="M58.8189 202.226C58.8083 201.771 58.8482 201.315 58.9379 200.869C59.0529 200.034 59.2547 198.889 59.5414 197.637C59.8282 196.385 60.1458 195.27 60.407 194.47C60.5168 194.028 60.679 193.6 60.8912 193.197C60.8323 193.646 60.7334 194.089 60.596 194.521C60.3838 195.336 60.0905 196.456 59.8154 197.701C59.5404 198.947 59.3317 200.074 59.1321 200.901C59.0715 201.352 58.9666 201.796 58.8189 202.226Z" fill="#263238"/>
<path d="M68.3461 192.079C67.8615 192.032 67.3821 191.946 66.9122 191.819C66.0362 191.64 64.8253 191.387 63.483 191.153C62.1406 190.918 60.9159 190.75 60.0306 190.625C59.5464 190.587 59.0673 190.506 58.5975 190.383C59.0822 190.347 59.5696 190.364 60.0511 190.432C60.9457 190.502 62.1812 190.646 63.5287 190.862C64.8762 191.078 66.0894 191.379 66.9561 191.613C67.4341 191.72 67.9001 191.876 68.3461 192.079Z" fill="#263238"/>
<path d="M51.0304 195.745C51.027 195.217 51.073 194.689 51.1687 194.17C51.3014 193.208 51.5119 191.876 51.8189 190.425C52.1258 188.974 52.4579 187.666 52.7242 186.728C52.8532 186.213 53.0293 185.712 53.2514 185.23C53.1902 185.753 53.0871 186.27 52.9433 186.777C52.7256 187.725 52.4175 189.032 52.1163 190.476C51.8151 191.921 51.5682 193.249 51.3929 194.201C51.316 194.725 51.1949 195.241 51.0304 195.745Z" fill="#263238"/>
<path d="M63.3214 183.893C63.3249 183.965 60.7983 183.891 57.7004 183.713C54.6025 183.535 52.0876 183.334 52.096 183.261C53.971 183.223 55.8472 183.281 57.7167 183.435C59.5916 183.493 61.4623 183.645 63.3214 183.893Z" fill="#263238"/>
<path d="M48.9271 181.743C48.9058 181.847 48.8748 181.95 48.834 182.048C48.755 182.274 48.6488 182.556 48.5274 182.898C48.4587 183.088 48.3845 183.29 48.2992 183.51C48.214 183.73 48.1548 183.992 48.0776 184.254L47.8133 185.108C47.7262 185.413 47.6571 185.716 47.573 186.081C47.1857 187.678 46.8987 189.297 46.7134 190.929C46.5109 192.93 46.41 194.941 46.4113 196.952C46.4512 200.609 46.7374 204.26 47.2674 207.879C47.4631 209.275 47.6451 210.396 47.7798 211.17C47.834 211.534 47.8849 211.832 47.9205 212.064C47.9335 212.169 47.9388 212.276 47.9363 212.382C47.8935 212.284 47.8643 212.18 47.8488 212.074C47.7952 211.842 47.7326 211.551 47.6547 211.194C47.49 210.422 47.272 209.303 47.0526 207.914C46.4634 204.29 46.1507 200.626 46.1168 196.954C46.1053 194.933 46.2057 192.912 46.4173 190.902C46.6138 189.265 46.9236 187.644 47.3429 186.05C47.4342 185.709 47.5081 185.381 47.6015 185.082L47.8838 184.227L48.1358 183.488C48.2207 183.262 48.3072 183.065 48.382 182.875L48.7434 182.04C48.7885 181.932 48.8503 181.831 48.9271 181.743Z" fill="#263238"/>
<path d="M47.4056 171.383C47.3798 171.529 47.3449 171.673 47.3008 171.815C47.2134 172.114 47.0953 172.522 46.9524 173.034L46.6953 173.911C46.6154 174.24 46.5247 174.593 46.4291 174.97C46.2381 175.724 46.0161 176.582 45.8295 177.547L45.5077 179.058C45.4136 179.586 45.3207 180.137 45.2224 180.7C45.0021 181.835 44.8646 183.061 44.6752 184.332C44.3701 186.906 44.1334 189.765 44.0169 192.745C43.9004 195.724 43.9531 198.599 44.0461 201.196C44.1391 203.793 44.2913 206.128 44.5207 208.081C44.5996 209.063 44.7094 209.94 44.7961 210.717C44.8828 211.494 44.9642 212.162 45.0393 212.705C45.1144 213.248 45.1584 213.649 45.1982 213.965C45.2132 214.11 45.2205 214.257 45.2199 214.403C45.1745 214.264 45.1433 214.12 45.1265 213.975C45.0747 213.659 45.0061 213.248 44.9139 212.724C44.8217 212.2 44.7223 211.532 44.6227 210.737C44.5231 209.943 44.4022 209.084 44.3053 208.104C44.0756 206.145 43.9054 203.81 43.7701 201.21C43.6348 198.609 43.6187 195.744 43.722 192.741C43.8253 189.738 44.0864 186.884 44.4028 184.297C44.5974 183.008 44.7469 181.781 44.9741 180.665C45.078 180.095 45.1829 179.543 45.277 179.016L45.6171 177.509C45.8157 176.544 46.0557 175.685 46.2647 174.93C46.3663 174.552 46.4633 174.205 46.5492 173.876C46.6351 173.548 46.7414 173.266 46.8306 173.004L47.227 171.782C47.2712 171.643 47.3313 171.509 47.4056 171.383Z" fill="#263238"/>
<path d="M41.6025 214.01C41.5246 214.014 40.7897 201.146 39.9527 185.256C39.1158 169.366 38.5247 156.491 38.5846 156.488C38.6446 156.485 39.3975 169.352 40.2344 185.242C41.0713 201.132 41.6804 214.006 41.6025 214.01Z" fill="#263238"/>
<path d="M39.2312 216.411C39.2227 216.362 39.2202 216.311 39.2237 216.261C39.2181 216.147 39.2109 216.004 39.1657 215.82C39.1154 215.414 39.0511 214.846 38.9671 214.123C38.7963 212.624 38.5582 210.497 38.2591 207.868C37.66 202.593 36.8054 195.324 35.5106 187.308C34.8544 183.303 34.1366 179.512 33.4124 176.075C33.0386 174.364 32.6929 172.735 32.3106 171.215C31.9283 169.696 31.5637 168.291 31.2591 167.002C30.9544 165.713 30.5906 164.566 30.3056 163.553C30.0207 162.539 29.7666 161.663 29.5748 160.951C29.3831 160.24 29.2063 159.708 29.0843 159.311C29.0396 159.139 28.9965 158.997 28.9668 158.885C28.9554 158.835 28.9529 158.785 28.9594 158.735C28.9862 158.779 29.0066 158.826 29.0205 158.876L29.1617 159.296C29.2954 159.686 29.4728 160.229 29.7056 160.921C29.9385 161.612 30.2166 162.488 30.5139 163.506C30.8111 164.525 31.1686 165.667 31.5033 166.954C31.8379 168.241 32.2383 169.639 32.5906 171.16C32.9428 172.68 33.3485 174.306 33.7226 176.024C34.4588 179.46 35.1829 183.257 35.8389 187.256C37.1333 195.266 37.9591 202.56 38.5105 207.844C38.7865 210.492 38.9949 212.626 39.1288 214.109C39.1648 214.834 39.2411 215.401 39.2737 215.814C39.2826 215.994 39.2901 216.144 39.2957 216.258C39.2822 216.312 39.2601 216.363 39.2312 216.411Z" fill="#263238"/>
<path d="M38.7337 162.723C38.47 160.934 36.5567 159.622 34.7183 159.694C32.8604 159.868 31.1859 160.885 30.1787 162.453C29.1969 164.01 28.5173 165.737 28.1752 167.544C27.1523 171.903 26.7047 176.449 27.4544 180.864C28.2041 185.279 30.2233 189.559 33.574 192.537C34.1161 193.027 34.826 193.502 35.5208 193.312C35.8953 193.183 36.2303 192.959 36.4937 192.663C42.5315 186.572 45.6367 178.172 45.0127 169.624C44.8808 167.942 44.5708 166.191 43.5702 164.834C42.5696 163.478 40.3032 162.087 38.74 162.729" fill="#6C63FF"/>
<path d="M24.2963 148.779L21.9465 153.581C21.8918 153.692 21.82 153.822 21.6942 153.834C21.5684 153.846 21.4483 153.732 21.3706 153.622L14.0171 143.517L15.5461 142.547L24.2963 148.779Z" fill="#FF725E"/>
<path d="M24.2963 148.779L21.9465 153.581C21.8918 153.692 21.82 153.822 21.6942 153.834C21.5684 153.846 21.4483 153.732 21.3706 153.622L14.0171 143.517L15.5461 142.547L24.2963 148.779Z" fill="black"/>
<path d="M38.5867 156.518L14.5871 143.932C14.3142 143.843 14.0877 143.648 13.9581 143.392C13.851 143.055 14.0926 142.706 14.3259 142.436C17.4048 138.919 21.8642 136.912 26.5447 136.938C31.2425 137.044 35.5879 139.453 38.1605 143.379C40.6067 147.279 40.9495 152.586 38.5567 156.52" fill="#6C63FF"/>
<path d="M17.7562 139.385C17.8545 139.352 17.9572 139.335 18.0607 139.334C18.2588 139.324 18.5567 139.261 18.9414 139.248C20.0229 139.181 21.1088 139.211 22.1851 139.341C23.7883 139.535 25.3612 139.927 26.8671 140.511C32.1305 142.569 36.1978 146.867 37.9569 152.229C38.3097 153.256 38.5641 154.314 38.7164 155.388C38.7832 155.764 38.7861 156.064 38.8083 156.267C38.8236 156.368 38.8287 156.47 38.8236 156.573C38.8236 156.573 38.7486 156.156 38.6137 155.381C38.4279 154.323 38.1562 153.282 37.8022 152.267C35.4603 145.394 29.4058 140.448 22.1937 139.515C21.1279 139.367 20.0514 139.305 18.9756 139.331C18.1531 139.377 17.7574 139.409 17.7562 139.385Z" fill="#263238"/>
<path d="M34.9555 147.194C34.5909 147.441 34.1962 147.64 33.7808 147.787C33.0506 148.117 32.0119 148.541 30.8892 148.969C29.7664 149.397 28.6996 149.738 27.9283 149.969C27.5201 150.116 27.0971 150.217 26.6668 150.271C27.042 150.067 27.4372 149.902 27.8467 149.78L30.7676 148.705L33.6814 147.605C34.0916 147.426 34.5183 147.289 34.9555 147.194Z" fill="#263238"/>
<path d="M30.7974 137.535C31.0477 138.373 31.184 139.242 31.2022 140.116C31.3139 140.984 31.3089 141.864 31.1878 142.73C31.0328 141.874 30.9452 141.006 30.9266 140.136C30.8153 139.274 30.772 138.404 30.7974 137.535Z" fill="#263238"/>
<path d="M14.3572 143.689C14.8901 143.412 15.4471 143.183 16.0212 143.006C17.0619 142.624 18.519 142.137 20.1692 141.659C21.8193 141.181 23.282 140.808 24.3296 140.564C24.9153 140.403 25.5144 140.293 26.1197 140.235C25.5588 140.446 24.9839 140.62 24.3992 140.753C23.33 141.046 21.8582 141.479 20.2429 141.932C18.6276 142.384 17.164 142.859 16.0905 143.189C15.5244 143.393 14.9457 143.561 14.3572 143.689Z" fill="#263238"/>
<path d="M27.9224 158.92C25.8409 157.502 23.7068 157.325 21.1942 157.527C18.6851 157.81 16.2522 158.56 14.0195 159.736C10.1711 161.644 6.60391 164.361 4.43431 168.061C2.26472 171.761 1.67859 176.549 3.63313 180.37C3.79223 180.772 4.09345 181.102 4.48001 181.296C4.92271 181.396 5.38694 181.337 5.79021 181.13C10.192 179.453 14.6171 177.763 18.6176 175.283C22.618 172.803 26.2016 169.448 28.1993 165.198C28.7156 164.203 29.0256 163.115 29.1114 161.998C29.1767 160.856 28.746 159.741 27.9293 158.938" fill="#6C63FF"/>
<path d="M27.935 158.451C27.8375 158.513 27.7328 158.562 27.6233 158.598L26.7025 158.968L26.0349 159.223C25.7931 159.325 25.5342 159.446 25.2576 159.574C24.7044 159.83 24.0792 160.089 23.3812 160.46L22.3129 161.011C21.9372 161.204 21.5696 161.438 21.1777 161.668C20.3866 162.103 19.5952 162.653 18.744 163.211C15.1143 165.713 11.9273 168.8 9.31349 172.346C8.75263 173.173 8.15934 173.953 7.6985 174.733C7.45877 175.117 7.21783 175.478 7.00725 175.843L6.45744 176.891C6.06898 177.553 5.78774 178.192 5.51403 178.74C5.38302 179.011 5.25113 179.264 5.14266 179.504C5.0342 179.743 4.94856 179.958 4.86833 180.16L4.46809 181.069C4.43141 181.178 4.37996 181.282 4.31486 181.377C4.33874 181.264 4.37357 181.154 4.41886 181.047L4.76384 180.117C4.84406 179.915 4.92941 179.694 5.01957 179.45C5.10971 179.205 5.24761 178.952 5.37231 178.675C5.63342 178.115 5.91316 177.447 6.27819 176.798C6.46596 176.458 6.65283 176.1 6.8271 175.731C7.00137 175.362 7.27232 175 7.50575 174.61C7.96 173.819 8.52895 173.034 9.10723 172.194C10.4216 170.408 11.8756 168.729 13.4567 167.173C15.0571 165.64 16.7796 164.239 18.6063 162.984C19.4634 162.425 20.2672 161.881 21.0645 161.451C21.4628 161.227 21.8367 160.998 22.2358 160.792L23.323 160.258C24.0093 159.894 24.6591 159.646 25.225 159.401C25.5081 159.285 25.7673 159.17 26.0154 159.074L26.6899 158.837L27.6314 158.52C27.731 158.489 27.8322 158.466 27.935 158.451Z" fill="#263238"/>
<path d="M12.6929 167.685C11.126 168.371 9.52421 168.974 7.89348 169.491C6.29258 170.099 4.6576 170.616 2.9968 171.037C4.56372 170.35 6.16551 169.748 7.79626 169.231C9.39854 168.626 11.0335 168.11 12.6929 167.685Z" fill="#263238"/>
<path d="M13.0213 178.41C12.9148 177.913 12.853 177.408 12.838 176.899C12.7916 175.965 12.727 174.664 12.6561 173.238C12.5852 171.812 12.6405 170.505 12.672 169.567C12.6587 169.057 12.6984 168.548 12.7889 168.047C12.8542 168.551 12.8795 169.061 12.8645 169.569C12.8794 170.596 12.9054 171.844 12.9322 173.23C12.959 174.617 12.997 175.864 13.0179 176.891C13.0652 177.396 13.0665 177.905 13.0213 178.41Z" fill="#263238"/>
<path d="M22.0158 173.292C21.9378 173.296 21.5611 170.678 21.1775 167.435C20.7938 164.191 20.5365 161.555 20.6145 161.551C20.6924 161.547 21.0628 164.16 21.4525 167.403C21.8421 170.646 22.0934 173.283 22.0158 173.292Z" fill="#263238"/>
<path d="M9.93951 161.82C10.4541 161.729 10.9764 161.687 11.4989 161.694C12.46 161.647 13.7953 161.617 15.2694 161.593C16.7435 161.568 18.074 161.563 19.0377 161.569C19.5601 161.55 20.0828 161.575 20.601 161.643C20.0865 161.734 19.5641 161.776 19.0416 161.768C18.0805 161.815 16.7455 161.851 15.2711 161.869C13.7967 161.888 12.4665 161.9 11.4967 161.893C10.9762 161.913 10.4553 161.888 9.93951 161.82Z" fill="#263238"/>
<path d="M34.6373 193.731C34.6056 193.627 34.5876 193.519 34.5852 193.409C34.5736 193.176 34.5584 192.87 34.4979 192.501C34.4222 191.705 34.3593 190.561 34.3304 189.133C34.3015 187.704 34.2958 186.016 34.3708 184.138C34.4459 182.26 34.6198 180.191 34.8915 178.033C35.1632 175.875 35.5315 173.844 35.9138 171.975C36.2962 170.106 36.7333 168.492 37.1338 167.109C37.5343 165.725 37.8788 164.669 38.1774 163.897C38.3041 163.543 38.4056 163.285 38.4894 163.035C38.5211 162.933 38.5625 162.834 38.6132 162.74C38.6052 162.847 38.5798 162.952 38.5383 163.05L38.2401 163.948C38.0009 164.705 37.6753 165.778 37.3057 167.178C36.9361 168.578 36.5365 170.22 36.1518 172.041C35.767 173.863 35.4236 175.91 35.1456 178.062C34.8676 180.215 34.7121 182.289 34.6115 184.138C34.5109 185.988 34.4878 187.701 34.5102 189.118C34.5325 190.534 34.5597 191.687 34.5993 192.484C34.6178 192.855 34.6327 193.155 34.6446 193.395C34.6502 193.507 34.6474 193.619 34.6373 193.731Z" fill="#263238"/>
<path d="M35.0706 177.796C34.8165 178.181 34.5212 178.538 34.1904 178.86C33.6196 179.489 32.8008 180.335 31.8705 181.24C30.9402 182.145 30.0579 182.928 29.4052 183.483C29.0731 183.801 28.7078 184.083 28.3152 184.324C28.6038 183.964 28.9256 183.632 29.2774 183.333L31.6738 181.039L34.0511 178.723C34.3605 178.382 34.702 178.071 35.0706 177.796Z" fill="#263238"/>
<path d="M42.7476 183.359C42.3612 182.948 42.007 182.508 41.6888 182.041L39.2219 178.798L36.7027 175.594C36.3318 175.168 35.9932 174.714 35.6902 174.238C36.1162 174.609 36.5057 175.021 36.8529 175.466C37.5423 176.256 38.4643 177.364 39.4183 178.632C40.3724 179.901 41.237 181.066 41.8276 181.926C42.1785 182.374 42.4865 182.854 42.7476 183.359Z" fill="#263238"/>
<path d="M37.9526 164.894C37.9979 164.957 35.6355 166.726 32.6642 168.844C29.6929 170.961 27.2532 172.632 27.2079 172.568C27.1626 172.504 29.5251 170.735 32.5024 168.618C35.4797 166.5 37.9136 164.835 37.9526 164.894Z" fill="#263238"/>
<path d="M45.2679 172.013C43.9202 171.001 42.6268 169.92 41.3921 168.773C40.0992 167.701 38.8666 166.558 37.7 165.35C39.0523 166.358 40.3481 167.44 41.5817 168.589C42.8751 169.659 44.1059 170.802 45.2679 172.013Z" fill="#263238"/>
<path d="M62.8005 213.924C62.8043 214.002 53.9952 214.497 43.1287 215.034C32.2621 215.571 23.447 215.946 23.4431 215.868C23.4393 215.79 32.2484 215.294 43.1149 214.758C53.9815 214.221 62.7966 213.846 62.8005 213.924Z" fill="#455A64"/>
<path d="M23.6631 209.762H62.9364V215.144H23.6631V209.762Z" fill="#263238"/>
<path d="M63.0025 215.216H23.5969V209.696H63.0025V215.216ZM23.7292 215.078H62.8702V209.828H23.7292V215.078Z" fill="#263238"/>
<path d="M27.3076 213.356L32.955 241.178H53.8727L59.3397 215.15L27.3076 213.356Z" fill="#263238"/>
<path d="M27.3076 238.544L30.3208 242.684H55.7432L59.3397 238.544H27.3076Z" fill="#455A64"/>
<path d="M56.868 226.448C56.868 226.526 50.9199 226.592 43.5885 226.592C36.2571 226.592 30.3149 226.526 30.3149 226.448C30.3149 226.37 36.2571 226.31 43.5885 226.31C50.9199 226.31 56.868 226.4 56.868 226.448Z" fill="#455A64"/>
<path d="M57.0964 228.068C57.0964 228.146 51.1543 228.206 43.8228 228.206C36.4914 228.206 30.5493 228.146 30.5493 228.068C30.5493 227.99 36.4914 227.93 43.8228 227.93C51.1543 227.93 57.0964 227.99 57.0964 228.068Z" fill="#455A64"/>
<path d="M57.0965 225.116C57.0965 225.194 50.9499 225.254 43.3659 225.254C35.7819 225.254 29.6353 225.194 29.6353 225.116C29.6353 225.038 35.7819 224.978 43.3659 224.978C50.9499 224.978 57.0965 225.038 57.0965 225.116Z" fill="#455A64"/>
<path d="M19.0022 11.954H74.1773V91.742H19.0022V11.954Z" fill="#E0E0E0"/>
<path d="M16.2366 11.954H71.4116V91.742H16.2366V11.954Z" fill="#F5F5F5"/>
<path d="M23.0918 20.5939H64.5603V83.0959H23.0918V20.5939Z" fill="white"/>
<path d="M64.5602 83.102C64.5602 83.102 64.5602 82.994 64.5602 82.796C64.5602 82.598 64.5602 82.292 64.5602 81.908C64.5602 81.122 64.5602 79.97 64.5602 78.482C64.5602 75.482 64.5602 71.12 64.5181 65.606C64.5181 54.584 64.482 38.972 64.452 20.606L64.5903 20.744H23.1278L23.2782 20.594C23.2782 44.174 23.2782 65.912 23.2782 83.102L23.1579 82.982L53.3436 83.042L61.6794 83.072H63.8686H64.6264H63.8927H61.7275H53.4158L23.1579 83.132H23.0376V83.012C23.0376 65.822 23.0376 44.084 23.0376 20.504V20.354H23.194H64.6565H64.7948V20.6C64.7948 39.02 64.7407 54.656 64.7286 65.702C64.7286 71.204 64.6986 75.554 64.6865 78.542C64.6865 80.024 64.6865 81.164 64.6865 81.944C64.6865 82.322 64.6865 82.616 64.6865 82.814C64.6865 83.012 64.5602 83.102 64.5602 83.102Z" fill="#E0E0E0"/>
<path d="M71.573 11.954C71.2879 12.464 70.9577 12.9482 70.5866 13.4C69.9491 14.252 69.0349 15.416 68.0005 16.676C66.966 17.936 65.9917 19.046 65.27 19.838C64.9073 20.2856 64.505 20.699 64.0671 21.074C64.3787 20.5874 64.7305 20.1278 65.1196 19.7L67.778 16.484L70.4242 13.25C70.7695 12.7862 71.1538 12.353 71.573 11.954Z" fill="#E0E0E0"/>
<path d="M64.7708 82.8979C66.83 86.1589 69.2508 89.1781 71.9879 91.8979L64.7708 82.8979Z" fill="white"/>
<path d="M72.0059 91.9219C71.5434 91.5883 71.1194 91.2037 70.7429 90.7759C69.7812 89.8009 68.87 88.7773 68.0124 87.7099C67.014 86.4559 66.178 85.2619 65.6067 84.3799C65.2783 83.9143 64.9962 83.4181 64.7646 82.8979C65.1363 83.3263 65.4761 83.7817 65.7811 84.2599C66.3825 85.1119 67.2486 86.2759 68.2409 87.5179C69.2333 88.7599 70.1956 89.8519 70.8932 90.6319C71.2944 91.0345 71.6666 91.4659 72.0059 91.9219Z" fill="#E0E0E0"/>
<path d="M16.2295 91.6761L23.4466 82.7841L16.2295 91.6761Z" fill="white"/>
<path d="M23.4587 82.7841C22.3701 84.3567 21.2015 85.8723 19.9583 87.3261C18.7946 88.8417 17.5502 90.2943 16.2295 91.6761C17.3181 90.1035 18.4866 88.5879 19.7298 87.1341C20.8936 85.6185 22.1379 84.1659 23.4587 82.7841Z" fill="#E0E0E0"/>
<path d="M16.2366 11.954C17.4833 13.289 18.6561 14.6912 19.7489 16.154C20.9193 17.5508 22.0115 19.0112 23.0207 20.528C21.7763 19.193 20.6054 17.7908 19.5144 16.328C18.3422 14.9312 17.2482 13.4708 16.2366 11.954Z" fill="#E0E0E0"/>
<path d="M37.7546 33.2839H51.6416V72.6139H37.7546V33.2839Z" fill="#E0E0E0"/>
<path d="M148.568 0.325928V35.2699H98.2642L96.4539 0.571921L148.568 0.325928Z" fill="#E0E0E0"/>
<path d="M96.448 35.1919V0.571899H146.751V35.1919H96.448Z" fill="white"/>
<path d="M146.992 35.4331H96.2134V0.33313H146.992V35.4331ZM96.6945 34.9591H146.517V0.801129H96.6945V34.9591Z" fill="#E0E0E0"/>
<path d="M101.903 4.8739H141.308V30.8899H101.903V4.8739Z" fill="white"/>
<path d="M141.308 4.874H140.551H138.385H130.266L101.903 5.00001L102.017 4.886C102.017 12.836 102.017 21.644 102.017 30.902L101.897 30.782H141.302L141.2 30.878C141.2 22.964 141.242 16.478 141.254 11.948C141.254 9.69201 141.254 7.92801 141.254 6.71601C141.254 6.11601 141.254 5.66001 141.254 5.34201C141.254 5.024 141.254 4.86201 141.254 4.86201C141.254 4.86201 141.254 5.01201 141.254 5.31801C141.254 5.624 141.254 6.086 141.254 6.674C141.254 7.874 141.254 9.638 141.284 11.888C141.284 16.424 141.314 22.94 141.332 30.878V30.98H141.236H101.831H101.704V30.854C101.704 21.596 101.704 12.788 101.704 4.838V4.76001H101.819L130.26 4.81401L138.355 4.85001H140.496H141.224L141.308 4.874Z" fill="#E0E0E0"/>
<path d="M146.758 0.571899C145.931 1.38371 145.046 2.1355 144.111 2.8219C143.227 3.5707 142.29 4.2565 141.309 4.8739C142.136 4.0621 143.02 3.31031 143.955 2.6239C144.838 1.8733 145.775 1.1875 146.758 0.571899Z" fill="#E0E0E0"/>
<path d="M146.715 35.198L141.104 30.662L146.715 35.198Z" fill="white"/>
<path d="M141.104 30.662C142.113 31.322 143.077 32.0474 143.991 32.834C144.951 33.56 145.861 34.3502 146.715 35.198C145.706 34.5416 144.743 33.8162 143.834 33.026C142.87 32.303 141.957 31.5128 141.104 30.662Z" fill="#E0E0E0"/>
<path d="M109.902 21.6919V12.9799H134.699V21.6919H109.902Z" fill="#E0E0E0"/>
</svg>
