<svg width="675" height="523" viewBox="0 0 675 523" fill="none" xmlns="http://www.w3.org/2000/svg">
<path d="M45.0571 464.035H668.474C688.786 464.035 652.435 474.647 640.53 486.552C628.625 498.457 629.315 503.418 599.665 512.394C535.921 531.776 508.666 493.839 407.468 508.776C364.398 515.133 309.268 527.296 265.991 520.836C229.467 515.392 220.594 490.48 192.995 488.464C150.614 485.363 129.475 488.464 90.7978 486.517C57.6681 484.932 -7.91939 464.035 45.0571 464.035Z" fill="url(#paint0_linear)"/>
<path d="M521.071 464.035C519.072 395.432 534.595 312.152 588.639 264.878C597.253 257.297 607.935 247.512 620.236 248.407C625.973 248.821 628.85 255.299 629.677 260.243C631.21 268.857 629.677 277.85 627.592 286.395C615.894 333.652 577.303 416.364 567.432 464.035" fill="url(#paint1_linear)"/>
<path d="M612.121 266.652C601.81 279.965 592.782 294.224 585.159 309.24C578.057 323.25 572.016 337.774 567.087 352.689C562.531 366.427 558.842 380.439 556.044 394.64C553.659 406.729 551.934 418.939 550.875 431.215C549.945 440.775 549.669 450.388 550.048 459.986C550.048 460.951 550.186 461.898 550.221 462.863C550.221 463.466 551.186 463.466 551.168 462.863C550.884 453.708 551.143 444.543 551.944 435.419C552.824 423.468 554.353 411.575 556.526 399.791C559.06 385.864 562.432 372.102 566.622 358.581C571.212 343.701 576.878 329.174 583.574 315.115C590.775 300.053 599.266 285.642 608.951 272.044C610.157 270.321 611.398 268.599 612.655 266.996C612.879 266.686 612.363 266.273 612.121 266.583V266.652Z" fill="#92D0FF"/>
<path d="M567.432 464.035C574.667 419.638 582.265 383.373 607.728 346.263C618.186 330.999 638.36 312.134 654.399 313.702C671.627 315.425 659.413 341.388 649.231 360.804C635.411 386.761 625.87 414.778 620.977 443.774C622.389 435.074 628.436 410.3 646.285 399.274C651.453 396.052 664.409 394.106 664.409 404.873C664.409 423.721 646.095 446.359 641.513 464.035" fill="url(#paint2_linear)"/>
<path d="M648.852 327.175C644.641 332.71 640.862 338.562 637.55 344.678C632.812 353.069 628.54 361.734 624.508 370.521C619.914 380.375 615.705 390.379 611.88 400.532C607.987 410.748 604.438 421.102 601.543 431.629C598.827 440.814 596.868 450.206 595.686 459.711C595.565 460.744 595.496 461.778 595.41 462.812C595.41 463.26 596.048 463.242 596.099 462.812C597.298 453.543 599.157 444.371 601.664 435.367C604.455 425.03 607.814 414.883 611.518 404.856C615.222 394.83 619.443 384.475 623.923 374.518C627.937 365.576 632.227 356.79 636.861 348.159C640.224 341.667 644.023 335.41 648.232 329.432C648.645 328.863 649.059 328.312 649.489 327.709C649.92 327.106 649.248 326.744 648.921 327.157L648.852 327.175Z" fill="#92D0FF"/>
<path d="M654.158 406.2C648.811 411.726 644.462 418.138 641.306 425.151C637.642 432.968 634.684 441.098 632.468 449.443C631.136 454.255 630.022 459.102 629.126 463.983C629.126 464.517 629.832 464.741 629.953 464.207C633.64 447.858 638.033 431.095 647.009 416.744C649.196 413.15 651.76 409.8 654.658 406.751C654.702 406.682 654.722 406.599 654.713 406.517C654.704 406.435 654.667 406.359 654.609 406.301C654.551 406.243 654.474 406.206 654.392 406.197C654.31 406.188 654.228 406.207 654.158 406.252V406.2Z" fill="#92D0FF"/>
<path d="M160.4 464.035C149.925 377.463 157.54 339.734 167.395 315.752C171.994 304.588 178.593 293.511 187.93 285.637C225.298 254.093 224.11 315.425 222.387 334.014C218.39 376.361 207.76 421.636 206.881 464.035" fill="url(#paint3_linear)"/>
<path d="M126.684 464.035C125.495 436.797 113.332 410.231 97.8443 388.231C82.3563 366.231 60.8555 348.503 46.8318 325.279C39.3204 312.841 27.4502 293.287 45.0229 283.088C64.5079 271.769 93.1411 283.622 108.767 296.56C125.823 310.618 137.021 330.551 146.376 350.226C162.898 384.975 166.206 425.547 166.464 464.017" fill="url(#paint4_linear)"/>
<path d="M130.423 464.035C130.509 436.315 116.382 407.061 94.0716 385.406C79.4967 371.244 62.0618 357.996 42.1977 352.155C31.8608 349.123 3.02099 344.334 0.126661 361.476C-0.958711 367.988 4.89884 380.203 18.957 391.332C38.4937 406.837 92.4522 430.836 98.9644 464.035" fill="url(#paint5_linear)"/>
<path d="M13.3582 362.613C21.2955 364.832 29.0208 367.749 36.4438 371.33C44.7509 375.314 52.6994 380.006 60.2014 385.354C68.2437 391.062 75.6843 397.573 82.4085 404.787C89.3873 412.254 95.4116 420.558 100.343 429.51C105.465 438.907 109.267 448.965 111.645 459.401C111.955 460.762 112.23 462.105 112.489 463.466C112.575 463.949 113.281 463.742 113.195 463.277C111.463 452.573 108.074 442.204 103.151 432.542C98.4549 423.369 92.6202 414.825 85.7852 407.113C79.203 399.66 71.8647 392.911 63.8882 386.973C56.2823 381.291 48.1813 376.304 39.6827 372.071C32.1611 368.301 24.3276 365.188 16.2697 362.768L13.5132 361.993C13.4387 361.991 13.3657 362.014 13.3063 362.059C13.2469 362.104 13.2046 362.168 13.1865 362.241C13.1685 362.313 13.1756 362.389 13.2068 362.457C13.238 362.525 13.2914 362.58 13.3582 362.613Z" fill="#92D0FF"/>
<path d="M54.3261 294.165C62.4547 298.623 69.981 304.1 76.7227 310.463C84.8957 318.088 92.2886 326.508 98.7919 335.599C106.295 346.039 112.834 357.14 118.329 368.763C124.554 381.908 129.588 395.584 133.369 409.628C137.45 425.195 140.21 441.078 141.621 457.109C141.828 459.194 142 461.278 142.155 463.38C142.155 464.155 143.413 464.173 143.378 463.38C141.894 432.16 134.56 401.497 121.757 372.984C116.326 360.929 109.804 349.395 102.272 338.528C95.7823 329.12 88.3784 320.378 80.1683 312.427C73.3288 305.782 65.7035 299.996 57.4616 295.199C56.5485 294.665 55.6182 294.165 54.6707 293.666C54.3089 293.476 53.9815 294.028 54.3433 294.234L54.3261 294.165Z" fill="#92D0FF"/>
<path d="M201.868 284.914C197.565 295.237 194.024 305.86 191.272 316.7C188.294 328.332 185.913 340.108 184.14 351.983C182.279 364.043 180.935 376.103 179.936 388.335C178.937 400.567 178.351 412.643 178.058 424.824C177.783 436.263 177.61 447.772 178.058 459.28L178.213 463.449C178.213 463.591 178.27 463.727 178.37 463.827C178.47 463.927 178.606 463.983 178.747 463.983C178.889 463.983 179.025 463.927 179.125 463.827C179.225 463.727 179.281 463.591 179.281 463.449C179.281 452.148 179.144 440.863 179.368 429.579C179.609 417.519 180.126 405.459 180.987 393.4C181.848 381.34 183.072 368.936 184.794 356.79C186.517 344.954 188.602 333.187 191.358 321.558C193.945 310.496 197.231 299.609 201.196 288.963C201.655 287.722 202.137 286.482 202.643 285.241C202.815 284.828 202.074 284.518 201.902 284.931L201.868 284.914Z" fill="#92D0FF"/>
<path d="M103.995 464.035C100.653 449.081 97.7067 433.507 88.7998 420.62C82.9767 412.195 71.0892 400.446 60.5112 400.635C52.6379 400.773 50.8462 408.336 51.7593 415.159C54.1712 433.007 64.0602 438.451 67.9021 457.764C65.9897 450.442 54.1195 425.116 43.7827 434.799C32.3777 445.463 49.3646 464.086 49.3646 464.086" fill="url(#paint6_linear)"/>
<path d="M48.0558 439.743C51.064 443.26 53.86 446.954 56.4287 450.804C59.1068 455.006 61.3412 459.475 63.0959 464.138C63.1325 464.22 63.1971 464.287 63.2781 464.326C63.3591 464.365 63.4512 464.373 63.5381 464.351C63.6251 464.328 63.7011 464.275 63.7527 464.201C63.8042 464.128 63.8279 464.038 63.8195 463.949C62.4979 459.038 60.2718 454.416 57.2556 450.321C54.6102 446.434 51.6791 442.748 48.4865 439.295C48.228 439.002 47.7973 439.433 48.0558 439.743Z" fill="#92D0FF"/>
<path d="M64.4389 411.816C70.3982 418.35 75.3038 425.773 78.9794 433.816C82.528 441.106 85.6796 448.583 88.4204 456.213C89.368 458.832 90.2811 461.485 91.2631 464.086C91.4353 464.534 92.1244 464.362 91.9866 463.897C90.2293 458.015 88.1648 452.23 85.8017 446.565C82.5097 438.226 78.4735 430.199 73.742 422.584C71.2074 418.509 68.2257 414.73 64.8523 411.317C64.5767 411.041 64.146 411.472 64.4216 411.764L64.4389 411.816Z" fill="#92D0FF"/>
<path d="M407.795 322.885H411.241" stroke="#B3D3F4" stroke-miterlimit="10"/>
<path d="M418.116 322.885H602.595C609.841 323.014 617.039 321.698 623.771 319.014C630.502 316.33 636.632 312.332 641.801 307.254C646.971 302.175 651.077 296.118 653.88 289.435C656.683 282.753 658.126 275.579 658.126 268.332C658.126 261.085 656.683 253.911 653.88 247.228C651.077 240.546 646.971 234.488 641.801 229.41C636.632 224.331 630.502 220.334 623.771 217.65C617.039 214.966 609.841 213.65 602.595 213.779H186.708C179.037 213.779 171.679 210.731 166.254 205.307C160.83 199.882 157.782 192.525 157.782 184.853V184.853C157.782 177.18 160.829 169.821 166.253 164.393C171.678 158.966 179.035 155.914 186.708 155.91H536.164C542.845 155.736 549.195 152.96 553.86 148.173C558.524 143.386 561.135 136.967 561.135 130.283C561.135 123.599 558.524 117.179 553.86 112.392C549.195 107.605 542.845 104.829 536.164 104.656H216.375C212.638 104.656 209.053 103.171 206.41 100.528C203.767 97.8856 202.283 94.301 202.283 90.5634C202.283 86.8259 203.767 83.2413 206.41 80.5985C209.053 77.9556 212.638 76.4708 216.375 76.4708H302.516" stroke="#B3D3F4" stroke-miterlimit="10" stroke-dasharray="3.99 3.99"/>
<path d="M305.908 76.4708H309.354" stroke="#B3D3F4" stroke-miterlimit="10"/>
<path d="M331.355 30.8507C325.119 29.7967 318.711 30.7627 313.063 33.6077C307.415 36.4527 302.825 41.0279 299.961 46.6657C297.096 52.3036 296.109 58.7092 297.142 64.948C298.174 71.1867 301.174 76.9323 305.702 81.3463L301.688 89.4952L310.681 85.2916C314.401 87.6174 318.591 89.0895 322.949 89.6019C327.307 90.1144 331.724 89.6543 335.883 88.255C340.041 86.8557 343.838 84.5518 346.999 81.5092C350.161 78.4667 352.609 74.7611 354.166 70.6591C355.724 66.5572 356.353 62.161 356.008 57.7868C355.663 53.4127 354.352 49.1694 352.171 45.3624C349.989 41.5554 346.991 38.2794 343.392 35.7701C339.792 33.2608 335.681 31.5807 331.355 30.8507Z" fill="#F3FAFF"/>
<path d="M313.196 74.0934L310.129 70.4755C309.583 69.783 309.324 68.9076 309.404 68.0294C309.484 67.1513 309.898 66.3373 310.56 65.755L314.006 62.809C314.697 62.2683 315.569 62.0117 316.443 62.0918C317.317 62.1718 318.127 62.5824 318.709 63.2397C318.709 63.2397 320.345 65.6861 322.258 65.2554C324.17 64.8247 329.149 61.2929 331.716 58.6226C333.439 56.7275 330.493 53.4541 330.493 53.4541C330.21 53.1178 329.998 52.729 329.866 52.3099C329.735 51.8909 329.688 51.45 329.728 51.0127C329.768 50.5754 329.894 50.1504 330.1 49.7622C330.305 49.374 330.585 49.0302 330.924 48.7508L334.369 45.8048C335.061 45.2641 335.932 45.0076 336.806 45.0876C337.68 45.1676 338.491 45.5782 339.072 46.2355L342.139 49.9051C349.22 58.0885 319.226 81.312 313.196 74.0934Z" fill="#B3D3F4"/>
<path d="M460.686 75.9023C465.079 71.6814 466.905 67.2882 472.97 65.9789C474.227 65.817 475.449 65.4503 476.588 64.8935C479.534 63.0501 478.931 58.8809 479.585 55.5731C480.895 49.0436 489.423 44.9261 495.659 47.786C498.278 48.9919 500.638 51.2316 503.532 51.0076C509.321 50.6114 508.701 43.4789 512.577 39.4131C516.454 35.3473 523.913 35.0716 528.772 37.5008C532.085 39.1372 534.993 41.4913 537.282 44.392C539.643 47.4414 539.522 52.1447 541.262 55.5042C543.002 58.8636 546.878 60.1557 548.601 63.3602C549.384 64.6404 549.858 66.085 549.987 67.5799C550.115 69.0749 549.894 70.5792 549.342 71.9742C546.878 77.9007 539.625 82.1733 533.061 82.1733H444.319C444.319 82.1733 455.742 80.6055 460.686 75.9023Z" fill="#F3FAFF"/>
<path d="M248.126 33.7623C244.421 30.1961 242.871 26.5265 237.789 25.3722C236.725 25.2437 235.693 24.9288 234.739 24.4419C232.241 22.8914 232.741 19.3596 232.189 16.5687C231.087 11.0557 223.886 7.57558 218.614 10.0047C216.391 11.0212 214.393 12.8818 211.946 12.7268C207.071 12.3822 207.657 6.35238 204.314 2.92398C200.972 -0.504417 194.736 -0.745615 190.635 1.30453C187.827 2.69347 185.366 4.69521 183.434 7.1621C181.435 9.72909 181.539 13.7088 179.988 16.5514C178.438 19.3941 175.251 20.4794 173.786 23.1843C173.126 24.2713 172.726 25.4964 172.618 26.7638C172.511 28.0312 172.698 29.3062 173.166 30.489C175.251 35.4851 181.384 39.103 186.948 39.103H261.96C261.96 39.103 252.277 37.742 248.126 33.7623Z" fill="#F3FAFF"/>
<path d="M594.101 114.752L541.986 86.8593L555.7 46.1147L619.151 78.9688L594.101 114.752Z" fill="#CFE0F5"/>
<path d="M619.15 78.969L555.699 46.1149L600.923 36.45L619.15 78.969Z" fill="#CFE0F5"/>
<path d="M614.342 72.3561L563.548 46.0604L541.339 88.9603L592.134 115.256L614.342 72.3561Z" fill="#FFF4E1"/>
<path d="M555.698 46.1147L534.353 87.3589L575.993 84.6196L555.698 46.1147Z" fill="#E6F1FC"/>
<path d="M619.152 78.9689L597.789 120.213L575.995 84.6197L619.152 78.9689Z" fill="#E6F1FC"/>
<g style="mix-blend-mode:multiply">
<path d="M597.787 120.213L534.353 87.359L582.591 72.0776L597.787 120.213Z" fill="#E6F1FC"/>
</g>
<path d="M597.787 120.213L534.353 87.3589L579.576 77.7112L597.787 120.213Z" fill="#E6F1FC"/>
<path d="M175.716 132.014L133.248 142.644L120.5 113.46L171.65 99.9185L175.716 132.014Z" fill="#CFE0F5"/>
<path d="M171.65 99.9185L120.5 113.46L140.501 85.6536L171.65 99.9185Z" fill="#CFE0F5"/>
<path d="M165.729 98.6585L124.778 109.509L133.943 144.098L174.893 133.248L165.729 98.6585Z" fill="#FFF4E1"/>
<path d="M120.5 113.46L129.303 146.71L150.787 124.486L120.5 113.46Z" fill="#E6F1FC"/>
<path d="M171.65 99.9185L180.453 133.169L150.787 124.486L171.65 99.9185Z" fill="#E6F1FC"/>
<g style="mix-blend-mode:multiply">
<path d="M180.454 133.169L129.304 146.71L148.169 114.321L180.454 133.169Z" fill="#E6F1FC"/>
</g>
<path d="M180.454 133.168L129.304 146.71L149.323 118.921L180.454 133.168Z" fill="#E6F1FC"/>
<path d="M342.88 73.9211L344.465 71.4575C344.157 70.1536 344.007 68.8175 344.017 67.4778C343.984 66.1733 344.225 64.8764 344.723 63.6704C345.12 63.4464 345.309 65.8756 345.481 65.7894C345.654 65.7033 346.911 60.9311 347.618 61C347.979 61 346.739 65.6344 346.739 65.6344C346.739 65.6344 347.962 60.6382 348.462 60.8105C348.961 60.9828 347.687 65.755 347.687 65.755C347.687 65.755 348.858 61.224 349.323 61.3618C349.788 61.4996 348.565 65.9445 348.565 65.9445C348.565 65.9445 349.737 61.9993 349.995 62.2232C350.254 62.4472 349.995 65.2726 348.824 69.1145C348.617 69.7691 347.669 71.9571 347.618 72.1466L346.481 76.2814" fill="#FC8975"/>
<path d="M345.483 66.3235C345.961 67.0327 346.327 67.8113 346.568 68.6321C346.719 69.5194 346.624 70.4312 346.292 71.268C346.292 71.4058 346.465 71.5092 346.533 71.3714C347.009 70.5485 347.162 69.5787 346.964 68.6493C346.704 67.7582 346.271 66.9269 345.689 66.2029C345.603 66.0996 345.414 66.2029 345.483 66.3235Z" fill="#CC6658"/>
<path d="M288.628 370.624C288.628 370.624 297.845 373.983 297.914 376.705C297.914 378.273 284.545 378.239 283.718 377.205C282.374 375.482 284.7 370.968 284.7 370.968L288.628 370.624Z" fill="#352E72"/>
<path d="M288.474 363.026L288.681 370.865C288.574 371.253 288.353 371.598 288.045 371.857C287.737 372.115 287.358 372.274 286.958 372.312C285.597 372.502 284.667 370.968 284.667 370.968L284.271 361.166" fill="#FC8975"/>
<path d="M294.763 188.488C294.763 188.488 299.776 218.93 297.261 277.334C295.538 317.217 290.163 365.438 288.182 365.49C286.933 365.517 285.683 365.454 284.443 365.3C284.443 365.3 271.884 307.5 271.023 274.956C269.713 224.822 256.482 213.331 262.219 187.282" fill="url(#paint7_linear)"/>
<path d="M289.474 362.303L289.112 365.765L283.599 365.92L283.341 362.475L289.474 362.303Z" fill="#75A1E9"/>
<path d="M260.253 371.399C260.253 371.399 269.47 374.845 269.522 377.498C269.522 379.048 256.17 379.014 255.326 377.98C253.999 376.257 256.325 371.744 256.325 371.744L260.253 371.399Z" fill="#352E72"/>
<path d="M260.065 363.802L260.255 371.64C260.158 372.018 259.95 372.357 259.658 372.615C259.367 372.873 259.004 373.038 258.618 373.088C257.257 373.277 256.327 371.744 256.327 371.744L255.913 361.941" fill="#FC8975"/>
<path d="M278.515 188.936C278.515 188.936 276.155 227.648 273.192 272.338C272.003 289.996 261.873 363.819 260.443 366.248L255.43 366.386C255.43 366.386 247.798 302.521 246.936 269.908C245.627 219.792 240.235 213.727 245.971 187.678" fill="url(#paint8_linear)"/>
<path d="M261.185 363.095L260.823 366.541L255.327 366.696L255.052 363.251L261.185 363.095Z" fill="#75A1E9"/>
<path d="M277.31 208.524C277.31 208.524 275.346 257.986 271.745 286.964" stroke="#4A578E" stroke-width="0.5" stroke-miterlimit="10"/>
<path d="M283.787 85.8604C280.634 80.3129 272.123 81.1571 267.248 83.6896C260.356 87.2903 258.634 97.5583 252.225 101.951C249.365 103.881 245.919 105.035 243.611 107.637C242.337 109.24 241.497 111.143 241.171 113.165C240.845 115.186 241.044 117.258 241.75 119.18C243.222 122.993 245.959 126.186 249.503 128.224C253.001 130.201 256.793 131.603 260.735 132.376C266.955 133.823 273.588 134.582 279.686 132.48C285.785 130.378 290.971 124.744 290.936 118.215C290.936 112.702 287.301 107.533 287.939 102.055" fill="#081466"/>
<path d="M343.362 72.0431C343.362 72.0431 326.875 95.7145 323.085 101.107C317.21 109.48 293.091 111.099 280.204 118.731L271.263 119.713C267.007 120.575 252.312 130.998 250.985 135.219C247.867 144.815 244.697 154.531 244.094 164.627C243.904 168.073 244.094 171.518 244.094 174.964C244.249 179.926 244.421 184.87 244.576 189.832C244.558 190.163 244.636 190.492 244.8 190.779C245.045 191.028 245.367 191.186 245.713 191.227C261.908 194.966 278.774 192.95 295.262 190.934C295.841 190.912 296.4 190.713 296.864 190.366C297.317 189.797 297.533 189.075 297.467 188.35C297.553 185.18 297.381 182.01 297.243 178.84C296.731 165.096 297.249 151.332 298.793 137.665C303.962 134.461 325.015 127.845 332.078 117.973C341.524 104.861 347.012 89.3161 347.893 73.1802L343.362 72.0431Z" fill="url(#paint9_linear)"/>
<path d="M280.223 118.714L279.895 107.395L274.882 108.084L271.281 119.576C271.923 120.341 272.76 120.917 273.704 121.245C274.647 121.573 275.661 121.639 276.639 121.436C277.45 121.428 278.236 121.158 278.881 120.668C279.527 120.178 279.997 119.493 280.223 118.714Z" fill="#FC8975"/>
<path d="M269.506 102.778C269.16 98.5489 270.386 94.3405 272.951 90.9598C275.294 88.3583 279.67 87.9793 282.909 88.4272C284.029 88.5384 285.093 88.969 285.976 89.6677C289.163 92.3208 288.956 98.4196 288.732 102.158C288.626 105.349 287.537 108.43 285.614 110.979C285.02 111.776 284.239 112.415 283.34 112.839C281.678 113.433 279.896 113.608 278.15 113.35C276.404 113.092 274.749 112.407 273.33 111.358C272.135 110.269 271.179 108.945 270.52 107.468C269.862 105.992 269.517 104.395 269.506 102.778Z" fill="#FC8975"/>
<path d="M268.075 106.362C266.903 106.913 265.06 107.309 264.147 106.017C263.423 104.984 264.061 103.433 264.319 102.33C265.145 98.7543 266.175 95.2282 267.403 91.7695C267.965 89.9379 268.789 88.1972 269.849 86.6011C272.02 83.6034 278.188 82.2252 281.823 82.5697C285.803 82.2941 292.16 88.7891 288.714 96.3522C288.197 94.5088 287.457 94.6294 286.096 93.0961C284.75 94.385 282.993 95.1594 281.134 95.2841C278.722 95.508 275.965 94.9568 274.243 96.6451C272.52 98.3335 272.813 101.469 271.486 103.623C270.66 104.866 269.468 105.824 268.075 106.362Z" fill="#081466"/>
<path d="M272.193 103.536C272.238 103.346 272.243 103.148 272.207 102.955C272.172 102.762 272.096 102.579 271.986 102.417C271.876 102.255 271.733 102.118 271.567 102.014C271.401 101.91 271.215 101.842 271.021 101.813C269.195 101.624 268.644 104.501 269.298 105.81C269.832 106.775 271.159 107.533 271.848 106.413" fill="#FC8975"/>
<path d="M275.277 110.29C274.823 110.257 274.373 110.182 273.933 110.066C272.552 109.76 271.328 108.964 270.488 107.826C270.17 107.406 269.978 106.904 269.937 106.379C269.937 106.324 269.958 106.271 269.997 106.233C270.036 106.194 270.088 106.172 270.143 106.172C270.17 106.17 270.196 106.173 270.221 106.181C270.246 106.19 270.269 106.203 270.289 106.221C270.308 106.239 270.324 106.261 270.334 106.285C270.345 106.309 270.35 106.335 270.35 106.362C270.389 106.802 270.557 107.221 270.832 107.568C271.612 108.62 272.743 109.359 274.02 109.652C275.283 109.912 276.577 109.988 277.861 109.876C277.889 109.874 277.916 109.877 277.942 109.885C277.968 109.893 277.992 109.907 278.013 109.924C278.034 109.942 278.051 109.963 278.063 109.988C278.076 110.012 278.083 110.038 278.085 110.066C278.088 110.094 278.084 110.123 278.075 110.15C278.066 110.177 278.051 110.202 278.031 110.223C278.012 110.244 277.988 110.261 277.962 110.272C277.936 110.284 277.907 110.29 277.879 110.29C277.013 110.359 276.143 110.359 275.277 110.29Z" fill="#081466"/>
<path d="M278.81 109.549C278.435 109.394 278.013 109.394 277.638 109.549C276.329 109.98 277.759 111.703 278.948 110.824C279.046 110.75 279.128 110.656 279.189 110.548C279.232 110.458 279.256 110.36 279.26 110.26C279.264 110.161 279.248 110.061 279.212 109.968C279.177 109.875 279.123 109.789 279.054 109.717C278.985 109.645 278.902 109.588 278.81 109.549Z" fill="#081466"/>
<path d="M266.474 96.0936C266.765 92.993 267.864 90.0229 269.661 87.4795C271.987 84.5163 275.105 82.0699 278.085 82.0699C279.358 82.0156 280.629 82.2147 281.824 82.6557C278.69 83.4003 275.855 85.076 273.692 87.4623C271.241 90.0925 269.843 93.5327 269.764 97.1273" fill="#75A1E9"/>
<path d="M274.002 100.987C274.23 102.509 273.848 104.061 272.938 105.303C272.028 106.545 270.664 107.377 269.144 107.619C268.385 107.661 267.627 107.553 266.91 107.301C266.194 107.049 265.534 106.658 264.969 106.151C264.405 105.643 263.945 105.03 263.618 104.344C263.291 103.659 263.102 102.916 263.062 102.158C262.839 100.636 263.223 99.0871 264.132 97.846C265.041 96.605 266.402 95.7713 267.92 95.5252C269.451 95.4454 270.95 95.9754 272.09 96.9991C273.23 98.0228 273.917 99.4567 274.002 100.987Z" fill="#75A1E9"/>
<path d="M271.401 101.486C271.577 102.504 271.345 103.55 270.755 104.399C270.165 105.247 269.264 105.828 268.249 106.017C267.418 106.226 266.544 106.176 265.743 105.875C264.941 105.574 264.251 105.035 263.764 104.331C263.277 103.626 263.017 102.79 263.019 101.934C263.02 101.078 263.283 100.242 263.772 99.5395C264.261 98.8367 264.953 98.3 265.755 98.0012C266.557 97.7024 267.432 97.6556 268.261 97.8673C269.091 98.0789 269.836 98.5388 270.397 99.1855C270.958 99.8322 271.309 100.635 271.401 101.486Z" fill="#2D4CBA"/>
<path d="M381.11 91.6835L196.441 253.404V475.767H565.795V253.404L381.11 91.6835Z" fill="url(#paint10_linear)"/>
<path d="M547.12 148.571H215.1V452.82H547.12V148.571Z" fill="url(#paint11_linear)"/>
<path d="M528.117 188.109H234.119V214.089H528.117V188.109Z" fill="white"/>
<path d="M528.117 226.252H234.119V252.232H528.117V226.252Z" fill="white"/>
<path d="M528.117 264.395H234.119V418.88H528.117V264.395Z" fill="white"/>
<path d="M254.63 199.674L254.319 198.654H252.758L252.447 199.674H251.469L252.98 195.373H254.091L255.608 199.674H254.63ZM254.103 197.893C253.815 196.969 253.653 196.446 253.616 196.325C253.581 196.204 253.556 196.108 253.54 196.038C253.476 196.288 253.291 196.906 252.986 197.893H254.103ZM257.964 199.674L256.933 196.313H256.906C256.943 196.997 256.962 197.453 256.962 197.682V199.674H256.15V195.391H257.387L258.4 198.666H258.418L259.493 195.391H260.729V199.674H259.883V197.646C259.883 197.551 259.884 197.44 259.886 197.315C259.89 197.19 259.903 196.858 259.927 196.319H259.9L258.796 199.674H257.964ZM264.277 199.674H261.811V195.391H264.277V196.135H262.719V197.075H264.169V197.819H262.719V198.924H264.277V199.674Z" fill="#EAC38F"/>
<path d="M252.099 238.73L251.067 235.37H251.041C251.078 236.053 251.097 236.509 251.097 236.738V238.73H250.285V234.447H251.521L252.535 237.722H252.553L253.628 234.447H254.864V238.73H254.018V236.703C254.018 236.607 254.019 236.496 254.021 236.371C254.024 236.246 254.038 235.914 254.062 235.375H254.035L252.931 238.73H252.099ZM258.567 238.73L258.257 237.71H256.695L256.385 238.73H255.406L256.918 234.429H258.028L259.546 238.73H258.567ZM258.04 236.949C257.753 236.025 257.591 235.502 257.554 235.381C257.519 235.26 257.493 235.164 257.478 235.094C257.413 235.344 257.229 235.962 256.924 236.949H258.04ZM260.088 238.73V234.447H260.996V238.73H260.088ZM262.074 238.73V234.447H262.982V237.98H264.72V238.73H262.074Z" fill="#EAC38F"/>
<path d="M268.377 276.839L268.066 275.819H266.505L266.194 276.839H265.216L266.728 272.538H267.838L269.355 276.839H268.377ZM267.85 275.057C267.562 274.134 267.4 273.611 267.363 273.49C267.328 273.369 267.303 273.273 267.287 273.203C267.223 273.453 267.038 274.071 266.733 275.057H267.85ZM271.523 274.433H273.223V276.654C272.947 276.744 272.688 276.807 272.443 276.842C272.201 276.879 271.953 276.897 271.699 276.897C271.053 276.897 270.559 276.708 270.217 276.329C269.877 275.948 269.707 275.402 269.707 274.691C269.707 274 269.904 273.461 270.299 273.074C270.695 272.687 271.244 272.494 271.945 272.494C272.385 272.494 272.809 272.582 273.217 272.758L272.915 273.484C272.603 273.328 272.277 273.25 271.939 273.25C271.547 273.25 271.232 273.382 270.996 273.645C270.76 273.909 270.642 274.264 270.642 274.709C270.642 275.174 270.736 275.529 270.926 275.775C271.117 276.019 271.395 276.141 271.758 276.141C271.947 276.141 272.14 276.122 272.335 276.083V275.189H271.523V274.433ZM276.712 276.839H274.245V272.556H276.712V273.3H275.153V274.24H276.604V274.984H275.153V276.089H276.712V276.839Z" fill="#EAC38F"/>
<path d="M342.404 163.971C341.891 163.971 341.494 164.165 341.213 164.551C340.932 164.935 340.791 165.471 340.791 166.16C340.791 167.592 341.329 168.309 342.404 168.309C342.855 168.309 343.401 168.196 344.043 167.97V169.113C343.516 169.333 342.927 169.442 342.276 169.442C341.342 169.442 340.627 169.16 340.132 168.594C339.637 168.026 339.389 167.211 339.389 166.151C339.389 165.483 339.511 164.898 339.754 164.397C339.997 163.894 340.346 163.508 340.8 163.242C341.257 162.972 341.792 162.837 342.404 162.837C343.028 162.837 343.655 162.988 344.285 163.29L343.845 164.397C343.605 164.283 343.363 164.184 343.12 164.099C342.877 164.014 342.638 163.971 342.404 163.971ZM351.246 166.133C351.246 167.197 350.982 168.014 350.455 168.585C349.927 169.157 349.171 169.442 348.187 169.442C347.203 169.442 346.447 169.157 345.919 168.585C345.392 168.014 345.128 167.194 345.128 166.125C345.128 165.055 345.392 164.239 345.919 163.677C346.45 163.111 347.208 162.829 348.196 162.829C349.183 162.829 349.938 163.113 350.459 163.681C350.983 164.25 351.246 165.067 351.246 166.133ZM346.557 166.133C346.557 166.851 346.693 167.392 346.965 167.755C347.238 168.118 347.645 168.3 348.187 168.3C349.274 168.3 349.817 167.578 349.817 166.133C349.817 164.686 349.277 163.962 348.196 163.962C347.654 163.962 347.245 164.146 346.97 164.512C346.694 164.875 346.557 165.416 346.557 166.133ZM358.277 169.354H356.545L353.75 164.494H353.711C353.767 165.353 353.794 165.965 353.794 166.331V169.354H352.577V162.93H354.295L357.086 167.742H357.117C357.073 166.907 357.051 166.316 357.051 165.971V162.93H358.277V169.354ZM362.377 169.354H361.015V164.063H359.27V162.93H364.122V164.063H362.377V169.354ZM369.043 169.354L368.578 167.825H366.235L365.77 169.354H364.302L366.569 162.903H368.235L370.511 169.354H369.043ZM368.252 166.683C367.822 165.297 367.579 164.513 367.523 164.332C367.47 164.15 367.432 164.006 367.409 163.901C367.312 164.276 367.035 165.203 366.578 166.683H368.252ZM374.053 163.971C373.541 163.971 373.144 164.165 372.862 164.551C372.581 164.935 372.44 165.471 372.44 166.16C372.44 167.592 372.978 168.309 374.053 168.309C374.504 168.309 375.051 168.196 375.692 167.97V169.113C375.165 169.333 374.576 169.442 373.926 169.442C372.991 169.442 372.276 169.16 371.781 168.594C371.286 168.026 371.039 167.211 371.039 166.151C371.039 165.483 371.16 164.898 371.403 164.397C371.646 163.894 371.995 163.508 372.449 163.242C372.906 162.972 373.441 162.837 374.053 162.837C374.677 162.837 375.304 162.988 375.934 163.29L375.495 164.397C375.254 164.283 375.013 164.184 374.77 164.099C374.526 164.014 374.288 163.971 374.053 163.971ZM379.542 169.354H378.18V164.063H376.435V162.93H381.287V164.063H379.542V169.354ZM389.843 162.93V167.087C389.843 167.562 389.736 167.978 389.522 168.335C389.311 168.692 389.005 168.966 388.604 169.157C388.202 169.347 387.728 169.442 387.18 169.442C386.354 169.442 385.712 169.231 385.255 168.81C384.798 168.385 384.569 167.805 384.569 167.069V162.93H385.927V166.863C385.927 167.358 386.027 167.721 386.226 167.953C386.425 168.184 386.755 168.3 387.215 168.3C387.66 168.3 387.982 168.184 388.182 167.953C388.384 167.718 388.485 167.352 388.485 166.854V162.93H389.843ZM395.208 167.57C395.208 168.15 394.999 168.607 394.58 168.941C394.164 169.275 393.584 169.442 392.84 169.442C392.154 169.442 391.548 169.313 391.021 169.056V167.79C391.454 167.983 391.82 168.12 392.119 168.199C392.421 168.278 392.696 168.317 392.945 168.317C393.244 168.317 393.473 168.26 393.631 168.146C393.792 168.032 393.873 167.862 393.873 167.636C393.873 167.51 393.837 167.399 393.767 167.302C393.697 167.203 393.593 167.107 393.455 167.017C393.32 166.926 393.043 166.781 392.625 166.582C392.232 166.397 391.938 166.22 391.741 166.05C391.545 165.88 391.388 165.682 391.271 165.457C391.154 165.231 391.095 164.967 391.095 164.666C391.095 164.097 391.287 163.65 391.671 163.325C392.058 163 392.591 162.837 393.271 162.837C393.604 162.837 393.922 162.877 394.224 162.956C394.529 163.035 394.847 163.146 395.178 163.29L394.738 164.349C394.396 164.208 394.111 164.11 393.886 164.055C393.663 163.999 393.443 163.971 393.227 163.971C392.969 163.971 392.771 164.031 392.633 164.151C392.496 164.271 392.427 164.428 392.427 164.622C392.427 164.742 392.455 164.847 392.51 164.938C392.566 165.026 392.654 165.112 392.774 165.197C392.897 165.279 393.186 165.429 393.64 165.646C394.24 165.933 394.652 166.221 394.875 166.511C395.097 166.798 395.208 167.151 395.208 167.57Z" fill="#EAC38F"/>
<g style="mix-blend-mode:multiply" opacity="0.55">
<path d="M381.11 394.571L196.441 253.404V452.819H565.795V253.404L381.11 394.571Z" fill="#C9D3F4"/>
</g>
<path d="M381.11 417.553L196.441 253.404V475.767H565.795V253.404L381.11 417.553Z" fill="url(#paint12_linear)"/>
<g style="mix-blend-mode:multiply" opacity="0.35">
<path d="M381.11 301.66L196.441 475.767H565.795L381.11 301.66Z" fill="#C9D3F4"/>
</g>
<path d="M381.11 318.63L196.441 475.767H565.795L381.11 318.63Z" fill="url(#paint13_linear)"/>
<path d="M501.913 486.552C498.174 467.084 502.068 447.082 509.855 430.423C515.023 419.517 526.687 404.339 539.763 404.58C549.479 404.77 553.545 414.538 554.131 423.342C555.613 446.428 544.759 453.474 544.811 478.472C545.362 469.014 554.51 438.33 568.792 448.788C582.764 459.125 569.154 486.586 569.154 486.586" fill="url(#paint14_linear)"/>
<path d="M564.744 454.663C561.882 459.224 559.387 464.005 557.284 468.962C554.776 474.497 553.322 480.45 552.994 486.518C552.994 486.931 553.683 487.052 553.735 486.621C554.528 480.726 556.008 474.944 558.145 469.393C560.185 464.426 562.568 459.608 565.278 454.973C565.31 454.903 565.315 454.823 565.292 454.749C565.269 454.675 565.219 454.613 565.152 454.574C565.085 454.535 565.006 454.523 564.931 454.539C564.855 454.556 564.789 454.6 564.744 454.663Z" fill="#92D0FF"/>
<path d="M538.695 418.604C532.752 426.874 529.444 436.935 526.86 446.704C524.357 456.366 522.47 466.177 521.209 476.077C520.749 479.523 520.376 483.015 520.089 486.552C520.089 486.983 520.778 487.086 520.83 486.656C521.863 479.316 522.708 471.96 523.982 464.655C525.65 454.136 528.274 443.791 531.821 433.748C533.651 428.512 536.134 423.528 539.212 418.915C539.436 418.587 538.902 418.277 538.678 418.604H538.695Z" fill="#92D0FF"/>
<path d="M257.824 172.311C258.786 173.035 259.848 173.616 260.977 174.034C262.622 173.765 264.289 173.65 265.956 173.689C267.295 173.792 268.598 174.173 269.78 174.809C269.935 175.222 267.386 175.171 267.437 175.343C267.489 175.515 272.21 177.272 272.02 177.979C271.917 178.341 267.351 176.635 267.351 176.635C267.351 176.635 272.33 178.358 272.037 178.909C271.744 179.46 267.041 177.634 267.041 177.634C267.041 177.634 271.538 179.271 271.279 179.736C271.021 180.201 266.645 179.03 266.645 179.03C266.645 179.03 270.469 179.874 270.263 180.322C267.556 180.249 264.884 179.695 262.372 178.685C260.226 177.833 258.195 176.716 256.325 175.36" fill="#FC8975"/>
<path d="M259.479 138.647C255.327 144.953 245.696 152.24 240.528 156.719C243.56 160.837 260.754 173.672 260.754 173.672L259.151 177.497C259.151 177.497 226.418 171.622 225.35 155.427C224.73 145.745 236.979 131.48 246.489 124.779C255.413 118.507 265.853 117.474 271.349 119.713" fill="url(#paint15_linear)"/>
<path d="M499.38 209.231C495.78 207.749 490.629 203.339 491.231 200.841C491.473 199.772 494.022 202.667 494.677 201.96C495.332 201.254 494.677 199.342 493.454 198.291C492.231 197.24 489.44 195.328 490.112 194.656C490.784 193.984 497.399 195.465 498.881 197.722C500.178 200.215 501.057 202.904 501.482 205.682L504.222 209.231" fill="#FC8975"/>
<path d="M568.707 490.394C568.707 490.394 557.439 493.84 557.439 496.372C557.439 497.854 574.013 497.475 575.012 496.475C576.597 494.873 573.582 490.618 573.582 490.618L568.707 490.394Z" fill="#352E72"/>
<path d="M568.707 483.21V490.618C568.888 491.018 569.181 491.356 569.552 491.592C569.922 491.827 570.353 491.95 570.792 491.944C571.328 491.956 571.86 491.842 572.344 491.612C572.829 491.381 573.253 491.041 573.583 490.618L573.772 481.349" fill="#FC8975"/>
<path d="M555.268 318.664C555.268 318.664 550.099 347.521 555.061 402.582C558.507 440.174 566.707 485.535 569.154 485.535C570.697 485.529 572.238 485.437 573.771 485.26C573.771 485.26 587.415 430.388 587.415 399.653C587.415 352.31 603.369 341.078 595.444 316.682" fill="url(#paint16_linear)"/>
<path d="M567.448 482.572L568.017 485.811H574.822L575.029 482.572H567.448Z" fill="#75A1E9"/>
<path d="M603.903 490.394C603.903 490.394 592.619 493.84 592.636 496.372C592.636 497.854 609.192 497.475 610.191 496.475C611.793 494.873 608.779 490.618 608.779 490.618L603.903 490.394Z" fill="#352E72"/>
<path d="M603.903 483.21V490.618C604.084 491.018 604.378 491.356 604.748 491.592C605.118 491.827 605.549 491.95 605.988 491.944C606.524 491.956 607.056 491.842 607.54 491.612C608.025 491.381 608.449 491.041 608.779 490.618L608.951 481.349" fill="#FC8975"/>
<path d="M575.357 318.664C575.357 318.664 579.527 355.136 584.661 397.241C586.676 413.866 601.613 483.261 603.456 485.535H609.659C609.659 485.535 616.998 425.047 616.998 394.312C616.998 346.97 623.458 341.112 615.533 316.682" fill="url(#paint17_linear)"/>
<path d="M602.423 482.572L602.991 485.811H609.796L610.003 482.572H602.423Z" fill="#75A1E9"/>
<path d="M577.492 337.115C577.492 337.115 581.506 383.752 586.916 411.007" stroke="#4A578E" stroke-width="0.5" stroke-miterlimit="10"/>
<path d="M617.134 312.617C617.134 309.602 619.477 257.59 610.449 245.841C607.882 240.362 598.39 234.16 590.913 231.473C584.28 229.095 580.093 230.956 577.13 231.473C564.433 227.82 535.404 230.267 527.358 226.132C522.913 223.858 502.188 205.889 502.188 205.889L498.312 208.904C498.312 208.904 510.698 234.746 524.619 243.825C534.422 250.182 548.945 253.714 556.715 255.265C556.594 256.677 556.508 258.245 556.422 259.985C555.991 269.271 554.94 285.586 556.009 312.703C556.112 315.287 553.321 318.595 553.321 320.318C553.321 322.041 556.68 327.485 584.59 327.485C608.279 327.485 619.529 324.039 619.529 320.06C619.529 316.08 617.134 315.632 617.134 312.617Z" fill="url(#paint18_linear)"/>
<g style="mix-blend-mode:multiply" opacity="0.75">
<path style="mix-blend-mode:multiply" opacity="0.75" d="M557.388 244.48C557.739 248.04 557.523 251.633 556.75 255.127C556.544 253.348 556.509 251.554 556.647 249.769C556.74 247.988 556.988 246.218 557.388 244.48Z" fill="url(#paint19_linear)"/>
</g>
<path d="M575.357 199.548C574.288 203.718 571.721 215.174 574.082 218.775C575.379 220.467 577.205 221.675 579.27 222.206C581.334 222.737 583.517 222.56 585.469 221.704C587.393 220.782 589.094 219.455 590.456 217.813C591.818 216.171 592.809 214.254 593.36 212.194C594.439 208.071 594.766 203.787 594.325 199.548" fill="#FC8975"/>
<path d="M579.904 214.727L578.182 228.63C578.182 228.63 578.785 232.523 580.904 234.005C582.527 233.867 584.089 233.32 585.444 232.417C586.799 231.513 587.904 230.282 588.656 228.837L587.106 210.937" fill="#FC8975"/>
<path d="M589.069 203.39C586.382 202.426 582.678 202.77 579.301 202.202C576.898 202.019 574.526 201.545 572.237 200.789C568.206 199.066 568.585 192.95 571.858 190.642C572.288 190.269 572.789 189.988 573.331 189.816C573.874 189.644 574.445 189.585 575.011 189.642C576.183 189.918 576.613 191.158 577.664 191.624C578.208 191.85 578.802 191.933 579.387 191.865C579.833 191.839 580.26 191.677 580.61 191.4C581.196 190.9 581.42 190.125 581.971 189.591C582.527 189.092 583.204 188.747 583.935 188.591C584.723 188.383 585.546 188.337 586.352 188.459C587.158 188.58 587.93 188.866 588.621 189.298C589.044 189.676 589.52 189.99 590.034 190.228C590.943 190.378 591.836 190.609 592.704 190.917C593.828 191.701 594.761 192.727 595.435 193.92C596.109 195.113 596.506 196.442 596.598 197.808C596.598 198.205 597.27 198.584 597.511 198.859C598.485 200.218 599.144 201.776 599.442 203.421C599.74 205.065 599.669 206.756 599.234 208.369C598.858 211.629 597.302 214.638 594.858 216.828C593.794 217.495 592.631 217.989 591.412 218.293C586.761 220.016 589.121 207.094 588.914 203.39" fill="#352E72"/>
<path d="M589.691 210.523C589.733 210.274 589.836 210.04 589.989 209.84C590.143 209.64 590.343 209.481 590.572 209.375C590.801 209.27 591.052 209.222 591.304 209.236C591.556 209.25 591.8 209.325 592.017 209.455C592.278 209.602 592.499 209.811 592.661 210.063C592.823 210.315 592.921 210.603 592.947 210.902C593.008 211.675 592.806 212.445 592.374 213.089C591.943 213.733 591.307 214.213 590.569 214.451C589.966 214.554 589.312 213.796 589.277 213.193" fill="#FC8975"/>
<path d="M584.815 218.844C585.268 218.809 585.717 218.74 586.159 218.638C587.531 218.331 588.751 217.55 589.605 216.432C589.928 216.035 590.121 215.548 590.156 215.037C590.156 214.982 590.134 214.929 590.096 214.891C590.057 214.852 590.004 214.83 589.949 214.83C589.895 214.83 589.842 214.852 589.803 214.891C589.764 214.929 589.743 214.982 589.743 215.037C589.702 215.464 589.541 215.87 589.278 216.208C588.488 217.248 587.351 217.97 586.073 218.241C584.816 218.502 583.527 218.577 582.248 218.465C582.221 218.46 582.192 218.461 582.165 218.468C582.138 218.476 582.113 218.489 582.092 218.507C582.07 218.525 582.053 218.548 582.041 218.573C582.03 218.599 582.024 218.627 582.024 218.655C582.024 218.709 582.043 218.761 582.077 218.802C582.112 218.843 582.161 218.87 582.214 218.879C583.081 218.926 583.95 218.915 584.815 218.844Z" fill="#081466"/>
<path d="M581.267 218.121C581.642 217.966 582.063 217.966 582.438 218.121C583.765 218.534 582.335 220.205 581.146 219.344C581.045 219.28 580.962 219.191 580.905 219.085C580.862 218.999 580.838 218.904 580.833 218.808C580.828 218.712 580.843 218.615 580.877 218.525C580.911 218.434 580.963 218.352 581.03 218.282C581.097 218.213 581.178 218.158 581.267 218.121Z" fill="#081466"/>
<path d="M593.566 204.958C593.272 201.914 592.165 199.004 590.362 196.534C588.036 193.622 584.935 191.245 581.954 191.245C580.683 191.189 579.413 191.382 578.216 191.813C581.334 192.536 584.166 194.174 586.347 196.516C588.791 199.069 590.192 202.442 590.276 205.975" fill="#75A1E9"/>
<path d="M586.09 209.765C586.062 210.837 586.347 211.893 586.911 212.805C587.474 213.717 588.292 214.445 589.263 214.9C590.234 215.355 591.316 215.517 592.377 215.366C593.439 215.215 594.433 214.757 595.239 214.05C596.044 213.343 596.626 212.416 596.913 211.383C597.2 210.349 597.179 209.255 596.854 208.234C596.528 207.212 595.912 206.308 595.08 205.631C594.249 204.955 593.238 204.535 592.171 204.424C591.421 204.375 590.669 204.474 589.957 204.716C589.245 204.958 588.588 205.338 588.023 205.834C587.459 206.33 586.997 206.932 586.665 207.607C586.334 208.281 586.138 209.015 586.09 209.765Z" fill="#75A1E9"/>
<path d="M588.674 210.282C588.691 210.977 588.908 211.653 589.299 212.228C589.691 212.803 590.239 213.253 590.88 213.524C591.52 213.796 592.225 213.876 592.911 213.757C593.596 213.638 594.232 213.324 594.744 212.852C595.255 212.381 595.619 211.772 595.793 211.098C595.968 210.425 595.944 209.715 595.725 209.055C595.506 208.395 595.102 207.812 594.56 207.375C594.018 206.939 593.362 206.668 592.671 206.595C591.654 206.562 590.665 206.93 589.917 207.62C589.17 208.31 588.723 209.266 588.674 210.282Z" fill="#A2C0ED"/>
<path d="M580.99 308.809H525.24L519.779 275.128C519.727 274.79 519.748 274.445 519.842 274.115C519.936 273.786 520.099 273.481 520.322 273.221C520.544 272.961 520.82 272.752 521.131 272.608C521.441 272.465 521.78 272.39 522.122 272.389H571.808C572.723 272.389 573.609 272.715 574.307 273.309C575.004 273.902 575.468 274.724 575.615 275.628L580.99 308.809Z" fill="#A2C0ED"/>
<path d="M579.371 308.809H523.638L518.177 275.128C518.122 274.791 518.141 274.446 518.233 274.117C518.324 273.787 518.486 273.482 518.707 273.222C518.929 272.961 519.204 272.752 519.514 272.608C519.824 272.464 520.161 272.39 520.503 272.389H570.189C571.105 272.389 571.99 272.715 572.688 273.309C573.385 273.902 573.849 274.724 573.996 275.628L579.371 308.809Z" fill="url(#paint20_linear)"/>
<path d="M551.652 289.704C551.031 286.861 548.878 284.862 546.811 285.224C544.743 285.586 543.589 288.17 544.192 291.013C544.795 293.856 546.966 295.871 549.033 295.509C551.1 295.148 552.22 292.546 551.652 289.704Z" fill="#ABD1FF"/>
<path style="mix-blend-mode:multiply" opacity="0.75" d="M610.45 245.841C607.883 240.362 601.147 238.053 593.619 235.366L591.551 260.795C592.653 270.35 594.38 279.822 596.72 289.152L573.41 306.776C573.122 306.981 572.809 307.149 572.48 307.276C572.152 307.276 569.895 306.001 568.707 306.208C567.518 306.415 566.123 306.484 566.123 306.914C566.123 307.345 567.966 307.397 567.966 307.81C567.966 308.224 566.726 309.051 566.243 309.051C564.879 308.929 563.507 308.929 562.143 309.051C561.936 309.292 562.849 310.773 563.78 311.6C564.651 312.2 565.67 312.551 566.725 312.617C568.877 312.569 571.006 312.174 573.031 311.445C573.41 311.17 574.375 310.636 575.305 310.119L576.098 311.583C576.098 311.583 607.866 309.051 617.445 304.692C617.686 289.1 617.531 255.075 610.45 245.841Z" fill="url(#paint21_linear)"/>
<path d="M575.357 305.536C574.428 306.117 573.462 306.635 572.463 307.087C571.258 306.592 569.987 306.279 568.69 306.156C567.484 306.346 566.106 306.415 566.106 306.776C566.106 307.138 567.949 307.19 567.949 307.534C567.949 307.879 566.709 308.585 566.227 308.585C564.862 308.481 563.491 308.481 562.126 308.585C561.919 308.792 562.833 310.067 563.763 310.773C564.664 311.287 565.673 311.582 566.709 311.635C568.847 311.594 570.969 311.258 573.014 310.636C573.859 310.119 577.494 308.516 577.494 308.516" fill="#FC8975"/>
<path d="M590.914 231.472C590.914 231.472 607.229 232.506 615.033 247.581C622.838 262.655 620.357 294.786 615.619 299.523C610.881 304.261 574.788 310.084 574.788 310.084L573.41 306.776L598.736 290.995C598.736 290.995 590.828 264.464 590.828 253.697" fill="url(#paint22_linear)"/>
<path d="M580.974 234.005C582.171 235.573 583.118 237.316 583.782 239.173C589.209 237.45 590.897 231.403 590.897 231.403L588.744 228.974C588.744 228.974 584.488 233.316 580.974 234.005Z" fill="url(#paint23_linear)"/>
<path d="M580.99 234.005C579.781 235.273 578.853 236.782 578.267 238.433C576.889 237.054 575.873 232.075 576.011 231.541C576.709 230.552 577.462 229.603 578.267 228.699C578.62 230.701 579.569 232.551 580.99 234.005Z" fill="url(#paint24_linear)"/>
<path d="M106.372 488.861C106.372 488.861 95.1045 492.306 95.1045 494.839C95.1045 496.321 111.661 495.924 112.66 494.925C114.262 493.34 111.42 488.499 111.42 488.499L106.372 488.861Z" fill="#352E73"/>
<path d="M106.372 481.677V489.119C106.553 489.519 106.846 489.858 107.217 490.093C107.587 490.329 108.018 490.451 108.457 490.446C108.981 490.447 109.5 490.327 109.971 490.098C110.443 489.868 110.856 489.533 111.179 489.119L111.351 479.85" fill="#FC8975"/>
<path d="M110.111 278.126C102.531 287.929 93.6411 315.649 93.6411 368.264C93.6411 405.459 105.701 483.33 105.701 483.33L112.592 483.916C134.627 344.696 127.184 346.091 132.697 321.386C136.143 305.881 129.131 266.79 129.131 266.79" fill="url(#paint25_linear)"/>
<path style="mix-blend-mode:multiply" opacity="0.35" d="M128.408 365.542C128.408 365.542 123.653 339.131 123.653 333.739C121.601 345.179 121.601 356.893 123.653 368.333C125.169 375.534 126.736 382.58 126.736 382.58L128.408 365.542Z" fill="url(#paint26_linear)"/>
<path d="M105.408 481.401V484.347C105.408 484.347 112.609 485.553 112.609 485.105C112.609 484.657 112.936 481.659 112.936 481.659L105.408 481.401Z" fill="#75A1E9"/>
<path d="M166.498 488.861C166.498 488.861 177.765 492.306 177.765 494.839C177.765 496.321 161.192 495.924 160.193 494.925C158.608 493.34 161.433 488.499 161.433 488.499L166.498 488.861Z" fill="#352E73"/>
<path d="M165.241 481.677L166.499 489.085C166.318 489.485 166.025 489.823 165.654 490.059C165.284 490.294 164.853 490.417 164.414 490.411C163.878 490.423 163.346 490.309 162.862 490.078C162.377 489.848 161.953 489.508 161.623 489.085L160.176 479.816" fill="#FC8975"/>
<path d="M146.772 273.767C154.232 286.327 167.446 312.22 167.446 364.835C167.446 402.031 166.464 483.365 166.464 483.365L160.555 483.968C141.518 430.819 125.668 363.095 121.947 323.643C120.448 307.827 123.308 266.79 123.308 266.79" fill="url(#paint27_linear)"/>
<path style="mix-blend-mode:multiply" opacity="0.35" d="M147.651 275.215C139.637 272.795 131.485 270.856 123.239 269.409C123.239 269.702 123.239 270.029 123.239 270.391L110.249 278.126C108.367 280.698 106.789 283.479 105.546 286.413C110.888 288.462 116.5 289.722 122.205 290.151C132.956 291.099 146.325 289.014 153.216 285.793C151.54 282.175 149.683 278.645 147.651 275.215Z" fill="url(#paint28_linear)"/>
<path d="M167.48 480.849V483.795C167.48 483.795 159.917 485.001 159.917 484.553C159.917 484.105 159.572 481.108 159.572 481.108L167.48 480.849Z" fill="#75A1E9"/>
<path d="M205.934 246.03L208.363 244.704C208.692 243.505 209.161 242.348 209.758 241.258C210.189 240.431 211.636 238.398 212.067 238.398C212.498 238.398 211.584 240.5 211.757 240.5C211.929 240.5 215.202 237.054 215.719 237.502C216.012 237.692 212.911 240.948 212.911 240.948C212.911 240.948 216.184 237.33 216.581 237.744C216.977 238.157 213.703 241.499 213.703 241.499C213.703 241.499 216.736 238.26 217.149 238.605C217.563 238.949 214.462 242.051 214.462 242.051C214.462 242.051 217.201 239.294 217.321 239.604C217.442 239.914 215.926 242.119 213.256 244.773C212.79 245.238 210.999 246.633 210.878 246.754L208.07 249.683" fill="#FC8975"/>
<path d="M211.601 240.913C211.69 241.742 211.65 242.579 211.48 243.394C211.191 244.172 210.711 244.865 210.085 245.41C210.06 245.431 210.044 245.46 210.041 245.493C210.037 245.525 210.047 245.557 210.068 245.582C210.088 245.607 210.118 245.623 210.15 245.627C210.183 245.63 210.215 245.62 210.24 245.599C211.006 245.146 211.572 244.42 211.825 243.567C212.006 242.68 212.006 241.766 211.825 240.879C211.825 240.758 211.601 240.793 211.601 240.879V240.913Z" fill="#CC6658"/>
<path d="M46.4361 199.549L44.7132 197.361C44.8972 196.112 44.9376 194.846 44.8338 193.588C44.7661 192.348 44.4312 191.137 43.8518 190.039C43.4556 189.866 43.4728 192.175 43.3005 192.089C43.1282 192.003 41.5777 187.644 40.8714 187.747C41.0973 189.225 41.4963 190.67 42.0601 192.054C42.0601 192.054 40.5096 187.437 39.9755 187.644C39.4414 187.851 41.1125 192.244 41.1125 192.244C41.1125 192.244 39.6309 188.075 39.183 188.247C38.735 188.419 40.2684 192.485 40.2684 192.485C40.2684 192.485 38.8384 188.867 38.5455 189.04C38.2527 189.212 38.8384 191.899 40.2684 195.414C40.5096 196.034 41.5949 198.015 41.6638 198.188L43.0593 201.995" fill="#FC8975"/>
<path d="M43.0756 192.502C42.5583 193.242 42.2004 194.081 42.0246 194.966C41.91 195.836 42.1319 196.717 42.6449 197.43C42.6449 197.55 42.9377 197.43 42.886 197.343C42.5324 196.609 42.3667 195.798 42.4036 194.983C42.5581 194.154 42.8492 193.356 43.265 192.623C43.2809 192.611 43.2937 192.596 43.3023 192.578C43.3109 192.561 43.3151 192.541 43.3144 192.522C43.3138 192.502 43.3084 192.483 43.2986 192.466C43.2889 192.449 43.2752 192.434 43.2586 192.424C43.2421 192.413 43.2232 192.407 43.2036 192.405C43.1841 192.404 43.1644 192.407 43.1464 192.415C43.1283 192.422 43.1125 192.434 43.1001 192.45C43.0878 192.465 43.0793 192.483 43.0756 192.502Z" fill="#CC6658"/>
<path d="M207.657 244.979C207.657 244.979 182.952 254.076 177.353 254.076C172.718 254.076 164.828 241.568 153.922 233.04C149.477 229.672 144.598 226.92 139.416 224.857L118.743 224.426C112.477 224.568 106.224 225.069 100.016 225.925C89.7648 227.32 80.1516 226.855 75.6723 224.857C67.0582 220.98 45.368 197.705 45.368 197.705C44.6467 197.615 43.9144 197.698 43.2314 197.946C42.5484 198.195 41.9344 198.602 41.4399 199.135C41.4399 200.289 52.5865 232.11 67.2821 241.637C78.0842 248.649 93.848 249.803 103.668 249.734V256.281C103.668 259.52 99.8088 275.438 104.374 279.987C108.561 284.19 124.566 284.707 130.802 284.707C140.071 284.707 149.546 283.243 151.907 279.987C153.095 278.367 152.923 271.114 152.561 264.481C159.969 269.15 166.654 273.785 175.216 273.785C191.221 273.785 210.034 248.752 210.034 248.752L207.657 244.979Z" fill="url(#paint29_linear)"/>
<path style="mix-blend-mode:multiply" opacity="0.75" d="M152.855 269.099L152.648 264.482L145.722 257.487L152.855 269.099Z" fill="url(#paint30_linear)"/>
<path style="mix-blend-mode:multiply" opacity="0.75" d="M103.753 249.734C103.753 248.907 105.149 240.982 105.149 239.707C103.082 244.187 99.9805 249.682 99.9805 249.682L103.753 249.734Z" fill="url(#paint31_linear)"/>
<path d="M135.919 187.782C141.742 191.417 140.743 198.825 143.103 203.46C144.826 206.819 147.462 209.644 147.72 213.624C147.979 217.966 142.345 219.999 139.313 219.533C133.386 218.62 128.304 221.635 122.326 220.912C118.26 220.412 119.793 218.379 117.158 215.261C115.603 213.317 114.689 210.94 114.539 208.456C114.406 205.991 114.586 203.519 115.073 201.099" fill="#F42A73"/>
<path d="M125.169 212.952L123.997 223.616L118.829 224.426C118.829 224.426 122.429 230.938 128.183 230.938C133.938 230.938 139.433 224.857 139.433 224.857L133.834 223.134L131.698 208.145" fill="#FC8975"/>
<path d="M116.675 195.552C116.156 199.108 116.196 202.724 116.795 206.268C117.108 208.035 117.827 209.706 118.894 211.15C119.961 212.594 121.348 213.771 122.946 214.589C124.462 215.182 126.073 215.497 127.701 215.519C130.434 215.828 133.189 215.17 135.488 213.659C136.702 212.603 137.64 211.266 138.219 209.764C138.799 208.263 139.003 206.643 138.813 205.045C138.419 201.883 137.517 198.805 136.142 195.931C134.994 193.197 133.845 190.458 132.697 187.713" fill="#FC8975"/>
<path d="M103.391 209.765C102.079 211 101.146 212.584 100.704 214.33C100.644 215.22 100.857 216.106 101.316 216.87C101.775 217.634 102.457 218.239 103.271 218.603C104.647 219.089 106.127 219.202 107.561 218.93C109.222 218.775 110.897 218.844 112.54 219.137C113.935 219.413 115.262 219.912 116.64 220.309C118.643 220.94 120.76 221.122 122.842 220.843C123.022 220.835 123.199 220.786 123.357 220.7C123.515 220.613 123.652 220.491 123.755 220.343C123.816 220.153 123.832 219.952 123.802 219.754C123.772 219.557 123.697 219.369 123.583 219.206C122.478 216.424 122.11 213.403 122.515 210.437C122.614 208.906 122.862 207.389 123.255 205.906C123.629 204.678 124.095 203.48 124.651 202.322C125.667 200.1 126.925 197.964 127.89 195.724C128.855 193.484 129.406 190.021 132.541 190.556C134.557 190.848 135.418 194.105 136.762 196.086C138.744 193.812 140.983 192.433 136.762 187.041C134.643 184.353 131.025 184.491 127.821 185.077C126.098 184.956 126.098 184.25 124.375 184.129C121.31 184.084 118.294 184.906 115.676 186.5C113.058 188.094 110.943 190.396 109.576 193.14C106.648 199.066 107.319 204.855 103.391 209.765Z" fill="#F42A73"/>
<path d="M123.6 211.746C123.148 211.712 122.699 211.643 122.257 211.539C120.884 211.234 119.664 210.453 118.811 209.334C118.492 208.928 118.3 208.436 118.26 207.921C118.26 207.894 118.265 207.867 118.276 207.842C118.286 207.817 118.301 207.794 118.32 207.775C118.34 207.756 118.362 207.741 118.387 207.73C118.413 207.72 118.439 207.715 118.467 207.715C118.494 207.715 118.521 207.72 118.546 207.73C118.571 207.741 118.594 207.756 118.613 207.775C118.632 207.794 118.647 207.817 118.658 207.842C118.668 207.867 118.673 207.894 118.673 207.921C118.713 208.351 118.881 208.76 119.156 209.093C119.942 210.128 121.072 210.849 122.343 211.126C123.607 211.381 124.901 211.45 126.185 211.332C126.24 211.336 126.293 211.358 126.334 211.396C126.374 211.434 126.401 211.484 126.409 211.539C126.409 211.566 126.403 211.593 126.393 211.618C126.383 211.643 126.367 211.666 126.348 211.685C126.329 211.705 126.306 211.72 126.281 211.73C126.256 211.741 126.229 211.746 126.202 211.746C125.336 211.815 124.466 211.815 123.6 211.746Z" fill="#081466"/>
<path d="M127.133 210.936C126.756 210.79 126.338 210.79 125.961 210.936C124.652 211.367 126.082 213.038 127.271 212.177C127.372 212.113 127.455 212.024 127.512 211.918C127.555 211.829 127.578 211.733 127.582 211.634C127.586 211.536 127.57 211.438 127.534 211.346C127.499 211.254 127.445 211.17 127.376 211.1C127.307 211.029 127.224 210.974 127.133 210.936Z" fill="#081466"/>
<path d="M114.797 197.774C115.119 194.725 116.249 191.816 118.071 189.349C120.396 186.455 123.515 184.06 126.495 184.06C127.768 184.006 129.039 184.205 130.234 184.646C127.114 185.365 124.281 187.004 122.102 189.349C119.658 191.895 118.257 195.263 118.174 198.79" fill="#081466"/>
<path d="M122.325 202.563C122.353 203.635 122.068 204.692 121.504 205.604C120.941 206.516 120.124 207.244 119.153 207.699C118.182 208.153 117.099 208.315 116.038 208.164C114.976 208.013 113.982 207.556 113.176 206.849C112.371 206.141 111.789 205.214 111.502 204.181C111.215 203.148 111.236 202.054 111.562 201.032C111.887 200.011 112.503 199.106 113.335 198.43C114.167 197.753 115.178 197.334 116.244 197.223C117.758 197.128 119.247 197.637 120.387 198.638C121.527 199.639 122.224 201.05 122.325 202.563Z" fill="#081466"/>
<path d="M119.794 203.132C119.904 203.63 119.908 204.146 119.805 204.645C119.702 205.145 119.495 205.617 119.196 206.031C118.898 206.445 118.516 206.791 118.074 207.047C117.633 207.302 117.142 207.461 116.635 207.514C116.127 207.567 115.614 207.511 115.13 207.352C114.645 207.192 114.2 206.932 113.823 206.588C113.446 206.244 113.146 205.824 112.943 205.356C112.74 204.888 112.638 204.383 112.644 203.873C112.534 203.375 112.53 202.859 112.632 202.359C112.735 201.859 112.943 201.387 113.241 200.973C113.54 200.559 113.922 200.213 114.364 199.958C114.805 199.702 115.296 199.543 115.803 199.49C116.311 199.438 116.823 199.493 117.308 199.653C117.793 199.812 118.238 200.073 118.615 200.417C118.992 200.76 119.291 201.18 119.495 201.648C119.698 202.116 119.8 202.622 119.794 203.132Z" fill="#2D4CBA"/>
<path d="M460.239 60.9139L451.625 64.5318C451.406 64.6254 451.213 64.7732 451.066 64.9613C450.919 65.1493 450.822 65.3716 450.784 65.6073C450.747 65.8431 450.769 66.0845 450.85 66.3092C450.931 66.5338 451.067 66.7344 451.246 66.892L457.466 72.1983C457.646 72.3515 457.861 72.4571 458.093 72.5053C458.324 72.5535 458.564 72.5429 458.791 72.4743C459.017 72.4057 459.223 72.2814 459.388 72.1128C459.554 71.9442 459.675 71.7366 459.74 71.5092L462.186 62.5333C462.255 62.2761 462.248 62.0046 462.167 61.7509C462.086 61.4973 461.935 61.2721 461.73 61.1018C461.525 60.9316 461.276 60.8234 461.012 60.7901C460.748 60.7568 460.48 60.7998 460.239 60.9139V60.9139Z" stroke="#CFE0F5" stroke-miterlimit="10"/>
<path d="M88.1617 173.947L90.6942 182.975C90.7578 183.206 90.8797 183.416 91.0482 183.586C91.2166 183.756 91.426 183.88 91.6561 183.946C91.8862 184.011 92.1293 184.017 92.3621 183.962C92.595 183.906 92.8096 183.792 92.9855 183.63L99.0498 178.134C99.2241 177.973 99.3552 177.772 99.4311 177.547C99.507 177.323 99.5251 177.083 99.4839 176.849C99.4428 176.616 99.3436 176.397 99.1955 176.212C99.0473 176.027 98.8551 175.882 98.6364 175.791L90.0223 172.345C89.7872 172.256 89.5322 172.231 89.2843 172.274C89.0365 172.318 88.8049 172.427 88.6143 172.592C88.4236 172.756 88.2809 172.968 88.2012 173.207C88.1215 173.446 88.1079 173.702 88.1617 173.947V173.947Z" stroke="#CFE0F5" stroke-miterlimit="10"/>
<path d="M638.739 282.381L645.389 275.766C645.557 275.597 645.679 275.388 645.744 275.159C645.809 274.93 645.815 274.688 645.762 274.456C645.709 274.224 645.597 274.009 645.439 273.832C645.28 273.654 645.08 273.519 644.855 273.44L637.085 270.839C636.861 270.764 636.622 270.747 636.39 270.79C636.158 270.833 635.941 270.934 635.758 271.084C635.576 271.233 635.434 271.427 635.347 271.646C635.26 271.865 635.229 272.103 635.259 272.337L636.362 281.554C636.391 281.816 636.494 282.064 636.658 282.27C636.822 282.475 637.041 282.63 637.29 282.717C637.539 282.803 637.807 282.818 638.063 282.758C638.319 282.699 638.554 282.568 638.739 282.381V282.381Z" stroke="#CFE0F5" stroke-miterlimit="10"/>
<path d="M607.591 179.839L610.037 188.901C610.103 189.13 610.225 189.339 610.393 189.508C610.561 189.677 610.769 189.801 610.998 189.868C611.226 189.935 611.468 189.943 611.701 189.892C611.934 189.84 612.149 189.731 612.328 189.573L618.444 184.129C618.619 183.972 618.752 183.773 618.829 183.55C618.907 183.328 618.926 183.089 618.887 182.857C618.847 182.625 618.75 182.407 618.603 182.222C618.456 182.038 618.265 181.894 618.048 181.803L609.434 178.185C609.195 178.102 608.938 178.084 608.69 178.133C608.442 178.183 608.211 178.298 608.023 178.467C607.835 178.636 607.695 178.853 607.619 179.094C607.543 179.335 607.533 179.593 607.591 179.839V179.839Z" stroke="#CFE0F5" stroke-miterlimit="10"/>
<path d="M578.98 161.282L574.723 164.535L577.976 168.792L582.233 165.539L578.98 161.282Z" fill="#CFE0F5"/>
<path d="M540.354 124.467L535.001 124.706L535.239 130.058L540.592 129.82L540.354 124.467Z" fill="#CFE0F5"/>
<path d="M195.915 193.951L190.923 195.896L192.868 200.889L197.861 198.943L195.915 193.951Z" fill="#CFE0F5"/>
<path d="M245.995 65.6827L241.012 63.7538L239.083 68.7367L244.066 70.6655L245.995 65.6827Z" fill="#CFE0F5"/>
<path d="M38.3434 330.939L32.9907 331.177L33.2291 336.53L38.5818 336.292L38.3434 330.939Z" fill="#CFE0F5"/>
<defs>
<linearGradient id="paint0_linear" x1="349.823" y1="522.714" x2="349.823" y2="464.035" gradientUnits="userSpaceOnUse">
<stop offset="0.01" stop-color="#FCF5F1"/>
<stop offset="0.48" stop-color="#FCEFED"/>
<stop offset="1" stop-color="#FCE1E3"/>
</linearGradient>
<linearGradient id="paint1_linear" x1="575.598" y1="464.035" x2="575.598" y2="248.356" gradientUnits="userSpaceOnUse">
<stop stop-color="#466DE5"/>
<stop offset="1" stop-color="#78BFFF"/>
</linearGradient>
<linearGradient id="paint2_linear" x1="61077.3" y1="58443.6" x2="61077.3" y2="45308.5" gradientUnits="userSpaceOnUse">
<stop stop-color="#466DE5"/>
<stop offset="1" stop-color="#78BFFF"/>
</linearGradient>
<linearGradient id="paint3_linear" x1="27738.1" y1="68714.3" x2="20871.5" y2="66232.5" gradientUnits="userSpaceOnUse">
<stop stop-color="#466DE5"/>
<stop offset="1" stop-color="#78BFFF"/>
</linearGradient>
<linearGradient id="paint4_linear" x1="42501.3" y1="71959.3" x2="42501.3" y2="51989.4" gradientUnits="userSpaceOnUse">
<stop stop-color="#466DE5"/>
<stop offset="1" stop-color="#78BFFF"/>
</linearGradient>
<linearGradient id="paint5_linear" x1="36625.9" y1="47187.4" x2="37112.9" y2="39894.6" gradientUnits="userSpaceOnUse">
<stop stop-color="#466DE5"/>
<stop offset="1" stop-color="#78BFFF"/>
</linearGradient>
<linearGradient id="paint6_linear" x1="19311" y1="25113.8" x2="20465.2" y2="23092.7" gradientUnits="userSpaceOnUse">
<stop stop-color="#466DE5"/>
<stop offset="1" stop-color="#78BFFF"/>
</linearGradient>
<linearGradient id="paint7_linear" x1="281.58" y1="363.051" x2="277.514" y2="184.176" gradientUnits="userSpaceOnUse">
<stop stop-color="#29225E"/>
<stop offset="1" stop-color="#3F368C"/>
</linearGradient>
<linearGradient id="paint8_linear" x1="16917.5" y1="59230.8" x2="16917.5" y2="40679.2" gradientUnits="userSpaceOnUse">
<stop stop-color="#29225E"/>
<stop offset="1" stop-color="#3F368C"/>
</linearGradient>
<linearGradient id="paint9_linear" x1="291.73" y1="144.78" x2="373.426" y2="105.776" gradientUnits="userSpaceOnUse">
<stop stop-color="#FCC73C"/>
<stop offset="1" stop-color="#FC7A3C"/>
</linearGradient>
<linearGradient id="paint10_linear" x1="475.434" y1="527.934" x2="262.942" y2="159.907" gradientUnits="userSpaceOnUse">
<stop stop-color="#B3D3F4"/>
<stop offset="1" stop-color="#D3DCED"/>
</linearGradient>
<linearGradient id="paint11_linear" x1="381.11" y1="452.82" x2="381.11" y2="148.571" gradientUnits="userSpaceOnUse">
<stop stop-color="#FFD5A7"/>
<stop offset="0.37" stop-color="#FFD7AA"/>
<stop offset="0.65" stop-color="#FFDEB4"/>
<stop offset="0.91" stop-color="#FFE9C4"/>
<stop offset="1" stop-color="#FFEECC"/>
</linearGradient>
<linearGradient id="paint12_linear" x1="475.434" y1="527.934" x2="286.803" y2="201.22" gradientUnits="userSpaceOnUse">
<stop stop-color="#CDE8FF"/>
<stop offset="1" stop-color="#EEE7E9"/>
</linearGradient>
<linearGradient id="paint13_linear" x1="200120" y1="70535.6" x2="187984" y2="42008.6" gradientUnits="userSpaceOnUse">
<stop stop-color="#CDE8FF"/>
<stop offset="1" stop-color="#EEE7E9"/>
</linearGradient>
<linearGradient id="paint14_linear" x1="2457.16" y1="33436.1" x2="37.7978" y2="30132.8" gradientUnits="userSpaceOnUse">
<stop stop-color="#466DE5"/>
<stop offset="1" stop-color="#78BFFF"/>
</linearGradient>
<linearGradient id="paint15_linear" x1="19636.4" y1="11684.2" x2="18080" y2="12833.7" gradientUnits="userSpaceOnUse">
<stop stop-color="#FCC73C"/>
<stop offset="1" stop-color="#FC7A3C"/>
</linearGradient>
<linearGradient id="paint16_linear" x1="27416.2" y1="67675.5" x2="27416.2" y2="51126.2" gradientUnits="userSpaceOnUse">
<stop stop-color="#29225E"/>
<stop offset="1" stop-color="#3F368C"/>
</linearGradient>
<linearGradient id="paint17_linear" x1="27633" y1="67675.5" x2="27633" y2="51126.2" gradientUnits="userSpaceOnUse">
<stop stop-color="#29225E"/>
<stop offset="1" stop-color="#3F368C"/>
</linearGradient>
<linearGradient id="paint18_linear" x1="72120.6" y1="32689.1" x2="72120.6" y2="37295.1" gradientUnits="userSpaceOnUse">
<stop stop-color="#FCC73C"/>
<stop offset="1" stop-color="#FC7A3C"/>
</linearGradient>
<linearGradient id="paint19_linear" x1="1137.98" y1="3035.26" x2="1138.84" y2="3035.26" gradientUnits="userSpaceOnUse">
<stop stop-color="#FCC73C"/>
<stop offset="1" stop-color="#FC7A3C"/>
</linearGradient>
<linearGradient id="paint20_linear" x1="572.652" y1="315.528" x2="524.517" y2="267.393" gradientUnits="userSpaceOnUse">
<stop stop-color="#5789EE"/>
<stop offset="1" stop-color="#78BFFF"/>
</linearGradient>
<linearGradient id="paint21_linear" x1="33392.3" y1="21568.2" x2="35173.2" y2="21568.2" gradientUnits="userSpaceOnUse">
<stop stop-color="#FCC73C"/>
<stop offset="1" stop-color="#FC7A3C"/>
</linearGradient>
<linearGradient id="paint22_linear" x1="29157.9" y1="21231.9" x2="29157.9" y2="23778.1" gradientUnits="userSpaceOnUse">
<stop stop-color="#FCC73C"/>
<stop offset="1" stop-color="#FC7A3C"/>
</linearGradient>
<linearGradient id="paint23_linear" x1="585.935" y1="239.242" x2="585.935" y2="228.905" gradientUnits="userSpaceOnUse">
<stop stop-color="#FCAE3C"/>
<stop offset="1" stop-color="#FC7A3C"/>
</linearGradient>
<linearGradient id="paint24_linear" x1="3582.11" y1="2715.62" x2="3582.11" y2="2660.23" gradientUnits="userSpaceOnUse">
<stop stop-color="#FCAE3C"/>
<stop offset="1" stop-color="#FC7A3C"/>
</linearGradient>
<linearGradient id="paint25_linear" x1="13393.7" y1="86678.6" x2="13393.7" y2="59314.2" gradientUnits="userSpaceOnUse">
<stop stop-color="#29225E"/>
<stop offset="1" stop-color="#3F368C"/>
</linearGradient>
<linearGradient id="paint26_linear" x1="2256.44" y1="16898.9" x2="2256.44" y2="15514.2" gradientUnits="userSpaceOnUse">
<stop stop-color="#29225E"/>
<stop offset="1" stop-color="#3F368C"/>
</linearGradient>
<linearGradient id="paint27_linear" x1="16214.5" y1="86699.2" x2="16214.5" y2="59328.3" gradientUnits="userSpaceOnUse">
<stop stop-color="#29225E"/>
<stop offset="1" stop-color="#3F368C"/>
</linearGradient>
<linearGradient id="paint28_linear" x1="16384.9" y1="6260.02" x2="16384.9" y2="6004.78" gradientUnits="userSpaceOnUse">
<stop stop-color="#29225E"/>
<stop offset="1" stop-color="#3F368C"/>
</linearGradient>
<linearGradient id="paint29_linear" x1="57279.3" y1="21767.3" x2="57279.3" y2="24838" gradientUnits="userSpaceOnUse">
<stop stop-color="#FCC73C"/>
<stop offset="1" stop-color="#FC7A3C"/>
</linearGradient>
<linearGradient id="paint30_linear" x1="2664.34" y1="3377.34" x2="2664.34" y2="3432.04" gradientUnits="userSpaceOnUse">
<stop stop-color="#FCC73C"/>
<stop offset="1" stop-color="#FC7A3C"/>
</linearGradient>
<linearGradient id="paint31_linear" x1="1776.98" y1="2838.03" x2="1792.64" y2="2838.03" gradientUnits="userSpaceOnUse">
<stop stop-color="#FCC73C"/>
<stop offset="1" stop-color="#FC7A3C"/>
</linearGradient>
</defs>
</svg>
