<svg width="450" height="301" viewBox="0 0 450 301" fill="none" xmlns="http://www.w3.org/2000/svg">
<g clip-path="url(#clip0)">
<g opacity="0.5">
<path opacity="0.5" d="M421.927 266.107L421.333 265.788L32.4327 265.619C19.1684 257.312 8.75564 244.239 3.41288 229.176C0.437532 220.785 -0.98379 211.566 0.931242 202.844C6.46117 177.657 36.5663 165.437 44.244 140.858C48.8965 125.969 44.2701 109.855 44.5195 94.2096C44.7981 77.2016 51.6067 59.7447 64.8922 49.7026C90.8689 30.0624 128.518 44.8064 158.808 33.5721C178.859 26.1319 194.124 7.77539 214.697 2.05327C232.069 -2.7743 251.778 2.80249 264.346 16.1064C280.048 32.7216 285.079 59.7798 304.815 70.8804C325.037 82.2551 354.912 72.9903 369.354 91.5226C384.497 110.951 367.916 143.716 382.816 163.345C387.675 169.752 395.063 173.413 401.49 178.117C427.481 197.144 436.631 236.954 421.927 266.107Z" fill="url(#paint0_linear)"/>
</g>
<g opacity="0.5">
<path opacity="0.5" d="M442.813 265.797L53.9123 265.628C40.648 257.322 30.2353 244.248 24.8925 229.185C21.9171 220.794 20.4958 211.575 22.4109 202.854C27.9408 177.666 58.0459 165.447 65.7236 140.867C70.3761 125.979 65.7497 109.865 65.9991 94.2189C66.2777 77.2109 73.0863 59.754 86.3719 49.7119C112.349 30.0717 149.997 44.8156 180.288 33.5814C200.339 26.1412 215.604 7.7847 236.176 2.06258C253.548 -2.76499 273.258 2.81177 285.825 16.1157C301.528 32.7309 306.558 59.7891 326.294 70.8897C346.517 82.2644 376.392 72.9996 390.833 91.5319C405.976 110.961 389.396 143.726 404.295 163.354C409.155 169.761 416.542 173.422 422.97 178.127C448.961 197.153 457.516 236.646 442.813 265.797Z" fill="url(#paint1_linear)"/>
</g>
<g opacity="0.5">
<path opacity="0.5" d="M32.2963 265.624L442.39 265.803C442.39 265.803 404.522 300.776 233.43 300.701C62.3381 300.627 32.2963 265.624 32.2963 265.624Z" fill="url(#paint2_linear)"/>
</g>
<path d="M101.678 164.14C100.443 175.337 100.979 189.506 92.1392 194.515C88.0049 196.854 83.0576 196.203 78.2092 195.552C72.3512 194.765 66.6386 193.979 62.6767 198.466C59.3767 202.191 58.7278 208.514 54.866 211.45C49.7244 215.371 42.9937 210.77 36.8161 210.629C26.8202 210.405 19.4651 222.763 19.5586 234.205C19.6547 245.647 25.4024 255.798 30.5675 265.591L72.0006 265.609C74.5835 259.132 80.5925 254.504 86.8488 254.498C90.5383 254.5 94.7465 255.755 97.5349 253.006C100.607 249.971 99.6991 244.299 101.279 240.019C103.514 233.933 110.126 231.967 115.871 231.317C121.608 230.669 128.064 230.216 131.897 225.278C135.561 220.559 135.407 213.56 136.219 207.311C136.918 201.948 138.563 196.569 141.821 192.624C145.071 188.679 150.148 186.418 154.697 187.926C163.121 190.696 165.121 203.002 170.101 211.257C173.881 217.525 180.043 221.84 186.64 222.844C191.588 223.595 196.87 222.613 201.391 225.031C209.21 229.218 210.933 241.116 216.944 248.199C222.835 255.143 233.15 256.41 240.197 251.057C242.864 249.032 245.133 246.168 248.191 245.08C255.522 242.47 261.874 250.912 268.655 255.042C275.222 259.032 283.561 258.89 290.025 254.676C298.282 249.293 303.369 237.991 312.548 235.171C315.565 234.246 318.841 234.313 322.076 234.379C327.051 234.482 331.931 234.584 335.633 231.079C337.753 229.079 339.069 226.158 339.91 223.164C343.02 212.097 340.245 199.717 343.37 188.659C346.816 176.461 358.158 168.475 369.184 168.692C368.091 167.324 366.896 166.061 365.603 164.922C357.6 157.83 345.452 156.417 337.387 163.42C328.397 171.237 325.114 187.789 314.051 190.331C308.97 191.502 303.953 189.143 298.97 186.786C293.584 184.236 288.237 181.687 282.893 183.595C274.517 186.586 271.79 198.329 270.287 208.216C268.775 218.111 265.728 229.852 257.239 232.388C250.52 234.396 243.817 229.33 238.716 223.933C233.62 218.536 228.525 212.201 221.686 210.856C219.517 210.43 217.281 210.541 215.057 210.65C211.989 210.801 208.941 210.953 206.11 209.702C199.89 206.957 197.206 198.606 196.15 191.068C195.093 183.533 194.756 175.345 190.634 169.338C184.254 160.033 171.713 160.231 161.985 164.238C159.341 165.329 156.617 166.654 153.824 166.27C151.258 165.919 148.997 164.152 147.071 162.173C138.842 153.738 133.046 139.763 122.027 138.822C121.672 138.792 121.317 138.777 120.968 138.777C110.481 138.772 103.024 151.98 101.678 164.14Z" fill="url(#paint3_linear)"/>
<path d="M343.37 188.637C340.244 199.695 343.02 212.074 339.909 223.141C339.069 226.135 337.752 229.056 335.633 231.056C331.931 234.561 327.05 234.459 322.076 234.356C318.841 234.29 315.565 234.223 312.548 235.148C303.368 237.968 298.281 249.269 290.025 254.653C283.561 258.866 275.222 259.009 268.654 255.019C261.874 250.889 255.521 242.447 248.191 245.057C245.133 246.145 242.863 249.009 240.197 251.034C233.15 256.387 222.835 255.12 216.944 248.176C210.933 241.093 209.209 229.195 201.391 225.009C196.87 222.59 191.587 223.572 186.64 222.821C180.043 221.818 173.88 217.502 170.101 211.234C165.121 202.98 163.121 190.674 154.696 187.904C150.148 186.396 145.07 188.656 141.82 192.601C138.563 196.546 136.918 201.926 136.219 207.288C135.406 213.537 135.561 220.537 131.897 225.255C128.063 230.193 121.608 230.646 115.871 231.294C110.126 231.944 103.513 233.91 101.279 239.996C99.6989 244.276 100.607 249.948 97.5347 252.983C94.7463 255.732 90.5382 254.477 86.8487 254.475C80.5923 254.481 74.5834 259.109 72.0005 265.585L416.203 265.735C421.481 259.659 423.027 249.836 420.322 241.811C417.503 233.469 410.481 227.354 402.789 225.788C397.096 224.622 390.746 225.588 385.963 221.85C378.991 216.403 379.493 204.798 378.729 195.17C377.957 185.494 374.883 175.743 369.184 168.67C369.041 168.667 368.898 168.665 368.755 168.665C357.865 168.66 346.771 176.597 343.37 188.637Z" fill="url(#paint4_linear)"/>
<path d="M33.7666 240.548C35.3815 236.025 39.2663 232.814 43.5088 232.419C48.8339 231.923 55.7856 235.413 59.2006 228.787C61.4254 224.47 61.1375 219.062 63.0702 214.586C67.7441 203.76 80.3916 207.39 88.6844 207.13C94.8857 206.937 99.9139 203.923 103.213 197.864C106.15 192.469 107.285 186.239 108.449 180.112C109.692 173.565 111.083 166.719 114.934 161.461C118.264 156.914 123.159 153.78 128.443 154.797C128.894 154.883 128.706 155.668 128.259 155.582C122.684 154.51 117.631 158.436 114.495 163.432C111.285 168.544 110.147 174.98 109.004 181.017C107.198 190.56 104.642 202.307 95.8518 206.417C86.656 210.718 75.3853 203.698 66.8601 210.689C62.923 213.918 62.4834 219.408 61.3904 224.369C60.5067 228.382 58.8613 232.223 55.0976 233.393C52.4638 234.212 49.6717 233.586 47.0132 233.319C43.9532 233.014 41.0225 233.291 38.4112 235.305C32.9078 239.551 32.1985 248.39 36.6191 253.937C36.9261 254.324 36.4283 254.904 36.1191 254.517C33.1434 250.782 32.0722 245.295 33.7666 240.548Z" fill="#51ADC6"/>
<path d="M51.3041 245.424C57.2185 242.846 64.7903 244.329 68.7402 237.489C71.6276 232.488 72.2959 226.312 76.8896 222.716C80.803 219.654 85.9119 219.077 90.2529 221.223C90.6731 221.431 90.3163 222.135 89.9003 221.93C85.2394 219.627 79.5181 220.753 75.8041 224.744C72.2742 228.535 71.7171 234.349 68.8851 238.668C65.9227 243.186 61.0701 243.914 56.5275 244.794C53.9383 245.295 51.2337 245.917 49.0335 247.659C46.5411 249.632 44.8663 253.413 46.1796 256.781C46.3642 257.254 45.7504 257.665 45.5637 257.188C43.5516 252.027 47.2523 247.192 51.3041 245.424Z" fill="#51ADC6"/>
<path d="M101.667 228.448C107.368 225.479 114.253 225.545 119.231 220.811C128.945 211.573 126.459 194.593 134.191 183.911C137.726 179.028 143.578 175.731 149.061 178.005C149.489 178.183 149.308 178.97 148.877 178.791C143.458 176.544 137.75 179.994 134.406 184.91C130.747 190.29 129.527 197.261 127.985 203.689C126.709 209.008 125.107 214.44 122.001 218.76C118.569 223.533 113.724 225.25 108.673 226.722C102.665 228.473 93.3357 232.287 95.1301 241.51C95.2294 242.018 94.542 242.227 94.4426 241.714C93.2793 235.737 97.2048 230.774 101.667 228.448Z" fill="#51ADC6"/>
<path d="M164.227 173.932C169.501 170.683 175.827 173.766 179.44 178.677C184.084 184.992 184.817 193.683 186.93 201.274C188.031 205.23 189.54 209.192 191.989 212.314C194.569 215.605 197.933 217.181 201.668 217.951C207.808 219.215 214.494 219.06 218.724 225.184C221.059 228.565 222.246 232.714 224.052 236.449C226.181 240.848 230.154 245.524 234.959 244.219C235.403 244.098 235.584 244.886 235.137 245.007C228.627 246.775 224.377 239.295 221.998 233.558C220.515 229.979 219.07 226.134 216.359 223.522C213.424 220.697 209.519 220.012 205.841 219.453C202.809 218.992 199.708 218.623 196.856 217.274C194.093 215.967 191.856 213.719 190.135 210.944C186.074 204.394 185.284 196.248 183.169 188.792C181.822 184.04 179.834 179.355 176.217 176.35C172.847 173.55 168.406 172.282 164.583 174.637C164.181 174.885 163.824 174.181 164.227 173.932Z" fill="#51ADC6"/>
<path d="M269.233 241.495C271.74 244.534 275.615 244.734 278.887 243.332C282.593 241.742 285.188 237.967 287.335 234.337C290.897 228.318 294.392 220.732 301.191 219.127C308.148 217.485 315.846 222.748 322.307 218.025C329.014 213.123 329.564 202.916 330.815 194.857C332.026 187.058 335.112 177.718 342.845 176.151C343.292 176.061 343.476 176.848 343.024 176.939C334.319 178.702 332.185 189.984 331.031 198.361C330.009 205.78 328.58 214.647 322.45 218.886C315.865 223.439 308.354 218.27 301.37 219.915C293.397 221.793 290.315 231.815 285.686 238.263C283.417 241.424 280.562 244.04 276.969 244.777C273.965 245.392 270.875 244.67 268.734 242.074C268.419 241.694 268.919 241.113 269.233 241.495Z" fill="#51ADC6"/>
<path d="M366.585 180.549C361.188 183.831 356.813 189.012 354.036 195.239C351.035 201.968 350.307 209.156 351.182 216.584C352.109 224.463 354.058 235.111 347.33 240.567C341.063 245.648 332.772 242.729 325.717 243.539C319.832 244.215 312.767 248.915 313.89 256.793C313.958 257.275 314.599 257.075 314.531 256.596C313.939 252.442 316.227 248.756 319.193 246.626C322.404 244.317 326.319 244.066 330.01 244.149C336.014 244.285 342.929 245.379 348.055 240.892C352.908 236.644 353.265 229.06 352.597 222.682C352.16 218.502 351.375 214.349 351.42 210.119C351.457 206.471 352.07 202.844 353.161 199.418C355.631 191.667 360.543 185.082 366.913 181.209C367.292 180.979 366.962 180.32 366.585 180.549Z" fill="#51ADC6"/>
<path d="M373.853 218.555C364.783 222.212 370.179 236.227 367.886 243.802C365.95 250.193 360.495 249.787 355.652 250.784C352.252 251.483 348.419 253.99 348.839 258.555C348.883 259.036 349.547 259.039 349.502 258.551C348.889 251.877 356.3 251.528 360.248 250.897C363.645 250.353 366.657 248.847 368.144 245.105C369.721 241.135 369.21 236.755 369.002 232.549C368.76 227.65 369.273 221.204 374.025 219.288C374.426 219.126 374.256 218.392 373.853 218.555Z" fill="#51ADC6"/>
<path d="M189.117 236.584C184.918 235.066 180.555 235.991 176.245 235.791C173.741 235.673 171.248 235.075 169.224 233.294C167.677 231.932 166.505 230.108 165.373 228.312C163.629 225.545 161.835 222.346 158.912 221.106C155.349 219.596 151.875 221.806 149.529 224.844C146.694 228.516 145.532 233.261 143.434 237.443C142.297 239.708 140.854 241.81 138.843 243.119C136.509 244.637 133.766 244.897 131.136 244.722C125.843 244.373 120.149 241.894 114.95 244.199C111.347 245.797 108.369 250.055 109.407 254.621C109.515 255.095 110.156 254.898 110.048 254.425C108.614 248.116 114.594 244.254 119.223 244.043C123.7 243.84 128.046 245.538 132.517 245.532C136.146 245.527 139.581 244.271 142.021 241.081C144.447 237.908 145.635 233.84 147.261 230.128C149.144 225.827 152.826 220.466 157.617 221.48C161.029 222.203 163.039 225.909 164.918 228.882C166.662 231.64 168.551 234.305 171.413 235.555C175.068 237.151 179.116 236.441 182.924 236.427C187.589 236.411 191.847 237.945 195.357 241.557C198.767 245.066 200.972 249.922 201.287 255.177C201.316 255.662 201.98 255.663 201.951 255.174C201.445 246.726 196.174 239.134 189.117 236.584Z" fill="#51ADC6"/>
<path d="M184.546 243.439L184.55 233.638C184.552 228.151 188.861 223.699 194.166 223.701L207.047 223.707C212.359 223.709 216.658 228.165 216.656 233.652L216.652 243.453C216.65 248.946 212.348 253.391 207.036 253.388L194.155 253.383C188.849 253.38 184.544 248.932 184.546 243.439ZM224.518 243.456L224.522 233.655C224.524 228.169 228.826 223.716 234.138 223.718L247.021 223.724C252.325 223.726 256.63 228.183 256.628 233.669L256.625 243.47C256.623 248.964 252.314 253.408 247.009 253.406L234.127 253.4C228.815 253.398 224.516 248.95 224.518 243.456ZM266.122 243.474L266.126 233.674C266.128 228.187 270.431 223.734 275.742 223.736L288.624 223.742C293.928 223.744 298.234 228.201 298.232 233.688L298.228 243.488C298.226 248.982 293.917 253.426 288.612 253.424L275.731 253.418C270.42 253.416 266.12 248.968 266.122 243.474ZM184.987 201.912L184.991 192.111C184.993 186.625 189.295 182.173 194.606 182.176L207.488 182.181C212.793 182.184 217.098 186.639 217.096 192.125L217.092 201.926C217.09 207.42 212.782 211.865 207.477 211.863L194.595 211.858C189.283 211.855 184.985 207.406 184.987 201.912ZM224.96 201.929L224.963 192.129C224.965 186.643 229.267 182.191 234.572 182.193L247.453 182.199C252.766 182.201 257.064 186.657 257.062 192.143L257.058 201.943C257.056 207.438 252.754 211.883 247.442 211.881L234.561 211.875C229.255 211.873 224.958 207.424 224.96 201.929ZM266.562 201.948L266.566 192.147C266.568 186.661 270.871 182.209 276.176 182.211L289.058 182.217C294.369 182.219 298.668 186.675 298.666 192.161L298.662 201.962C298.66 207.456 294.358 211.901 289.046 211.899L276.165 211.893C270.86 211.891 266.56 207.442 266.562 201.948ZM306.528 201.965L306.532 192.164C306.534 186.678 310.844 182.226 316.149 182.229L329.03 182.234C334.334 182.237 338.641 186.692 338.639 192.178L338.635 201.979C338.633 207.473 334.323 211.918 329.018 211.916L316.138 211.91C310.833 211.908 306.526 207.459 306.528 201.965ZM345.631 201.982L345.635 192.181C345.637 186.695 349.946 182.243 355.251 182.246L368.133 182.251C373.444 182.254 377.743 186.709 377.741 192.195L377.737 201.996C377.735 207.49 373.433 211.935 368.122 211.933L355.24 211.927C349.935 211.925 345.629 207.476 345.631 201.982ZM183.803 160.386L183.806 150.585C183.809 145.099 188.111 140.646 193.422 140.648L206.304 140.654C211.609 140.656 215.914 145.113 215.912 150.599L215.908 160.4C215.906 165.893 211.598 170.338 206.293 170.336L193.41 170.33C188.099 170.328 183.801 165.879 183.803 160.386ZM223.775 160.403L223.779 150.602C223.781 145.117 228.083 140.663 233.395 140.666L246.276 140.671C251.582 140.674 255.88 145.131 255.878 150.616L255.874 160.417C255.872 165.91 251.57 170.355 246.265 170.353L233.383 170.348C228.071 170.345 223.773 165.896 223.775 160.403ZM265.379 160.422L265.382 150.62C265.384 145.135 269.687 140.681 274.992 140.684L287.873 140.689C293.185 140.692 297.484 145.149 297.482 150.634L297.478 160.436C297.476 165.928 293.173 170.374 287.862 170.371L274.981 170.366C269.676 170.363 265.376 165.914 265.379 160.422ZM305.344 160.439L305.348 150.638C305.35 145.152 309.66 140.699 314.965 140.701L327.845 140.707C333.157 140.709 337.457 145.166 337.455 150.652L337.451 160.453C337.449 165.946 333.146 170.391 327.834 170.389L314.953 170.383C309.648 170.381 305.342 165.932 305.344 160.439ZM344.454 160.456L344.458 150.655C344.46 145.169 348.762 140.716 354.067 140.718L366.949 140.724C372.26 140.726 376.559 145.183 376.557 150.669L376.553 160.47C376.551 165.963 372.249 170.408 366.938 170.406L354.056 170.4C348.751 170.398 344.452 165.949 344.454 160.456ZM184.243 118.86L184.247 109.059C184.249 103.573 188.551 99.12 193.863 99.1223L206.744 99.1279C212.049 99.1302 216.349 103.587 216.346 109.073L216.343 118.874C216.341 124.368 212.038 128.813 206.733 128.81L193.852 128.805C188.54 128.803 184.241 124.354 184.243 118.86ZM224.209 118.878L224.212 109.077C224.215 103.59 228.524 99.1374 233.828 99.1397L246.71 99.1453C252.021 99.1476 256.321 103.604 256.319 109.091L256.315 118.891C256.313 124.385 252.01 128.83 246.699 128.828L233.817 128.822C228.512 128.82 224.207 124.371 224.209 118.878ZM265.812 118.896L265.816 109.095C265.818 103.608 270.127 99.1555 275.432 99.1578L288.314 99.1634C293.626 99.1658 297.924 103.622 297.922 109.109L297.918 118.91C297.916 124.403 293.614 128.848 288.302 128.846L275.421 128.84C270.115 128.838 265.81 124.389 265.812 118.896ZM305.785 118.913L305.789 109.112C305.791 103.626 310.093 99.1729 315.405 99.1752L328.287 99.1809C333.592 99.1832 337.897 103.64 337.895 109.126L337.891 118.927C337.889 124.42 333.581 128.866 328.275 128.863L315.394 128.858C310.082 128.856 305.783 124.406 305.785 118.913ZM344.888 118.93L344.892 109.129C344.894 103.643 349.203 99.19 354.508 99.1923L367.39 99.1979C372.694 99.2002 377 103.657 376.998 109.143L376.994 118.944C376.992 124.438 372.683 128.883 367.379 128.88L354.497 128.875C349.192 128.873 344.886 124.424 344.888 118.93ZM173.213 265.587L389.038 265.681L389.105 88.6744L173.281 88.5804L173.213 265.587Z" fill="url(#paint5_linear)"/>
<path d="M355.479 60.1406C355.962 63.8776 358.146 66.7986 360.673 66.7997C361.556 66.8001 362.27 67.4349 362.27 68.216C362.27 68.9964 361.555 69.6306 360.672 69.6302C356.311 69.6283 352.827 65.5702 352.264 60.1392L327.47 60.1285C327.949 63.8654 330.131 66.7865 332.659 66.7876C333.542 66.7879 334.263 67.4228 334.263 68.2039C334.262 68.9842 333.54 69.6184 332.658 69.6181C328.303 69.6162 324.813 65.5581 324.248 60.1271L300.3 60.1167C300.783 63.8537 302.966 66.7747 305.487 66.7758C306.37 66.7762 307.09 67.411 307.09 68.1921C307.09 68.9725 306.369 69.6067 305.486 69.6063C301.131 69.6044 297.642 65.5463 297.078 60.1153L269.514 60.1034C269.998 63.8403 272.182 66.7613 274.709 66.7624C275.592 66.7628 276.307 67.3976 276.307 68.1788C276.307 68.9591 275.591 69.5933 274.708 69.5929C270.347 69.591 266.857 65.533 266.292 60.102L242.343 60.0916C242.827 63.8285 245.01 66.7496 247.538 66.7507C248.42 66.751 249.135 67.3859 249.134 68.167C249.134 68.9473 248.419 69.5815 247.537 69.5812C243.175 69.5793 239.686 65.5212 239.121 60.0902L214.329 60.0794C214.813 63.8164 216.996 66.7374 219.523 66.7385C220.406 66.7389 221.121 67.3737 221.121 68.1548C221.121 68.9352 220.405 69.5694 219.522 69.569C215.161 69.5671 211.677 65.509 211.114 60.078L187.157 60.0677C187.641 63.8046 189.823 66.7256 192.352 66.7267C193.234 66.7271 193.949 67.3619 193.948 68.143C193.948 68.9234 193.233 69.5576 192.351 69.5572C187.989 69.5553 184.506 65.4973 183.942 60.0663L173.224 60.0616L173.213 88.5776L389.035 88.6712L389.046 60.1552L355.479 60.1406Z" fill="url(#paint6_linear)"/>
<path d="M355.229 182.172C349.924 182.17 345.615 186.622 345.613 192.108L345.609 201.909C345.607 207.403 349.912 211.852 355.217 211.854L368.1 211.86C373.411 211.862 377.713 207.416 377.715 201.922L377.719 192.122C377.721 186.636 373.422 182.18 368.111 182.178L355.229 182.172Z" fill="url(#paint7_linear)"/>
<path d="M354.454 99.1173C349.149 99.1151 344.84 103.568 344.838 109.055L344.834 118.855C344.832 124.349 349.138 128.798 354.443 128.8L367.325 128.805C372.629 128.808 376.938 124.362 376.94 118.869L376.944 109.068C376.946 103.581 372.641 99.125 367.337 99.1228L354.454 99.1173Z" fill="url(#paint8_linear)"/>
<path d="M354.03 140.645C348.724 140.643 344.422 145.096 344.42 150.581L344.416 160.383C344.414 165.876 348.713 170.325 354.018 170.327L366.9 170.332C372.211 170.334 376.513 165.889 376.515 160.396L376.519 150.595C376.521 145.11 372.223 140.653 366.911 140.65L354.03 140.645Z" fill="url(#paint9_linear)"/>
<path d="M316.127 182.173C310.823 182.171 306.513 186.623 306.51 192.109L306.507 201.909C306.504 207.403 310.811 211.852 316.116 211.855L328.997 211.86C334.301 211.862 338.611 207.417 338.613 201.923L338.617 192.122C338.619 186.636 334.313 182.18 329.008 182.178L316.127 182.173Z" fill="url(#paint10_linear)"/>
<path d="M315.352 99.1178C310.04 99.1156 305.738 103.568 305.736 109.055L305.732 118.856C305.73 124.349 310.029 128.798 315.341 128.8L328.222 128.806C333.528 128.808 337.836 124.363 337.838 118.869L337.842 109.069C337.844 103.582 333.539 99.1255 328.234 99.1232L315.352 99.1178Z" fill="url(#paint11_linear)"/>
<path d="M314.927 140.645C309.622 140.643 305.312 145.096 305.31 150.581L305.306 160.383C305.304 165.876 309.611 170.325 314.916 170.327L327.796 170.332C333.108 170.334 337.411 165.889 337.413 160.396L337.417 150.595C337.419 145.11 333.12 140.653 327.808 140.65L314.927 140.645Z" fill="url(#paint12_linear)"/>
<path d="M276.155 182.173C270.85 182.171 266.547 186.623 266.544 192.109L266.541 201.909C266.538 207.403 270.838 211.852 276.143 211.855L289.025 211.86C294.336 211.862 298.639 207.417 298.641 201.923L298.645 192.122C298.647 186.636 294.348 182.18 289.036 182.178L276.155 182.173Z" fill="url(#paint13_linear)"/>
<path d="M275.737 223.698C270.425 223.696 266.123 228.149 266.121 233.635L266.117 243.436C266.115 248.93 270.414 253.378 275.725 253.38L288.607 253.385C293.911 253.388 298.221 248.943 298.223 243.45L298.227 233.649C298.229 228.162 293.923 223.706 288.618 223.704L275.737 223.698Z" fill="url(#paint14_linear)"/>
<path d="M275.38 99.1178C270.074 99.1156 265.766 103.568 265.763 109.055L265.76 118.856C265.757 124.349 270.062 128.798 275.368 128.8L288.249 128.806C293.561 128.808 297.863 124.363 297.865 118.869L297.869 109.069C297.871 103.582 293.573 99.1255 288.261 99.1232L275.38 99.1178Z" fill="url(#paint15_linear)"/>
<path d="M274.955 140.644C269.65 140.642 265.348 145.096 265.345 150.581L265.342 160.382C265.339 165.875 269.639 170.324 274.944 170.326L287.825 170.332C293.136 170.334 297.439 165.889 297.441 160.396L297.445 150.594C297.447 145.109 293.148 140.652 287.837 140.65L274.955 140.644Z" fill="url(#paint16_linear)"/>
<path d="M234.552 182.173C229.246 182.171 224.945 186.623 224.943 192.109L224.939 201.909C224.937 207.403 229.234 211.852 234.54 211.855L247.421 211.86C252.734 211.862 257.035 207.417 257.037 201.923L257.041 192.122C257.043 186.636 252.745 182.18 247.432 182.178L234.552 182.173Z" fill="url(#paint17_linear)"/>
<path d="M234.133 223.698C228.821 223.696 224.519 228.149 224.517 233.635L224.513 243.436C224.511 248.93 228.81 253.378 234.122 253.38L247.004 253.385C252.309 253.388 256.617 248.943 256.62 243.45L256.623 233.649C256.626 228.162 252.321 223.706 247.016 223.704L234.133 223.698Z" fill="url(#paint18_linear)"/>
<path d="M233.777 99.1178C228.472 99.1156 224.163 103.568 224.16 109.055L224.157 118.856C224.154 124.349 228.46 128.798 233.765 128.8L246.646 128.806C251.958 128.808 256.261 124.363 256.263 118.869L256.267 109.069C256.269 103.582 251.969 99.1255 246.658 99.1232L233.777 99.1178Z" fill="url(#paint19_linear)"/>
<path d="M233.358 140.645C228.046 140.643 223.745 145.096 223.743 150.581L223.739 160.383C223.737 165.876 228.034 170.325 233.346 170.327L246.228 170.332C251.534 170.334 255.836 165.889 255.838 160.396L255.842 150.595C255.844 145.11 251.545 140.653 246.24 140.65L233.358 140.645Z" fill="url(#paint20_linear)"/>
<path d="M194.586 182.173C189.274 182.17 184.972 186.623 184.97 192.109L184.966 201.909C184.964 207.403 189.263 211.852 194.574 211.855L207.456 211.86C212.761 211.862 217.07 207.417 217.072 201.923L217.076 192.122C217.078 186.636 212.773 182.18 207.468 182.178L194.586 182.173Z" fill="url(#paint21_linear)"/>
<path d="M194.162 223.698C188.856 223.696 184.547 228.149 184.545 233.635L184.541 243.436C184.539 248.93 188.845 253.378 194.15 253.38L207.031 253.385C212.343 253.388 216.645 248.943 216.647 243.45L216.651 233.649C216.653 228.162 212.355 223.706 207.043 223.704L194.162 223.698Z" fill="url(#paint22_linear)"/>
<path d="M193.811 99.1178C188.499 99.1155 184.197 103.568 184.195 109.055L184.191 118.856C184.189 124.349 188.488 128.798 193.8 128.8L206.681 128.806C211.986 128.808 216.289 124.363 216.291 118.869L216.295 109.069C216.297 103.582 211.998 99.1254 206.693 99.1232L193.811 99.1178Z" fill="url(#paint23_linear)"/>
<path d="M193.386 140.644C188.074 140.642 183.772 145.096 183.77 150.581L183.766 160.382C183.764 165.875 188.063 170.324 193.374 170.326L206.256 170.332C211.561 170.334 215.87 165.889 215.872 160.396L215.876 150.595C215.878 145.109 211.573 140.652 206.268 140.65L193.386 140.644Z" fill="url(#paint24_linear)"/>
<path d="M200.452 54.8248C200.661 55.5846 200.135 56.3515 199.278 56.5326C198.415 56.7129 197.553 56.2527 197.344 55.4929C196.51 52.4389 194.542 50.3818 192.459 50.3809C189.587 50.3797 187.159 54.1432 187.158 58.5978C187.157 59.1272 187.191 59.6433 187.258 60.1521C187.742 63.8886 189.925 66.8107 192.452 66.8117C193.336 66.8121 194.05 67.447 194.05 68.2274C194.049 69.0079 193.335 69.6421 192.451 69.6418C188.091 69.6399 184.607 65.5815 184.042 60.1507C183.989 59.6487 183.963 59.1259 183.963 58.5965C183.965 52.3988 187.695 47.5489 192.46 47.5509C196.107 47.5524 199.241 50.4045 200.452 54.8248Z" fill="white"/>
<path d="M255.637 54.8483C255.846 55.6081 255.32 56.375 254.457 56.556C253.601 56.7363 252.738 56.2761 252.53 55.5163C251.688 52.4623 249.727 50.4053 247.645 50.4044C244.773 50.4032 242.345 54.1666 242.343 58.6212C242.343 59.1507 242.376 59.6668 242.444 60.1755C242.928 63.9121 245.11 66.8341 247.638 66.8352C248.521 66.8355 249.235 67.4704 249.235 68.2509C249.234 69.0313 248.519 69.6656 247.637 69.6652C243.275 69.6634 239.786 65.6049 239.222 60.1742C239.167 59.6721 239.141 59.1493 239.141 58.6199C239.144 52.4223 242.88 47.5723 247.646 47.5743C251.293 47.5759 254.426 50.428 255.637 54.8483Z" fill="white"/>
<path d="M282.809 54.86C283.018 55.6198 282.492 56.3867 281.629 56.5677C280.772 56.7481 279.91 56.2879 279.701 55.5281C278.86 52.4741 276.899 50.417 274.816 50.4161C271.944 50.4149 269.517 54.1784 269.515 58.633C269.515 59.1624 269.548 59.6785 269.615 60.1872C270.099 63.9238 272.282 66.8458 274.81 66.8469C275.693 66.8473 276.407 67.4821 276.407 68.2626C276.406 69.043 275.692 69.6773 274.809 69.6769C270.448 69.6751 266.957 65.6166 266.393 60.1859C266.339 59.6838 266.312 59.161 266.313 58.6316C266.315 52.434 270.052 47.5841 274.817 47.5861C278.458 47.5876 281.598 50.4397 282.809 54.86Z" fill="white"/>
<path d="M313.593 54.8727C313.802 55.6325 313.269 56.3994 312.414 56.5804C311.557 56.7608 310.687 56.3006 310.479 55.5408C309.644 52.4868 307.683 50.4297 305.594 50.4288C302.729 50.4276 300.301 54.1911 300.299 58.6457C300.299 59.1751 300.333 59.6912 300.4 60.1999C300.884 63.9365 303.067 66.8585 305.587 66.8596C306.471 66.86 307.191 67.4948 307.191 68.2753C307.19 69.0557 306.47 69.69 305.586 69.6896C301.232 69.6878 297.742 65.6293 297.178 60.1986C297.124 59.6965 297.097 59.1737 297.097 58.6443C297.1 52.4467 300.836 47.5968 305.595 47.5988C309.242 47.6003 312.382 50.4524 313.593 54.8727Z" fill="white"/>
<path d="M340.758 54.8844C340.967 55.6442 340.441 56.4111 339.584 56.5922C338.721 56.7725 337.859 56.3123 337.651 55.5525C336.816 52.4985 334.855 50.4414 332.765 50.4405C329.894 50.4393 327.472 54.2028 327.471 58.6574C327.471 59.1868 327.504 59.7029 327.571 60.2116C328.049 63.9482 330.231 66.8702 332.759 66.8713C333.642 66.8717 334.363 67.5065 334.363 68.287C334.362 69.0674 333.64 69.7017 332.758 69.7013C328.404 69.6995 324.913 65.6411 324.349 60.2103C324.296 59.7082 324.269 59.1855 324.269 58.656C324.271 52.4584 328.008 47.6085 332.766 47.6105C336.414 47.612 339.553 50.4641 340.758 54.8844Z" fill="white"/>
<path d="M227.623 54.8366C227.832 55.5964 227.306 56.3633 226.443 56.5443C225.587 56.7246 224.724 56.2644 224.515 55.5046C223.681 52.4506 221.713 50.3935 219.63 50.3927C216.759 50.3914 214.331 54.1549 214.329 58.6095C214.329 59.1389 214.362 59.6551 214.429 60.1638C214.913 63.9003 217.096 66.8224 219.623 66.8234C220.507 66.8238 221.221 67.4587 221.221 68.2391C221.221 69.0196 220.506 69.6539 219.622 69.6535C215.262 69.6516 211.778 65.5932 211.214 60.1624C211.16 59.6604 211.133 59.1376 211.133 58.6082C211.136 52.4105 214.866 47.5606 219.631 47.5626C223.278 47.5642 226.412 50.4162 227.623 54.8366Z" fill="white"/>
<path d="M367.599 56.6034C366.736 56.7844 365.873 56.3242 365.664 55.5637C364.83 52.5104 362.869 50.4526 360.78 50.4517C357.908 50.4505 355.48 54.214 355.478 58.6686C355.478 59.1988 355.511 59.7141 355.578 60.2236C356.062 63.9594 358.245 66.8815 360.773 66.8825C361.656 66.8829 362.37 67.5178 362.37 68.2982C362.37 69.0794 361.655 69.7129 360.772 69.7126C356.411 69.7107 352.927 65.6523 352.363 60.2223C352.309 59.7202 352.282 59.1974 352.282 58.6673C352.285 52.4704 356.014 47.6197 360.781 47.6217C364.427 47.6232 367.567 50.4761 368.772 54.8956C368.981 55.6562 368.454 56.4223 367.599 56.6034Z" fill="white"/>
<path d="M339.207 237.111C339.204 246.18 332.091 253.529 323.322 253.525C314.553 253.522 307.447 246.167 307.45 237.097C307.454 228.029 314.566 220.68 323.335 220.684C332.104 220.688 339.211 228.042 339.207 237.111Z" stroke="#C356D6" stroke-width="6.66667" stroke-miterlimit="1" stroke-linecap="square"/>
<g opacity="0.2">
<path opacity="0.2" d="M114.426 190.167C114.41 231.852 147.075 265.662 187.385 265.68C227.694 265.697 260.387 231.916 260.402 190.231C260.418 148.542 227.751 114.734 187.442 114.716C147.133 114.699 114.442 148.479 114.426 190.167Z" fill="black"/>
</g>
<path d="M100.914 190.107C100.898 231.792 133.562 265.603 173.872 265.621C214.181 265.638 246.874 231.856 246.889 190.171C246.905 148.482 214.239 114.674 173.93 114.656C133.62 114.639 100.929 148.419 100.914 190.107Z" fill="url(#paint25_linear)"/>
<path d="M109.371 190.108C109.357 226.958 138.236 256.851 173.873 256.866C209.512 256.882 238.412 227.014 238.426 190.165C238.44 153.308 209.563 123.418 173.924 123.403C138.287 123.387 109.385 153.252 109.371 190.108Z" fill="url(#paint26_linear)"/>
<path d="M175.173 145.123L171.699 145.121L171.705 130.337L175.179 130.338L175.173 145.123Z" fill="#1F1C38"/>
<path d="M175.131 252.361L171.656 252.359L171.662 237.57L175.136 237.572L175.131 252.361Z" fill="#1F1C38"/>
<path d="M114.938 188.542L129.236 188.548L129.235 191.801L114.937 191.795L114.938 188.542Z" fill="#1F1C38"/>
<path d="M232.928 191.844L218.628 191.838L218.629 188.586L232.929 188.592L232.928 191.844Z" fill="#1F1C38"/>
<path d="M173.247 104.017L182.59 132.306L164.291 132.298L173.247 104.017Z" fill="#1F1C38"/>
<path d="M170.165 192.384L176.671 192.387L176.697 126.363L170.191 126.36L170.165 192.384Z" fill="#1F1C38"/>
<path d="M109.481 190.378L136.835 180.716L136.828 199.639L109.481 190.378Z" fill="#1F1C38"/>
<path d="M176.672 186.831L131.088 186.811L131.085 193.538L176.67 193.558L176.672 186.831Z" fill="#1F1C38"/>
<path d="M164.72 191.733C164.719 195.779 167.891 199.062 171.804 199.064C175.72 199.066 178.893 195.785 178.895 191.739C178.897 187.691 175.726 184.411 171.81 184.409C167.897 184.407 164.722 187.685 164.72 191.733Z" fill="#1F1C38"/>
<path d="M426.428 260.199C426.428 260.199 431.603 269.389 429.611 272.155C427.62 274.922 417.71 274.475 416.699 272.15C415.696 269.833 418.145 260.195 418.145 260.195L426.428 260.199Z" fill="#705DA0"/>
<path d="M416.744 159.152L428.33 260.199L426.429 260.198L418.146 260.195L416.705 260.194L397.983 171.994L380.048 168.339L384.531 161.078L384.538 161.078C400.718 167.433 416.744 159.152 416.744 159.152Z" fill="#1F1C38"/>
<path d="M397.985 171.993L397.949 261.967L395.702 261.966L383.45 261.961C382.767 253.977 378.767 171.376 378.723 170.483L378.723 170.476L380.049 168.338L397.985 171.993Z" fill="#121226"/>
<path d="M395.701 261.966L396.906 273.572L370.495 273.561C372.827 267.762 383.449 261.961 383.449 261.961L395.701 261.966Z" fill="#705DA0"/>
<path d="M403.632 129.875L417.481 122.546L413.759 113.495L403.632 129.875Z" fill="url(#paint27_linear)"/>
<path d="M397.923 143.849L397.924 140.698C397.924 140.698 397.502 140.797 396.798 140.956L384.467 160.903C400.647 167.259 416.673 158.977 416.673 158.977L416.208 138.747C407.564 141.259 397.923 143.849 397.923 143.849Z" fill="url(#paint28_linear)"/>
<path d="M392.601 99.2984L389.223 92.9482C389.223 92.9482 377.473 98.8016 377.217 100.411C376.954 102.012 373.232 142.181 373.232 142.181L373.635 142.452L379.824 132.578L403.317 95.0861L405.553 91.5247L407.673 88.1432L401.503 86.1946L392.601 99.2984Z" fill="url(#paint29_linear)"/>
<path d="M421.291 101.319L419.081 104.894L413.765 113.497L417.487 122.548L403.637 129.878L397.92 132.901L397.915 143.843C397.915 143.843 407.557 141.253 416.2 138.74C423.101 136.737 429.277 134.731 429.568 134.218C431.323 131.127 423.54 97.6856 423.54 97.6856L421.291 101.319Z" fill="url(#paint30_linear)"/>
<path d="M368.923 144.237C367.413 145.572 361.885 152.846 364.086 155.839C364.297 156.131 364.534 156.382 364.783 156.587C367.139 158.614 371.037 157.609 372.754 155.843L372.76 155.836L373.733 154.281C373.733 154.274 373.733 154.267 373.739 154.267C374.791 151.719 374.798 147.496 372.765 143.847C372.765 143.847 371.965 143.522 370.998 143.521C370.315 143.521 369.549 143.683 368.923 144.237Z" fill="url(#paint31_linear)"/>
<path d="M388.267 131.123L388.261 131.123L387.851 131.778C388.248 132.764 390.385 134.527 390.571 134.679C390.411 134.613 388.753 133.891 386.864 133.353C384.637 132.723 382.09 132.352 381.347 133.596C381.295 133.682 381.25 133.781 381.218 133.881C380.565 135.873 380.525 139.474 381.728 141.527C382.271 142.46 383.071 143.077 384.192 143.077C385.254 143.078 386.887 142.866 388.66 142.576C391.662 142.081 395.068 141.341 396.79 140.957L397.917 140.699L397.919 134.331C397.919 134.331 396.479 133.708 394.688 133.006C392.423 132.119 389.591 131.117 388.418 131.116C388.365 131.116 388.314 131.118 388.267 131.123Z" fill="url(#paint32_linear)"/>
<path d="M408.873 86.1827C408.873 86.1827 413.497 94.3401 424.155 95.6818L424.584 95.9671L431.322 85.0667C414.793 89.2966 415.548 75.5334 415.548 75.5334L408.873 86.1827Z" fill="url(#paint33_linear)"/>
<path d="M415.644 75.7178L431.42 85.2503C414.89 89.4802 415.644 75.7178 415.644 75.7178Z" fill="#615AA3"/>
<path d="M407.753 88.3125L408.97 86.3671C408.97 86.3671 413.595 94.5244 424.252 95.8662L424.681 96.1514L423.618 97.8651L421.37 101.498L421.107 101.326C410.449 99.9847 405.831 91.8274 405.831 91.8274L405.632 91.694L407.753 88.3125Z" fill="#C6C6C6"/>
<path d="M407.882 100.176C404.99 97.7842 403.653 95.4268 403.653 95.4268L403.396 95.2549L405.632 91.6943L405.831 91.8269C405.831 91.8269 410.449 99.9849 421.107 101.326L421.37 101.499L419.16 105.073L418.93 104.92C416.887 104.661 415.069 104.157 413.463 103.508C411.191 102.586 409.341 101.374 407.882 100.176Z" fill="#828282"/>
<path d="M394.684 133.001C396.476 133.702 397.915 134.325 397.915 134.325L397.916 132.903L403.633 129.88L413.761 113.499L419.078 104.896L418.848 104.743C416.805 104.484 414.987 103.98 413.381 103.33L394.684 133.001Z" fill="url(#paint34_linear)"/>
<path d="M388.263 131.119C389.326 131.021 392.315 132.075 394.683 133.003L413.381 103.332C411.108 102.411 409.259 101.199 407.8 100.001L388.263 131.119Z" fill="url(#paint35_linear)"/>
<path d="M379.828 132.578L373.64 142.453L372.763 143.843C374.796 147.491 374.789 151.715 373.738 154.263L381.732 141.53C380.529 139.477 380.569 135.876 381.223 133.884C381.254 133.784 381.299 133.685 381.351 133.599C382.095 132.354 384.641 132.726 386.868 133.356L387.855 131.781C387.715 131.423 387.792 131.172 388.265 131.126L388.271 131.126L407.808 100.007C404.915 97.6159 403.578 95.2584 403.578 95.2584L403.322 95.0865L379.828 132.578Z" fill="url(#paint36_linear)"/>
<path d="M388.687 142.59L346.585 209.415C346.585 209.415 350.709 206.358 352.175 206.848C353.641 207.339 352.692 212.343 352.692 212.343L378.671 170.324L378.671 170.317L379.998 168.18L384.48 160.919L384.487 160.919L396.818 140.972C395.095 141.356 391.69 142.095 388.687 142.59Z" fill="url(#paint37_linear)"/>
<path d="M373.759 154.278C373.753 154.278 373.753 154.284 373.753 154.291C373.491 154.926 373.158 155.455 372.78 155.846L372.774 155.853L341.209 206.132C341.209 206.132 345.467 202.943 346.804 203.346C348.136 203.751 346.584 209.417 346.584 209.417L388.686 142.593C386.913 142.884 385.28 143.095 384.218 143.094C383.097 143.094 382.297 142.478 381.754 141.544L373.759 154.278Z" fill="url(#paint38_linear)"/>
<path d="M386.861 133.35C388.749 133.888 390.407 134.61 390.567 134.676C390.382 134.524 388.244 132.762 387.847 131.775L386.861 133.35Z" fill="url(#paint39_linear)"/>
<path d="M364.802 156.599L336.466 201.808C336.466 201.808 340.87 198.66 341.689 199.554C342.509 200.448 341.208 206.134 341.208 206.134L372.772 155.855C371.056 157.622 367.158 158.626 364.802 156.599Z" fill="url(#paint40_linear)"/>
<path d="M336.472 201.81L334.878 214.679C341.925 216.933 338.703 221.446 338.703 221.446L352.695 212.349C352.695 212.349 353.644 207.345 352.178 206.854C350.713 206.364 346.589 209.421 346.589 209.421C346.589 209.421 348.14 203.754 346.809 203.35C345.471 202.946 341.213 206.135 341.213 206.135C341.213 206.135 342.514 200.449 341.695 199.555C341.593 199.444 341.437 199.396 341.24 199.395C339.85 199.395 336.472 201.81 336.472 201.81Z" fill="url(#paint41_linear)"/>
<path d="M334.927 214.832C341.974 217.086 338.752 221.599 338.752 221.599C334.181 222.934 334.092 221.597 334.092 221.597L334.927 214.832Z" fill="#1F1C38"/>
<path d="M404.339 63.6115C405.253 66.3589 406.204 72.026 400.925 82.1392L400.485 79.2793C400.485 79.2793 402.848 76.9634 402.215 73.8251C401.589 70.6935 398.278 75.4525 398.278 75.4525C398.278 75.4525 399.306 67.7603 396.393 66.6603C393.788 65.6788 385.906 70.5418 381.003 69.7911C380.414 69.6983 379.876 69.5263 379.39 69.261C374.827 66.7371 373.842 64.0488 378.528 64.21C383.207 64.3771 391.519 57.5425 394.034 58.8475C396.556 60.1458 396.632 61.94 396.632 61.94C396.632 61.94 403.393 60.7648 404.339 63.6115Z" fill="#1F1C38"/>
<path d="M380.859 69.8192L380.88 70.1709C380.887 69.8125 380.893 69.6156 380.893 69.6156L380.859 69.8192Z" fill="url(#paint42_linear)"/>
<path d="M389.29 68.0257C386.427 69.0063 383.307 69.9854 380.904 69.6156C380.904 69.6156 380.899 69.8126 380.891 70.1709L381.445 80.7753C381.838 83.3486 382.497 85.5288 383.591 86.1838C385.087 87.0774 387.052 87.3944 388.704 87.4869L389.601 87.4873L391.981 87.4032C392.008 87.3965 392.023 87.3965 392.023 87.3965L396.469 87.237L392.582 99.2945L401.487 86.1913L400.83 81.9645L400.389 79.1091C400.389 79.1091 402.749 76.7902 402.118 73.6534C401.494 70.5247 398.18 75.2763 398.18 75.2763C398.18 75.2763 399.21 67.5915 396.294 66.4855C396.055 66.3958 395.771 66.3557 395.449 66.3555C393.984 66.3549 391.73 67.19 389.29 68.0257Z" fill="url(#paint43_linear)"/>
<path d="M389.596 87.4838L388.699 87.4835C390.371 87.5752 391.725 87.4277 391.976 87.3997L389.596 87.4838Z" fill="url(#paint44_linear)"/>
<path d="M396.564 87.4073L392.68 99.4677L389.302 93.1169L389.695 87.6628L396.564 87.4073Z" fill="#F79244"/>
<path d="M389.343 81.1527C388.519 81.1915 387.696 81.2297 386.873 81.2679C386.637 78.6754 386.402 76.0822 386.168 73.489C386.129 73.0684 385.488 73.0674 385.527 73.4924C385.773 76.1997 386.017 78.9077 386.263 81.6149C386.284 81.8385 386.472 81.9393 386.641 81.9253C386.665 81.9305 386.687 81.9386 386.716 81.938L389.346 81.8154C389.756 81.7955 389.756 81.1336 389.343 81.1527Z" fill="#F79244"/>
<path d="M390.934 83.3893C389.308 84.2104 387.563 84.3904 385.81 83.9313C385.411 83.8267 385.248 84.4671 385.648 84.5725C387.566 85.0745 389.475 84.8621 391.251 83.9647C391.622 83.7768 391.303 83.2028 390.934 83.3893Z" fill="#1F1C38"/>
<path d="M393.938 71.5846C392.803 70.6867 391.33 70.595 390.046 71.1839C389.292 71.5294 389.933 72.6766 390.679 72.3348C391.574 71.9235 392.54 72.1312 393.297 72.7313C393.95 73.2477 394.584 72.0958 393.938 71.5846Z" fill="#1F1C38"/>
<path d="M384.309 71.9273C383.168 71.5854 381.988 71.8915 381.106 72.7012C380.488 73.2681 381.391 74.2088 382.005 73.6449C382.559 73.1357 383.281 72.9975 383.985 73.2089C384.776 73.4461 385.1 72.1653 384.309 71.9273Z" fill="#1F1C38"/>
<path d="M392.512 74.4419C392.511 75.1409 392.072 75.7072 391.529 75.707C390.987 75.7067 390.548 75.1401 390.548 74.4411C390.549 73.7421 390.988 73.1758 391.53 73.1761C392.073 73.1763 392.512 73.7429 392.512 74.4419Z" fill="#1F1C38"/>
<path d="M384.096 75.085C384.096 75.784 383.656 76.3503 383.114 76.35C382.572 76.3498 382.133 75.7832 382.133 75.0842C382.133 74.3852 382.573 73.8189 383.115 73.8191C383.657 73.8193 384.097 74.386 384.096 75.085Z" fill="#1F1C38"/>
<path d="M77.9139 181.006L97.9836 208.334L87.6542 250.937L85.5843 250.734L74.9412 249.691L73.492 249.55L81.7432 213.465L65.8743 199.021L65.6368 185.763L77.9139 181.006Z" fill="#121226"/>
<path d="M86.2094 255.949L94.6923 265.6L83.6645 265.595L77.8502 257.646L77.847 265.593L74.9351 265.592L74.9413 249.698L74.9413 249.691L85.5849 250.735L86.2094 255.949Z" fill="#705DA0"/>
<path d="M65.8747 199.021L66.35 225.616L33.8599 259.439L32.6473 258.533L32.6473 258.525L24.7692 252.625L23.3204 251.536L51.0838 220.59C51.0838 220.59 49.449 211.632 42.9777 195.024C36.4991 178.416 46.3778 169.086 46.3778 169.086C46.3778 169.086 52.9766 170.929 57.918 170.074C60.3296 173.749 62.1287 176.231 62.1287 176.231L77.9141 181.006L65.637 185.763L65.8747 199.021Z" fill="#1F1C38"/>
<path d="M31.9227 265.323L37.3732 273.6L23.3117 273.594L22.3453 262.314L16.7682 268.202L14.3494 266.57L24.7691 252.626L32.6471 258.526L32.6471 258.533L31.9227 265.323Z" fill="#705DA0"/>
<path d="M107.747 146.747L111.694 153.699L111.991 153.517C111.694 153.699 112.684 150.641 114.049 148.876C115.691 146.751 123.638 138.742 123.638 138.742C123.103 138.605 122.552 138.543 121.99 138.542C115.552 138.54 107.747 146.747 107.747 146.747Z" fill="url(#paint45_linear)"/>
<path d="M71.2899 129.062C71.2899 129.062 81.6987 144.869 80.7863 149.253C80.4147 151.038 79.3365 152.655 78.1833 153.951L84.119 159.286L112.237 154.656L111.698 153.715L107.75 146.762L87.635 148.88C78.5568 128.388 71.5125 127.305 71.5125 127.305L71.2899 129.062Z" fill="url(#paint46_linear)"/>
<path d="M88.6908 177.441L87.6104 182.731L87.6168 182.731C87.6168 182.731 102.957 186.356 104.476 181.588C105.995 176.828 106.42 175.079 102.416 174.073C102.005 173.97 101.534 173.923 101.018 173.923C96.5216 173.921 88.6908 177.441 88.6908 177.441Z" fill="url(#paint47_linear)"/>
<path d="M46.0032 139.839L46.0032 139.846C45.7394 140.808 45.5579 141.777 45.4759 142.732C45.2867 145.011 46.149 148.128 47.5697 151.544L47.5697 151.551C50.1485 157.784 54.5742 165.029 57.8559 170.043C60.2667 173.717 62.0657 176.199 62.0657 176.199L77.851 180.975L87.3885 183.859L87.6109 182.75L88.6912 177.459L88.9681 176.086L71.7887 167.609L68.1299 165.802C68.1299 165.802 61.7582 137.795 51.0633 137.792C49.4709 137.792 47.7809 138.412 46.0032 139.839Z" fill="url(#paint48_linear)"/>
<path d="M45.9974 139.839C59.7123 128.83 68.1242 165.801 68.1242 165.801L71.783 167.609L74.6725 157.035C74.6725 157.035 76.5066 155.844 78.1864 153.962C79.3396 152.667 80.4178 151.049 80.7894 149.265C81.7018 144.88 71.2928 129.073 71.2928 129.073L70.3126 136.733C59.7029 134.881 56.9916 122.939 56.9916 122.939C56.9916 122.939 48.3334 131.28 45.9974 139.839Z" fill="url(#paint49_linear)"/>
<path d="M46.31 169.054C46.31 169.054 52.9087 170.898 57.851 170.042C54.5693 165.028 50.1437 157.784 47.5649 151.55L46.31 169.054Z" fill="url(#paint50_linear)"/>
<path d="M66.9208 109.651C66.9208 109.651 64.7375 106.394 61.5888 107.523C58.4408 108.65 62.4349 115.289 62.4349 115.289L56.9796 122.933C56.9796 122.933 59.6907 134.876 70.3004 136.728L66.4314 119.556C66.4314 119.556 69.5246 121.231 72.2001 121.817C73.4337 122.098 74.5728 122.139 75.2804 121.686C77.5192 120.244 77.6051 114.757 77.6051 114.757L80.5171 114.758C81.0652 110.373 77.8234 100.488 77.8234 100.488C77.8234 100.488 73.526 109.402 66.9208 109.651Z" fill="url(#paint51_linear)"/>
<path d="M74.76 95.031C76.1412 96.6487 77.5697 98.3924 77.9054 100.525C77.9054 100.525 73.6081 109.439 67.0022 109.687C67.0022 109.687 64.8197 106.431 61.6717 107.559C58.523 108.687 62.5179 115.325 62.5179 115.325L57.0612 122.97C57.0612 122.97 48.403 131.311 46.0677 139.869L46.0677 139.877C44.5848 140.121 42.9404 139.436 41.8282 138.32C40.3931 136.87 39.6321 134.862 38.8846 132.937C38.1371 131.006 37.2952 129.019 35.7527 127.687C31.3587 123.9 23.9969 127.34 19.3199 123.937C16.2405 121.691 15.6425 116.573 18.1238 113.633C19.9583 111.451 23.0933 110.429 24.1526 107.752C24.6923 106.379 24.5647 104.838 24.7207 103.368C25.0656 100.231 26.8395 97.2969 29.4084 95.6038C31.9838 93.9115 35.3069 93.4946 38.192 94.5065C40.8945 95.4481 43.1856 97.5334 45.9964 98.0441C49.98 98.764 53.735 96.1445 57.0395 93.7268C60.3426 91.3092 63.6603 90.1407 67.5757 91.1879C70.2783 91.9073 72.9071 92.8621 74.76 95.031Z" fill="#1F1C38"/>
<path d="M72.2817 121.854L71.5849 127.347L71.3623 129.103L70.3812 136.764L66.5121 119.593C66.5121 119.593 69.6061 121.267 72.2817 121.854Z" fill="#F79244"/>
<path d="M76.9424 104.521C75.7998 104.117 74.5095 104.466 73.6893 105.377C73.0991 106.032 74.0438 107.028 74.6355 106.371C75.1619 105.785 75.8744 105.613 76.6025 105.87C77.4222 106.159 77.7614 104.81 76.9424 104.521Z" fill="#1F1C38"/>
<path d="M76.5835 107.905C76.5833 108.632 76.23 109.222 75.7954 109.222C75.3601 109.221 75.008 108.631 75.0083 107.904C75.0086 107.177 75.3611 106.587 75.7965 106.587C76.2311 106.587 76.5838 107.177 76.5835 107.905Z" fill="#1F1C38"/>
<path d="M76.5459 117.69C75.179 117.734 73.9384 117.315 72.8511 116.46C72.5061 116.189 72.1722 116.795 72.5137 117.063C73.6861 117.985 75.0785 118.435 76.5492 118.386C76.9817 118.372 76.9812 117.675 76.5459 117.69Z" fill="#1F1C38"/>
<path d="M217.042 179.791L217.409 181.291L174.006 191.915L173.637 190.419L217.042 179.791Z" fill="#1F1C38"/>
</g>
<defs>
<linearGradient id="paint0_linear" x1="-0.276964" y1="134.174" x2="421.978" y2="134.335" gradientUnits="userSpaceOnUse">
<stop stop-color="#8AEBD6"/>
<stop offset="0.8" stop-color="#8AEBD6"/>
<stop offset="1" stop-color="#5193FA"/>
</linearGradient>
<linearGradient id="paint1_linear" x1="231.983" y1="265.749" x2="232.098" y2="2.06085" gradientUnits="userSpaceOnUse">
<stop stop-color="#8AEBD6"/>
<stop offset="0.8" stop-color="#8AEBD6"/>
<stop offset="1" stop-color="#5193FA"/>
</linearGradient>
<linearGradient id="paint2_linear" x1="237.128" y1="301.294" x2="237.143" y2="265.714" gradientUnits="userSpaceOnUse">
<stop stop-color="#8AEBD6"/>
<stop offset="0.8" stop-color="#8AEBD6"/>
<stop offset="1" stop-color="#5193FA"/>
</linearGradient>
<linearGradient id="paint3_linear" x1="194.061" y1="265.714" x2="194.116" y2="138.809" gradientUnits="userSpaceOnUse">
<stop stop-color="#51ADC6"/>
<stop offset="0.2" stop-color="#CAEB8A"/>
<stop offset="1" stop-color="#CAEB8A"/>
</linearGradient>
<linearGradient id="paint4_linear" x1="71.975" y1="217.087" x2="420.331" y2="217.219" gradientUnits="userSpaceOnUse">
<stop stop-color="#CAEB8A"/>
<stop offset="0.8" stop-color="#CAEB8A"/>
<stop offset="1" stop-color="#51ADC6"/>
</linearGradient>
<linearGradient id="paint5_linear" x1="172.945" y1="177.11" x2="389.071" y2="177.192" gradientUnits="userSpaceOnUse">
<stop stop-color="#F9E6D9"/>
<stop offset="0.22" stop-color="white"/>
<stop offset="1" stop-color="white"/>
</linearGradient>
<linearGradient id="paint6_linear" x1="394.49" y1="74.4614" x2="166.724" y2="74.3743" gradientUnits="userSpaceOnUse">
<stop stop-color="#7B6ED6"/>
<stop offset="0.8" stop-color="#7B6ED6"/>
<stop offset="1" stop-color="#51B9FA"/>
</linearGradient>
<linearGradient id="paint7_linear" x1="362.616" y1="170.03" x2="360.643" y2="219.178" gradientUnits="userSpaceOnUse">
<stop stop-color="#C356D6"/>
<stop offset="0.8" stop-color="#C356D6"/>
<stop offset="1" stop-color="#51B9FA"/>
</linearGradient>
<linearGradient id="paint8_linear" x1="375.757" y1="114.268" x2="187.331" y2="114.194" gradientUnits="userSpaceOnUse">
<stop stop-color="#7B6ED6"/>
<stop offset="0.8" stop-color="#7B6ED6"/>
<stop offset="1" stop-color="#51B9FA"/>
</linearGradient>
<linearGradient id="paint9_linear" x1="375.752" y1="155.766" x2="185.58" y2="155.691" gradientUnits="userSpaceOnUse">
<stop stop-color="#7B6ED6"/>
<stop offset="0.8" stop-color="#7B6ED6"/>
<stop offset="1" stop-color="#51B9FA"/>
</linearGradient>
<linearGradient id="paint10_linear" x1="376.243" y1="197.278" x2="185.851" y2="197.203" gradientUnits="userSpaceOnUse">
<stop stop-color="#7B6ED6"/>
<stop offset="0.8" stop-color="#7B6ED6"/>
<stop offset="1" stop-color="#51B9FA"/>
</linearGradient>
<linearGradient id="paint11_linear" x1="376.184" y1="114.285" x2="186.135" y2="114.21" gradientUnits="userSpaceOnUse">
<stop stop-color="#7B6ED6"/>
<stop offset="0.8" stop-color="#7B6ED6"/>
<stop offset="1" stop-color="#51B9FA"/>
</linearGradient>
<linearGradient id="paint12_linear" x1="376.535" y1="155.783" x2="184.785" y2="155.707" gradientUnits="userSpaceOnUse">
<stop stop-color="#7B6ED6"/>
<stop offset="0.8" stop-color="#7B6ED6"/>
<stop offset="1" stop-color="#51B9FA"/>
</linearGradient>
<linearGradient id="paint13_linear" x1="377.074" y1="197.295" x2="185.922" y2="197.22" gradientUnits="userSpaceOnUse">
<stop stop-color="#7B6ED6"/>
<stop offset="0.8" stop-color="#7B6ED6"/>
<stop offset="1" stop-color="#51B9FA"/>
</linearGradient>
<linearGradient id="paint14_linear" x1="376.057" y1="238.791" x2="187.387" y2="238.717" gradientUnits="userSpaceOnUse">
<stop stop-color="#7B6ED6"/>
<stop offset="0.8" stop-color="#7B6ED6"/>
<stop offset="1" stop-color="#51B9FA"/>
</linearGradient>
<linearGradient id="paint15_linear" x1="376.929" y1="114.302" x2="186.159" y2="114.227" gradientUnits="userSpaceOnUse">
<stop stop-color="#7B6ED6"/>
<stop offset="0.8" stop-color="#7B6ED6"/>
<stop offset="1" stop-color="#51B9FA"/>
</linearGradient>
<linearGradient id="paint16_linear" x1="375.915" y1="155.799" x2="187.593" y2="155.724" gradientUnits="userSpaceOnUse">
<stop stop-color="#7B6ED6"/>
<stop offset="0.8" stop-color="#7B6ED6"/>
<stop offset="1" stop-color="#51B9FA"/>
</linearGradient>
<linearGradient id="paint17_linear" x1="377.507" y1="197.313" x2="186.791" y2="197.238" gradientUnits="userSpaceOnUse">
<stop stop-color="#7B6ED6"/>
<stop offset="0.8" stop-color="#7B6ED6"/>
<stop offset="1" stop-color="#51B9FA"/>
</linearGradient>
<linearGradient id="paint18_linear" x1="375.932" y1="238.809" x2="187.711" y2="238.734" gradientUnits="userSpaceOnUse">
<stop stop-color="#7B6ED6"/>
<stop offset="0.8" stop-color="#7B6ED6"/>
<stop offset="1" stop-color="#51B9FA"/>
</linearGradient>
<linearGradient id="paint19_linear" x1="377.27" y1="114.32" x2="186.945" y2="114.245" gradientUnits="userSpaceOnUse">
<stop stop-color="#7B6ED6"/>
<stop offset="0.8" stop-color="#7B6ED6"/>
<stop offset="1" stop-color="#51B9FA"/>
</linearGradient>
<linearGradient id="paint20_linear" x1="378.391" y1="155.818" x2="186.317" y2="155.742" gradientUnits="userSpaceOnUse">
<stop stop-color="#7B6ED6"/>
<stop offset="0.8" stop-color="#7B6ED6"/>
<stop offset="1" stop-color="#51B9FA"/>
</linearGradient>
<linearGradient id="paint21_linear" x1="378.703" y1="197.33" x2="187.267" y2="197.255" gradientUnits="userSpaceOnUse">
<stop stop-color="#7B6ED6"/>
<stop offset="0.8" stop-color="#7B6ED6"/>
<stop offset="1" stop-color="#51B9FA"/>
</linearGradient>
<linearGradient id="paint22_linear" x1="376.603" y1="238.826" x2="187.657" y2="238.751" gradientUnits="userSpaceOnUse">
<stop stop-color="#7B6ED6"/>
<stop offset="0.8" stop-color="#7B6ED6"/>
<stop offset="1" stop-color="#51B9FA"/>
</linearGradient>
<linearGradient id="paint23_linear" x1="378.423" y1="114.337" x2="187.334" y2="114.262" gradientUnits="userSpaceOnUse">
<stop stop-color="#7B6ED6"/>
<stop offset="0.8" stop-color="#7B6ED6"/>
<stop offset="1" stop-color="#51B9FA"/>
</linearGradient>
<linearGradient id="paint24_linear" x1="376.315" y1="155.833" x2="187.712" y2="155.759" gradientUnits="userSpaceOnUse">
<stop stop-color="#7B6ED6"/>
<stop offset="0.8" stop-color="#7B6ED6"/>
<stop offset="1" stop-color="#51B9FA"/>
</linearGradient>
<linearGradient id="paint25_linear" x1="151.495" y1="113.642" x2="194.429" y2="251.643" gradientUnits="userSpaceOnUse">
<stop stop-color="#7B6ED6"/>
<stop offset="0.8" stop-color="#7B6ED6"/>
<stop offset="1" stop-color="#51B9FA"/>
</linearGradient>
<linearGradient id="paint26_linear" x1="109.214" y1="190.435" x2="238.426" y2="190.484" gradientUnits="userSpaceOnUse">
<stop stop-color="#F9E6D9"/>
<stop offset="0.22" stop-color="white"/>
<stop offset="1" stop-color="white"/>
</linearGradient>
<linearGradient id="paint27_linear" x1="417.785" y1="122.407" x2="375.618" y2="119.747" gradientUnits="userSpaceOnUse">
<stop stop-color="#51ADC6"/>
<stop offset="0.2" stop-color="#CAEB8A"/>
<stop offset="1" stop-color="#CAEB8A"/>
</linearGradient>
<linearGradient id="paint28_linear" x1="418.636" y1="151.452" x2="363.545" y2="150.007" gradientUnits="userSpaceOnUse">
<stop stop-color="#51ADC6"/>
<stop offset="0.2" stop-color="#CAEB8A"/>
<stop offset="1" stop-color="#CAEB8A"/>
</linearGradient>
<linearGradient id="paint29_linear" x1="395.452" y1="114.404" x2="374.722" y2="114.574" gradientUnits="userSpaceOnUse">
<stop stop-color="#51ADC6"/>
<stop offset="0.2" stop-color="#CAEB8A"/>
<stop offset="1" stop-color="#CAEB8A"/>
</linearGradient>
<linearGradient id="paint30_linear" x1="425.157" y1="114.471" x2="392.385" y2="129.613" gradientUnits="userSpaceOnUse">
<stop stop-color="#51ADC6"/>
<stop offset="0.2" stop-color="#CAEB8A"/>
<stop offset="1" stop-color="#CAEB8A"/>
</linearGradient>
<linearGradient id="paint31_linear" x1="363.368" y1="150.896" x2="373.741" y2="150.9" gradientUnits="userSpaceOnUse">
<stop stop-color="#F7BE86"/>
<stop offset="0.65" stop-color="#F7BE86"/>
<stop offset="1" stop-color="#F79244"/>
</linearGradient>
<linearGradient id="paint32_linear" x1="380.551" y1="137.289" x2="397.918" y2="137.296" gradientUnits="userSpaceOnUse">
<stop stop-color="#F7BE86"/>
<stop offset="0.65" stop-color="#F7BE86"/>
<stop offset="1" stop-color="#F79244"/>
</linearGradient>
<linearGradient id="paint33_linear" x1="408.477" y1="85.8031" x2="431.322" y2="85.8121" gradientUnits="userSpaceOnUse">
<stop stop-color="#7B6ED6"/>
<stop offset="0.8" stop-color="#7B6ED6"/>
<stop offset="1" stop-color="#51B9FA"/>
</linearGradient>
<linearGradient id="paint34_linear" x1="411.293" y1="123.891" x2="405.869" y2="118.671" gradientUnits="userSpaceOnUse">
<stop stop-color="#3C0887"/>
<stop offset="0.65" stop-color="#3C0887"/>
<stop offset="1" stop-color="#822A8A"/>
</linearGradient>
<linearGradient id="paint35_linear" x1="408.747" y1="128.469" x2="395.603" y2="111.699" gradientUnits="userSpaceOnUse">
<stop stop-color="#3C0887"/>
<stop offset="0.65" stop-color="#3C0887"/>
<stop offset="1" stop-color="#822A8A"/>
</linearGradient>
<linearGradient id="paint36_linear" x1="381.333" y1="109.076" x2="390.539" y2="125.51" gradientUnits="userSpaceOnUse">
<stop stop-color="#3C0887"/>
<stop offset="0.65" stop-color="#3C0887"/>
<stop offset="1" stop-color="#822A8A"/>
</linearGradient>
<linearGradient id="paint37_linear" x1="374.796" y1="179.851" x2="370.484" y2="174.58" gradientUnits="userSpaceOnUse">
<stop stop-color="#3C0887"/>
<stop offset="0.65" stop-color="#3C0887"/>
<stop offset="1" stop-color="#822A8A"/>
</linearGradient>
<linearGradient id="paint38_linear" x1="368.608" y1="180.813" x2="357.677" y2="163.826" gradientUnits="userSpaceOnUse">
<stop stop-color="#3C0887"/>
<stop offset="0.65" stop-color="#3C0887"/>
<stop offset="1" stop-color="#822A8A"/>
</linearGradient>
<linearGradient id="paint39_linear" x1="386.278" y1="133.548" x2="390.568" y2="133.55" gradientUnits="userSpaceOnUse">
<stop stop-color="#3C0887"/>
<stop offset="0.65" stop-color="#3C0887"/>
<stop offset="1" stop-color="#822A8A"/>
</linearGradient>
<linearGradient id="paint40_linear" x1="341.182" y1="162.472" x2="354.795" y2="178.723" gradientUnits="userSpaceOnUse">
<stop stop-color="#3C0887"/>
<stop offset="0.65" stop-color="#3C0887"/>
<stop offset="1" stop-color="#822A8A"/>
</linearGradient>
<linearGradient id="paint41_linear" x1="339.779" y1="202.641" x2="347.612" y2="219.71" gradientUnits="userSpaceOnUse">
<stop stop-color="#F7BE86"/>
<stop offset="0.65" stop-color="#F7BE86"/>
<stop offset="1" stop-color="#F79244"/>
</linearGradient>
<linearGradient id="paint42_linear" x1="380.338" y1="70.2577" x2="380.388" y2="70.2577" gradientUnits="userSpaceOnUse">
<stop stop-color="#F7BE86"/>
<stop offset="0.65" stop-color="#F7BE86"/>
<stop offset="1" stop-color="#F79244"/>
</linearGradient>
<linearGradient id="paint43_linear" x1="380.555" y1="83.0635" x2="402.115" y2="83.072" gradientUnits="userSpaceOnUse">
<stop stop-color="#F7BE86"/>
<stop offset="0.65" stop-color="#F7BE86"/>
<stop offset="1" stop-color="#F79244"/>
</linearGradient>
<linearGradient id="paint44_linear" x1="388.424" y1="87.6644" x2="391.976" y2="87.6658" gradientUnits="userSpaceOnUse">
<stop stop-color="#F7BE86"/>
<stop offset="0.65" stop-color="#F7BE86"/>
<stop offset="1" stop-color="#F79244"/>
</linearGradient>
<linearGradient id="paint45_linear" x1="107.043" y1="146.184" x2="123.636" y2="146.19" gradientUnits="userSpaceOnUse">
<stop stop-color="#F7BE86"/>
<stop offset="0.65" stop-color="#F7BE86"/>
<stop offset="1" stop-color="#F79244"/>
</linearGradient>
<linearGradient id="paint46_linear" x1="78.5204" y1="143.557" x2="121.217" y2="144.861" gradientUnits="userSpaceOnUse">
<stop stop-color="#F9E6D9"/>
<stop offset="0.22" stop-color="white"/>
<stop offset="1" stop-color="white"/>
</linearGradient>
<linearGradient id="paint47_linear" x1="86.9947" y1="179.054" x2="104.477" y2="179.061" gradientUnits="userSpaceOnUse">
<stop stop-color="#F7BE86"/>
<stop offset="0.65" stop-color="#F7BE86"/>
<stop offset="1" stop-color="#F79244"/>
</linearGradient>
<linearGradient id="paint48_linear" x1="46.4103" y1="160.287" x2="102.873" y2="161.962" gradientUnits="userSpaceOnUse">
<stop stop-color="#F9E6D9"/>
<stop offset="0.22" stop-color="white"/>
<stop offset="1" stop-color="white"/>
</linearGradient>
<linearGradient id="paint49_linear" x1="45.4739" y1="145.417" x2="80.7909" y2="145.431" gradientUnits="userSpaceOnUse">
<stop stop-color="#F9E6D9"/>
<stop offset="0.22" stop-color="white"/>
<stop offset="1" stop-color="white"/>
</linearGradient>
<linearGradient id="paint50_linear" x1="46.1855" y1="161.206" x2="57.8539" y2="161.211" gradientUnits="userSpaceOnUse">
<stop stop-color="#F9E6D9"/>
<stop offset="0.22" stop-color="white"/>
<stop offset="1" stop-color="white"/>
</linearGradient>
<linearGradient id="paint51_linear" x1="56.9278" y1="118.641" x2="80.5158" y2="118.65" gradientUnits="userSpaceOnUse">
<stop stop-color="#F7BE86"/>
<stop offset="0.65" stop-color="#F7BE86"/>
<stop offset="1" stop-color="#F79244"/>
</linearGradient>
<clipPath id="clip0">
<rect width="450" height="301" fill="white"/>
</clipPath>
</defs>
</svg>
