<svg width="24" height="24" viewBox="0 0 24 24" fill="none" xmlns="http://www.w3.org/2000/svg">
	<rect x="0.694244" width="22.5844" height="24" rx="3" fill="#F82D2D" />
	<path d="M13.4115 6.15705C13.4115 5.79333 13.2755 5.4445 13.0335 5.18731C12.7914 4.93011 12.4632 4.78562 12.1209 4.78562C11.7786 4.78562 11.4504 4.93011 11.2084 5.18731C10.9663 5.4445 10.8304 5.79333 10.8304 6.15705H9.97001C9.97001 5.55084 10.1966 4.96946 10.6 4.54081C11.0034 4.11215 11.5505 3.87134 12.1209 3.87134C12.6914 3.87134 13.2385 4.11215 13.6418 4.54081C14.0452 4.96946 14.2718 5.55084 14.2718 6.15705H18.1434C18.2575 6.15705 18.3669 6.20522 18.4476 6.29095C18.5283 6.37668 18.5736 6.49295 18.5736 6.61419C18.5736 6.73544 18.5283 6.85171 18.4476 6.93744C18.3669 7.02317 18.2575 7.07134 18.1434 7.07134H17.6668L16.5518 17.3388C16.5032 17.7844 16.3022 18.1955 15.987 18.4939C15.6718 18.7923 15.2644 18.9571 14.8422 18.9571H9.39959C8.97746 18.9571 8.57003 18.7923 8.25481 18.4939C7.9396 18.1955 7.7386 17.7844 7.69006 17.3388L6.57417 7.07134H6.09839C5.99771 7.07137 5.9002 7.03388 5.82285 6.96538C5.74551 6.89688 5.69322 6.80173 5.6751 6.69648L5.66821 6.61419C5.66821 6.49295 5.71354 6.37668 5.79421 6.29095C5.87488 6.20522 5.9843 6.15705 6.09839 6.15705H13.4115ZM16.7996 7.07134H7.44141L8.5444 17.2336C8.56868 17.4565 8.66924 17.6621 8.82694 17.8113C8.98463 17.9605 9.18845 18.0429 9.39959 18.0428H14.8422C15.0532 18.0427 15.2568 17.9602 15.4144 17.811C15.5719 17.6618 15.6723 17.4564 15.6966 17.2336L16.7996 7.07134ZM10.8304 9.35705C11.0412 9.35705 11.2175 9.49877 11.2537 9.68528L11.2606 9.75751V15.3575C11.2606 15.5779 11.0678 15.7571 10.8304 15.7571C10.6196 15.7571 10.4432 15.6153 10.4071 15.4288L10.4002 15.3566V9.75842C10.4002 9.53717 10.5929 9.35797 10.8304 9.35797V9.35705ZM13.4115 9.35705C13.6222 9.35705 13.7986 9.49877 13.8347 9.68528L13.8416 9.75751V15.3575C13.8416 15.5779 13.6489 15.7571 13.4115 15.7571C13.2007 15.7571 13.0243 15.6153 12.9882 15.4288L12.9813 15.3566V9.75842C12.9813 9.53717 13.174 9.35797 13.4115 9.35797V9.35705Z" fill="white" />
</svg>
