<svg width="343" height="256" viewBox="0 0 343 256" fill="none" xmlns="http://www.w3.org/2000/svg">
<path d="M343 224.973H0V225.145H343V224.973Z" fill="#EBEBEB"/>
<path d="M50.5379 231.514H35.9878V231.686H50.5379V231.514Z" fill="#EBEBEB"/>
<path d="M175.691 229.652H117.402V229.824H175.691V229.652Z" fill="#EBEBEB"/>
<path d="M72.5653 237.896H46.4219V238.068H72.5653V237.896Z" fill="#EBEBEB"/>
<path d="M308.631 236.742H279.003V236.914H308.631V236.742Z" fill="#EBEBEB"/>
<path d="M276.76 236.742H268.548V236.914H276.76V236.742Z" fill="#EBEBEB"/>
<path d="M254.43 233.836H238.652V234.008H254.43V233.836Z" fill="#EBEBEB"/>
<path d="M230.723 233.836H197.493V234.008H230.723V233.836Z" fill="#EBEBEB"/>
<path d="M162.582 194.331H30.1221C29.0844 194.329 28.0899 193.915 27.3568 193.179C26.6237 192.444 26.2119 191.447 26.2119 190.408V3.9231C26.2209 2.8898 26.6367 1.9018 27.3688 1.1737C28.1009 0.445592 29.0904 0.0361939 30.1221 0.0344238H162.582C163.621 0.0344238 164.617 0.447742 165.352 1.18345C166.086 1.91916 166.499 2.917 166.499 3.95745V190.408C166.499 191.448 166.086 192.446 165.352 193.182C164.617 193.918 163.621 194.331 162.582 194.331ZM30.1221 0.171833C29.1299 0.173653 28.179 0.569677 27.478 1.27298C26.7771 1.97628 26.3834 2.92939 26.3834 3.9231V190.408C26.3834 191.402 26.7771 192.355 27.478 193.058C28.179 193.761 29.1299 194.157 30.1221 194.159H162.582C163.575 194.157 164.526 193.761 165.228 193.058C165.93 192.355 166.326 191.402 166.327 190.408V3.9231C166.326 2.92876 165.93 1.97567 165.228 1.27256C164.526 0.569454 163.575 0.17365 162.582 0.171833H30.1221Z" fill="#EBEBEB"/>
<path d="M310.971 194.331H178.504C177.466 194.329 176.47 193.915 175.736 193.18C175.002 192.445 174.589 191.448 174.587 190.408V3.9231C174.598 2.88918 175.015 1.90118 175.748 1.17327C176.481 0.445352 177.472 0.0361746 178.504 0.0344238H310.971C312.001 0.0379996 312.989 0.448196 313.719 1.17611C314.45 1.90402 314.865 2.89099 314.874 3.9231V190.408C314.874 191.446 314.463 192.442 313.731 193.177C313 193.912 312.007 194.327 310.971 194.331ZM178.504 0.171833C177.511 0.17365 176.559 0.569454 175.857 1.27256C175.155 1.97567 174.76 2.92876 174.758 3.9231V190.408C174.76 191.402 175.155 192.355 175.857 193.058C176.559 193.761 177.511 194.157 178.504 194.159H310.971C311.963 194.157 312.915 193.761 313.617 193.058C314.319 192.355 314.714 191.402 314.716 190.408V3.9231C314.714 2.92876 314.319 1.97567 313.617 1.27256C312.915 0.569454 311.963 0.17365 310.971 0.171833H178.504Z" fill="#EBEBEB"/>
<path d="M51.4708 224.973H62.0352L62.0352 143.545H51.4708L51.4708 224.973Z" fill="#F0F0F0"/>
<path d="M154.501 143.544H62.0352V224.973H154.501V143.544Z" fill="#F5F5F5"/>
<path d="M155.338 174.269H74.1567V217.821H155.338V174.269Z" fill="#FAFAFA"/>
<path d="M155.338 155.313H74.1567V169.652H155.338V155.313Z" fill="#FAFAFA"/>
<g style="mix-blend-mode:multiply" opacity="0.7">
<path d="M73.4296 217.828H74.1567V174.276H73.4296V217.828Z" fill="#E6E6E6"/>
</g>
<g style="mix-blend-mode:multiply" opacity="0.7">
<path d="M73.4296 169.645H74.1567V155.307H73.4296V169.645Z" fill="#E6E6E6"/>
</g>
<g style="mix-blend-mode:multiply" opacity="0.7">
<path d="M51.464 148.821H154.728V146.98H51.464V148.821Z" fill="#E6E6E6"/>
</g>
<path d="M50.236 147.749H62.0352V142.425H50.236V147.749Z" fill="#F0F0F0"/>
<path d="M155.736 142.431H62.0352V147.756H155.736V142.431Z" fill="#F5F5F5"/>
<path d="M89.7633 126.794C89.1734 125.952 88.829 124.963 88.7686 123.936C88.6786 122.898 88.7691 121.852 89.0361 120.845C89.5747 118.852 90.5338 116.999 91.8487 115.41C92.4916 114.636 93.1788 113.899 93.9067 113.205C94.2909 112.882 94.6613 112.552 95.0523 112.236C95.429 111.912 95.8229 111.61 96.2322 111.329C97.042 110.766 97.88 110.246 98.743 109.769C99.6348 109.33 100.513 108.897 101.446 108.546C100.76 109.316 100.074 109.989 99.3878 110.669C98.7018 111.35 98.0501 112.043 97.3641 112.73C96.6781 113.418 96.0744 114.105 95.4159 114.792C95.0935 115.128 94.8053 115.479 94.5035 115.843C94.1858 116.175 93.888 116.526 93.6117 116.894C92.449 118.286 91.4734 119.824 90.7099 121.47C90.3347 122.271 90.0516 123.112 89.8662 123.977C89.6593 124.902 89.6244 125.857 89.7633 126.794Z" fill="#E6E6E6"/>
<path d="M73.7312 123.916C74.0251 123.098 74.1759 122.236 74.1771 121.367C74.1752 120.964 74.1454 120.563 74.088 120.164C74.0064 119.782 73.8987 119.405 73.7655 119.038C73.1474 117.575 72.2097 116.27 71.0215 115.218C70.7334 114.929 70.3904 114.682 70.0817 114.407C69.7747 114.12 69.4468 113.856 69.1007 113.617C68.4147 113.136 67.763 112.566 67.0427 112.119C66.686 111.879 66.3567 111.638 65.9657 111.384C65.5747 111.13 65.2797 110.869 64.8681 110.642C64.1035 110.158 63.3639 109.635 62.6523 109.075C63.5556 109.21 64.451 109.394 65.3346 109.625C65.7792 109.728 66.215 109.866 66.638 110.037C67.0633 110.202 67.4886 110.367 67.914 110.546L68.5519 110.814C68.7577 110.91 68.9567 111.034 69.1625 111.143C69.5672 111.363 69.9651 111.604 70.3698 111.83C70.7741 112.071 71.1594 112.342 71.5223 112.641C71.8859 112.943 72.2701 113.211 72.6131 113.548C74.1018 114.875 75.122 116.649 75.5217 118.605C75.5742 118.851 75.5995 119.102 75.5972 119.354C75.5972 119.608 75.5972 119.862 75.5972 120.109C75.5529 120.603 75.4516 121.089 75.2953 121.559C75.0021 122.475 74.4606 123.29 73.7312 123.916Z" fill="#E6E6E6"/>
<path d="M74.4654 123.916C74.8324 122.094 74.8765 120.222 74.5957 118.385C74.3147 116.648 73.727 114.975 72.8601 113.445L72.1741 112.311C71.9203 111.947 71.6322 111.624 71.3784 111.24L70.9805 110.69L70.5209 110.188C70.219 109.852 69.9172 109.501 69.6222 109.151C68.9774 108.498 68.2982 107.859 67.6397 107.172C66.9811 106.485 66.2197 105.908 65.5405 105.18C66.4733 105.489 67.3893 105.846 68.2845 106.252C69.154 106.725 69.9968 107.245 70.809 107.811C71.1932 108.127 71.5842 108.45 71.9615 108.78L72.5309 109.275L73.0385 109.845C73.3678 110.23 73.7245 110.614 74.0195 111.02L74.8427 112.325C75.8772 114.138 76.4078 116.194 76.3793 118.282C76.375 120.319 75.7025 122.299 74.4654 123.916Z" fill="#E6E6E6"/>
<path d="M88.8852 124.932C87.5206 123.221 86.3688 121.35 85.4552 119.36C84.5194 117.371 83.764 115.302 83.1983 113.177C82.646 111.038 82.3286 108.845 82.2516 106.636C82.1908 104.419 82.5277 102.208 83.2463 100.109C83.4384 102.308 83.6785 104.39 84.0352 106.458C84.3919 108.526 84.8927 110.58 85.4072 112.641C85.9217 114.702 86.5254 116.702 87.1222 118.742C87.719 120.783 88.3227 122.809 88.8852 124.932Z" fill="#E6E6E6"/>
<path d="M88.1717 124.589C86.5412 123.017 85.0852 121.273 83.8293 119.388C82.5584 117.512 81.4411 115.536 80.4885 113.479C79.5345 111.409 78.7832 109.251 78.2453 107.035C77.7084 104.808 77.5416 102.508 77.7514 100.226C78.4374 102.404 79.1234 104.465 79.9603 106.506C80.7972 108.546 81.6616 110.525 82.5602 112.524C83.4589 114.524 84.4261 116.496 85.3797 118.495C86.3332 120.494 87.2868 122.493 88.1717 124.589Z" fill="#E6E6E6"/>
<path d="M90.9634 127.207C89.0193 126.033 87.2089 124.651 85.5646 123.084C83.9115 121.539 82.3838 119.864 80.9958 118.076C79.6046 116.27 78.3894 114.335 77.3669 112.298C76.3519 110.245 75.6776 108.041 75.3706 105.771C76.5299 107.736 77.6824 109.584 78.9241 111.391C80.1657 113.198 81.476 114.936 82.8 116.681C84.124 118.426 85.544 120.116 86.8748 121.868C88.2057 123.62 89.6325 125.365 90.9634 127.207Z" fill="#E6E6E6"/>
<path d="M86.7653 124.211C84.8894 123.272 83.1456 122.09 81.5791 120.693C80.001 119.311 78.5626 117.776 77.2848 116.111C76.0037 114.431 74.9195 112.61 74.0537 110.683C73.1913 108.75 72.6713 106.68 72.5171 104.568C73.5667 106.403 74.5271 108.155 75.6384 109.831C76.7497 111.508 77.8816 113.136 79.0684 114.723C80.2552 116.31 81.538 117.883 82.8277 119.443C84.1173 121.002 85.4619 122.569 86.7653 124.211Z" fill="#E6E6E6"/>
<path d="M90.1197 126.128C89.3492 125.579 88.7004 124.876 88.214 124.064C87.7276 123.251 87.4142 122.347 87.2934 121.408C87.0382 119.492 87.3482 117.543 88.1852 115.801L88.4733 115.156L88.8232 114.551L89.5572 113.362C89.8407 112.996 90.1288 112.639 90.4215 112.291C90.7037 111.933 91.0085 111.593 91.3339 111.274C91.9841 110.645 92.6713 110.055 93.3919 109.508C94.1273 108.988 94.8924 108.511 95.6832 108.079C95.2245 108.841 94.7276 109.58 94.1945 110.291C93.6869 110.978 93.2341 111.734 92.7265 112.414C92.2189 113.095 91.8416 113.85 91.3545 114.544L90.7851 115.63L90.4833 116.166L90.2569 116.722C89.5576 118.153 89.1495 119.708 89.0564 121.298C88.9989 122.972 89.3647 124.633 90.1197 126.128Z" fill="#E6E6E6"/>
<path d="M88.8507 123.936C87.4703 122.589 86.4673 120.902 85.942 119.045C85.3658 117.119 85.3372 115.07 85.8597 113.129C86.1197 112.158 86.5244 111.231 87.0602 110.381C87.5795 109.538 88.212 108.77 88.9398 108.1C90.3357 106.784 92.0204 105.814 93.8585 105.269C92.571 106.517 91.3743 107.856 90.2776 109.275C89.7719 109.951 89.3266 110.671 88.9467 111.425C88.5669 112.157 88.2701 112.929 88.0618 113.727C87.6292 115.343 87.5059 117.026 87.6982 118.687C87.8963 120.473 88.2826 122.232 88.8507 123.936Z" fill="#E6E6E6"/>
<path d="M85.4962 122.308L74.7603 111.989L75.1924 122.102L85.4962 122.308Z" fill="#E6E6E6"/>
<path d="M97.227 121.209H68.71L72.4418 142.432H93.4951L97.227 121.209Z" fill="#F5F5F5"/>
<path d="M79.4116 121.209H68.71L72.4418 142.432H78.067L79.4116 121.209Z" fill="#EBEBEB"/>
<path d="M126.807 15.0256H69.2446V87.4952H126.807V15.0256Z" fill="#F0F0F0"/>
<path d="M139.519 15.0256H71.4536V87.4952H139.519V15.0256Z" fill="#F5F5F5"/>
<path d="M77.1543 20.735V81.7859H133.818V20.735H77.1543Z" fill="white"/>
<path d="M298.712 224.973H211.144L203.372 79.9653H290.939L298.712 224.973Z" fill="#EBEBEB"/>
<path d="M301.387 224.973H213.819L206.047 79.9653H293.615L301.387 224.973Z" fill="#F5F5F5"/>
<path d="M257.469 210.016H249.649L249.964 94.9224H257.785L257.469 210.016Z" fill="white"/>
<path d="M278.152 210.016H270.332L270.654 94.9224H278.468L278.152 210.016Z" fill="white"/>
<path d="M236.78 210.016H228.959L229.282 94.9224H237.102L236.78 210.016Z" fill="white"/>
<path d="M171.5 256C244.959 256 304.509 252.518 304.509 248.223C304.509 243.927 244.959 240.445 171.5 240.445C98.0416 240.445 38.4917 243.927 38.4917 248.223C38.4917 252.518 98.0416 256 171.5 256Z" fill="#F5F5F5"/>
<path d="M265.327 164.304L264.441 180.48L265.126 180.517L266.012 164.341L265.327 164.304Z" fill="#407BFF"/>
<path d="M266.083 150.581L265.627 158.917L266.312 158.954L266.768 150.619L266.083 150.581Z" fill="#407BFF"/>
<path d="M251.625 211.314H171.212C169.995 211.329 168.789 211.092 167.668 210.618C166.548 210.144 165.537 209.443 164.7 208.559C163.862 207.676 163.217 206.628 162.802 205.482C162.388 204.337 162.215 203.118 162.294 201.902L171.555 32.8063C171.727 30.2721 172.847 27.8961 174.69 26.1516C176.534 24.4072 178.966 23.4225 181.502 23.3938H261.922C263.135 23.3847 264.337 23.626 265.453 24.1026C266.569 24.5792 267.575 25.2809 268.409 26.1639C269.242 27.047 269.885 28.0925 270.297 29.2353C270.71 30.3781 270.883 31.5937 270.805 32.8063L261.537 201.902C261.367 204.431 260.253 206.803 258.416 208.547C256.58 210.291 254.155 211.279 251.625 211.314Z" fill="#744EFF"/>
<path opacity="0.8" d="M246.761 211.315H171.212C169.995 211.329 168.789 211.092 167.668 210.618C166.548 210.144 165.537 209.443 164.7 208.559C163.862 207.676 163.217 206.628 162.802 205.482C162.388 204.337 162.215 203.118 162.294 201.902L171.555 32.8064C171.727 30.2722 172.847 27.8961 174.69 26.1517C176.534 24.4072 178.966 23.4225 181.502 23.3939H257.058C258.271 23.3838 259.474 23.6244 260.59 24.1006C261.707 24.5768 262.714 25.2785 263.547 26.1618C264.381 27.045 265.024 28.091 265.436 29.2342C265.848 30.3775 266.02 31.5935 265.942 32.8064L256.681 201.902C256.507 204.431 255.391 206.802 253.554 208.546C251.716 210.289 249.292 211.277 246.761 211.315Z" fill="white"/>
<path d="M209.319 54.0499H187.621C187.109 54.0538 186.601 53.9519 186.13 53.7504C185.658 53.5489 185.234 53.2522 184.882 52.8788C184.531 52.5055 184.26 52.0635 184.086 51.5805C183.913 51.0975 183.841 50.5839 183.875 50.0719C183.948 49.0046 184.418 48.0037 185.193 47.268C185.969 46.5322 186.992 46.1156 188.06 46.1008H209.758C210.27 46.0958 210.778 46.1969 211.249 46.3976C211.72 46.5984 212.145 46.8944 212.497 47.2673C212.848 47.6401 213.119 48.0816 213.293 48.5643C213.466 49.0469 213.538 49.5601 213.504 50.0719C213.432 51.1398 212.961 52.1415 212.186 52.8783C211.411 53.6152 210.388 54.0333 209.319 54.0499Z" fill="white"/>
<path d="M213.504 50.0718C213.381 51.9981 212.534 53.8065 211.134 55.1333C209.734 56.4601 207.885 57.207 205.958 57.2239C205.035 57.2346 204.119 57.0538 203.27 56.693C202.42 56.3321 201.654 55.799 201.02 55.1272C200.386 54.4554 199.897 53.6594 199.585 52.7894C199.273 51.9194 199.145 50.9941 199.207 50.0718C199.33 48.1454 200.177 46.3371 201.577 45.0103C202.977 43.6835 204.826 42.9365 206.753 42.9196C207.676 42.909 208.591 43.0898 209.441 43.4506C210.291 43.8114 211.057 44.3445 211.691 45.0163C212.325 45.6881 212.813 46.4841 213.125 47.3542C213.437 48.2242 213.566 49.1495 213.504 50.0718Z" fill="#7302F2"/>
<path d="M207.927 79.4774H186.228C185.716 79.4813 185.208 79.3794 184.737 79.1779C184.266 78.9764 183.841 78.6797 183.49 78.3063C183.138 77.9329 182.867 77.491 182.694 77.008C182.521 76.525 182.449 76.0114 182.483 75.4994C182.555 74.4321 183.026 73.4312 183.801 72.6955C184.576 71.9597 185.599 71.5431 186.667 71.5282H208.366C208.878 71.5233 209.385 71.6244 209.856 71.8251C210.328 72.0259 210.752 72.3219 211.104 72.6948C211.456 73.0676 211.727 73.5091 211.9 73.9917C212.073 74.4744 212.145 74.9876 212.111 75.4994C212.039 76.5673 211.569 77.569 210.794 78.3058C210.018 79.0427 208.995 79.4608 207.927 79.4774Z" fill="white"/>
<path d="M200.237 80.5041C203.143 77.6731 203.329 73.1446 200.653 70.3894C197.976 67.6342 193.451 67.6957 190.546 70.5268C187.64 73.3578 187.454 77.8863 190.13 80.6415C192.806 83.3967 197.331 83.3352 200.237 80.5041Z" fill="#407BFF"/>
<path opacity="0.3" d="M200.237 80.5041C203.143 77.6731 203.329 73.1446 200.653 70.3894C197.976 67.6342 193.451 67.6957 190.546 70.5268C187.64 73.3578 187.454 77.8863 190.13 80.6415C192.806 83.3967 197.331 83.3352 200.237 80.5041Z" fill="#E0CEF3"/>
<path d="M183.443 130.332H205.114C206.183 130.316 207.206 129.898 207.981 129.161C208.756 128.424 209.226 127.422 209.299 126.354C209.333 125.842 209.261 125.328 209.087 124.845C208.913 124.362 208.642 123.92 208.289 123.547C207.937 123.174 207.511 122.878 207.039 122.678C206.567 122.478 206.059 122.377 205.546 122.383H183.882C182.814 122.398 181.79 122.814 181.013 123.55C180.237 124.286 179.765 125.287 179.691 126.354C179.658 126.867 179.731 127.381 179.905 127.864C180.079 128.347 180.35 128.788 180.702 129.162C181.054 129.535 181.479 129.832 181.951 130.033C182.423 130.234 182.931 130.336 183.443 130.332Z" fill="white"/>
<path d="M191.684 131.349C194.59 128.518 194.776 123.989 192.1 121.234C189.424 118.479 184.899 118.54 181.993 121.372C179.087 124.203 178.901 128.731 181.577 131.486C184.253 134.241 188.778 134.18 191.684 131.349Z" fill="#407BFF"/>
<path opacity="0.7" d="M191.684 131.349C194.59 128.518 194.776 123.989 192.1 121.234C189.424 118.479 184.899 118.54 181.993 121.372C179.087 124.203 178.901 128.731 181.577 131.486C184.253 134.241 188.778 134.18 191.684 131.349Z" fill="#E9D5FF"/>
<path d="M203.742 155.76H182.051C181.538 155.764 181.03 155.662 180.558 155.46C180.087 155.259 179.662 154.962 179.31 154.589C178.958 154.216 178.686 153.774 178.512 153.291C178.338 152.808 178.265 152.294 178.298 151.782C178.372 150.714 178.844 149.713 179.621 148.977C180.397 148.242 181.421 147.825 182.49 147.811H204.181C204.694 147.805 205.202 147.905 205.674 148.106C206.146 148.306 206.572 148.602 206.924 148.975C207.276 149.348 207.548 149.79 207.722 150.273C207.895 150.756 207.968 151.27 207.933 151.782C207.861 152.851 207.39 153.854 206.613 154.591C205.837 155.328 204.812 155.745 203.742 155.76Z" fill="white"/>
<path d="M207.933 151.782C207.81 153.708 206.964 155.517 205.564 156.844C204.164 158.17 202.315 158.917 200.387 158.934C199.464 158.945 198.549 158.764 197.698 158.403C196.848 158.042 196.082 157.509 195.447 156.838C194.813 156.166 194.324 155.37 194.011 154.5C193.698 153.63 193.569 152.705 193.63 151.782C193.756 149.857 194.604 148.05 196.003 146.724C197.402 145.398 199.25 144.65 201.176 144.63C202.1 144.618 203.016 144.798 203.866 145.159C204.717 145.519 205.484 146.052 206.118 146.724C206.753 147.396 207.242 148.192 207.555 149.063C207.867 149.933 207.996 150.859 207.933 151.782Z" fill="#7302F2"/>
<path d="M184.836 104.905H206.534C207.603 104.888 208.626 104.47 209.401 103.733C210.176 102.997 210.646 101.995 210.719 100.927C210.753 100.415 210.681 99.9008 210.507 99.4177C210.333 98.9346 210.062 98.4927 209.709 98.1198C209.357 97.7468 208.931 97.4509 208.459 97.2506C207.987 97.0503 207.479 96.9499 206.966 96.9558H185.275C184.207 96.9706 183.184 97.3873 182.408 98.123C181.633 98.8588 181.162 99.8597 181.09 100.927C181.056 101.439 181.128 101.953 181.301 102.436C181.475 102.919 181.745 103.36 182.097 103.734C182.448 104.107 182.873 104.404 183.344 104.605C183.816 104.807 184.323 104.909 184.836 104.905Z" fill="white"/>
<path d="M181.104 100.927C181.041 101.849 181.17 102.775 181.482 103.645C181.794 104.515 182.282 105.311 182.916 105.982C183.55 106.654 184.316 107.187 185.166 107.548C186.016 107.909 186.931 108.09 187.854 108.079C189.781 108.062 191.631 107.315 193.031 105.989C194.431 104.662 195.277 102.853 195.4 100.927C195.463 100.005 195.334 99.0794 195.022 98.2094C194.71 97.3393 194.222 96.5434 193.588 95.8716C192.954 95.1998 192.187 94.6667 191.338 94.3058C190.488 93.945 189.573 93.7642 188.65 93.7749C186.722 93.7918 184.873 94.5387 183.473 95.8655C182.073 97.1923 181.227 99.0006 181.104 100.927Z" fill="#407BFF"/>
<path opacity="0.7" d="M181.104 100.927C181.041 101.849 181.17 102.775 181.482 103.645C181.794 104.515 182.282 105.311 182.916 105.982C183.55 106.654 184.316 107.187 185.166 107.548C186.016 107.909 186.931 108.09 187.854 108.079C189.781 108.062 191.631 107.315 193.031 105.989C194.431 104.662 195.277 102.853 195.4 100.927C195.463 100.005 195.334 99.0794 195.022 98.2094C194.71 97.3393 194.222 96.5434 193.588 95.8716C192.954 95.1998 192.187 94.6667 191.338 94.3058C190.488 93.945 189.573 93.7642 188.65 93.7749C186.722 93.7918 184.873 94.5387 183.473 95.8655C182.073 97.1923 181.227 99.0006 181.104 100.927Z" fill="#E9D5FF"/>
<path d="M256.845 48.8832H224.686C224.481 48.8836 224.278 48.8419 224.09 48.7607C223.902 48.6795 223.733 48.5605 223.593 48.4111C223.452 48.2616 223.344 48.085 223.275 47.892C223.206 47.699 223.177 47.4939 223.19 47.2893C223.219 46.8626 223.408 46.4626 223.718 46.1686C224.028 45.8746 224.437 45.7081 224.864 45.7022H257.024C257.228 45.7008 257.431 45.7416 257.619 45.8221C257.807 45.9025 257.976 46.0209 258.116 46.1698C258.257 46.3187 258.365 46.4949 258.434 46.6875C258.503 46.8801 258.532 47.0849 258.519 47.2893C258.492 47.7171 258.304 48.1189 257.994 48.4143C257.683 48.7097 257.273 48.8772 256.845 48.8832Z" fill="white"/>
<path d="M246.13 54.4484H224.384C224.179 54.4497 223.975 54.4088 223.786 54.328C223.598 54.2472 223.427 54.1283 223.286 53.9788C223.145 53.8292 223.037 53.6522 222.967 53.4588C222.897 53.2654 222.868 53.0596 222.882 52.8544C222.911 52.4278 223.099 52.0278 223.409 51.7337C223.719 51.4397 224.128 51.2733 224.555 51.2674H246.308C246.513 51.2661 246.716 51.3068 246.904 51.3872C247.093 51.4676 247.262 51.5858 247.403 51.7346C247.544 51.8834 247.653 52.0596 247.723 52.2522C247.793 52.4448 247.823 52.6498 247.811 52.8544C247.782 53.2829 247.592 53.6847 247.281 53.98C246.97 54.2753 246.559 54.4425 246.13 54.4484Z" fill="white"/>
<path d="M247.214 150.593H219.088C218.883 150.594 218.681 150.552 218.493 150.471C218.305 150.39 218.135 150.271 217.995 150.121C217.855 149.972 217.747 149.795 217.677 149.602C217.608 149.409 217.579 149.204 217.592 148.999C217.62 148.572 217.808 148.171 218.118 147.877C218.429 147.583 218.839 147.417 219.266 147.412H247.358C247.563 147.411 247.765 147.452 247.954 147.532C248.142 147.613 248.312 147.731 248.453 147.88C248.594 148.028 248.702 148.205 248.773 148.397C248.843 148.59 248.873 148.795 248.86 148.999C248.832 149.422 248.647 149.819 248.343 150.114C248.039 150.408 247.637 150.579 247.214 150.593Z" fill="white"/>
<path d="M232.698 156.152H218.834C218.629 156.153 218.427 156.112 218.238 156.032C218.05 155.952 217.88 155.833 217.739 155.684C217.598 155.536 217.49 155.36 217.42 155.167C217.349 154.974 217.32 154.769 217.332 154.565C217.361 154.138 217.549 153.738 217.859 153.444C218.17 153.15 218.579 152.983 219.006 152.978H232.89C233.095 152.976 233.298 153.017 233.486 153.097C233.674 153.178 233.844 153.296 233.985 153.445C234.126 153.594 234.235 153.77 234.305 153.962C234.375 154.155 234.405 154.36 234.393 154.565C234.363 154.995 234.172 155.398 233.857 155.692C233.543 155.987 233.129 156.151 232.698 156.152Z" fill="white"/>
<path d="M255.323 76.6949H223.163C222.736 76.7007 222.327 76.8672 222.017 77.1612C221.707 77.4552 221.518 77.8553 221.489 78.2819C221.477 78.4866 221.507 78.6916 221.577 78.8842C221.647 79.0768 221.756 79.253 221.897 79.4017C222.037 79.5505 222.207 79.6688 222.396 79.7491C222.584 79.8295 222.787 79.8703 222.991 79.869H255.151C255.578 79.8631 255.987 79.6966 256.297 79.4026C256.607 79.1086 256.796 78.7086 256.825 78.2819C256.837 78.0773 256.807 77.8723 256.737 77.6797C256.667 77.4871 256.558 77.3109 256.417 77.1621C256.276 77.0133 256.107 76.8951 255.918 76.8147C255.73 76.7343 255.527 76.6935 255.323 76.6949Z" fill="white"/>
<path d="M245.218 71.1297H223.471C223.044 71.1356 222.635 71.3021 222.325 71.5961C222.015 71.8901 221.827 72.2902 221.798 72.7168C221.784 72.9214 221.813 73.1266 221.883 73.3195C221.952 73.5125 222.06 73.6892 222.2 73.8386C222.34 73.9881 222.51 74.1071 222.698 74.1883C222.886 74.2695 223.088 74.3112 223.293 74.3107H245.046C245.474 74.3031 245.883 74.1352 246.193 73.8401C246.503 73.5449 246.691 73.1441 246.72 72.7168C246.733 72.5119 246.704 72.3065 246.634 72.1134C246.565 71.9204 246.456 71.7438 246.315 71.5948C246.174 71.4458 246.003 71.3276 245.815 71.2475C245.626 71.1675 245.423 71.1274 245.218 71.1297Z" fill="white"/>
<path d="M238.399 99.7384H221.935C221.73 99.7389 221.527 99.6972 221.339 99.616C221.151 99.5348 220.982 99.4158 220.842 99.2663C220.701 99.1169 220.593 98.9402 220.524 98.7473C220.455 98.5543 220.426 98.3491 220.439 98.1445C220.467 97.7173 220.655 97.3163 220.965 97.022C221.275 96.7277 221.686 96.5617 222.113 96.5574H238.577C238.783 96.5533 238.988 96.5919 239.179 96.6711C239.37 96.7502 239.542 96.868 239.685 97.017C239.828 97.1661 239.939 97.3433 240.01 97.5373C240.082 97.7314 240.112 97.9381 240.1 98.1445C240.07 98.5765 239.878 98.9812 239.563 99.277C239.247 99.5728 238.831 99.7377 238.399 99.7384Z" fill="white"/>
<path d="M254.06 99.7384H244.346C244.141 99.7398 243.938 99.6988 243.749 99.618C243.56 99.5372 243.39 99.4184 243.249 99.2688C243.108 99.1193 242.999 98.9423 242.93 98.7488C242.86 98.5554 242.831 98.3497 242.844 98.1445C242.873 97.7178 243.061 97.3178 243.372 97.0238C243.682 96.7298 244.091 96.5633 244.518 96.5574H254.238C254.443 96.556 254.645 96.5968 254.833 96.6773C255.021 96.7577 255.191 96.8761 255.331 97.025C255.471 97.1739 255.579 97.3501 255.649 97.5427C255.718 97.7353 255.747 97.9402 255.734 98.1445C255.705 98.5718 255.517 98.9726 255.207 99.2677C254.897 99.5629 254.488 99.7308 254.06 99.7384Z" fill="white"/>
<path d="M243.345 105.296H221.578C221.373 105.298 221.17 105.257 220.982 105.177C220.794 105.096 220.624 104.978 220.483 104.829C220.342 104.68 220.233 104.504 220.163 104.312C220.093 104.119 220.063 103.914 220.075 103.709C220.105 103.283 220.293 102.883 220.603 102.589C220.913 102.295 221.322 102.128 221.749 102.122H243.53C243.734 102.121 243.937 102.162 244.126 102.242C244.314 102.323 244.484 102.441 244.625 102.59C244.765 102.738 244.874 102.915 244.944 103.107C245.014 103.3 245.044 103.505 245.032 103.709C245.003 104.138 244.812 104.54 244.499 104.835C244.186 105.129 243.774 105.294 243.345 105.296Z" fill="white"/>
<path d="M216.09 178.46H179.046C178.758 178.467 178.472 178.413 178.206 178.301C177.94 178.19 177.7 178.024 177.502 177.815C177.304 177.605 177.153 177.356 177.057 177.083C176.961 176.811 176.924 176.522 176.947 176.234C176.988 175.636 177.252 175.075 177.687 174.663C178.121 174.251 178.695 174.017 179.293 174.008H216.337C216.625 174.001 216.912 174.055 217.178 174.166C217.444 174.277 217.683 174.443 217.881 174.653C218.079 174.863 218.231 175.112 218.326 175.385C218.422 175.657 218.459 175.946 218.436 176.234C218.397 176.833 218.133 177.394 217.698 177.807C217.263 178.219 216.689 178.453 216.09 178.46Z" fill="white"/>
<path d="M249.114 178.46H226.38C226.092 178.467 225.806 178.413 225.54 178.301C225.274 178.19 225.034 178.024 224.836 177.815C224.638 177.605 224.487 177.356 224.391 177.083C224.295 176.811 224.258 176.522 224.281 176.234C224.322 175.636 224.586 175.075 225.021 174.663C225.455 174.251 226.029 174.017 226.627 174.008H249.361C249.649 174.001 249.936 174.055 250.202 174.166C250.468 174.277 250.707 174.443 250.905 174.653C251.103 174.863 251.255 175.112 251.35 175.385C251.446 175.657 251.484 175.946 251.46 176.234C251.419 176.832 251.155 177.393 250.721 177.805C250.286 178.217 249.713 178.451 249.114 178.46Z" fill="white"/>
<path d="M206.829 186.224H178.634C178.346 186.23 178.06 186.176 177.794 186.065C177.528 185.954 177.288 185.788 177.09 185.578C176.892 185.368 176.741 185.119 176.645 184.847C176.549 184.575 176.512 184.285 176.535 183.998C176.575 183.399 176.838 182.837 177.273 182.425C177.708 182.012 178.282 181.779 178.881 181.772H207.069C207.357 181.765 207.643 181.819 207.909 181.93C208.175 182.041 208.415 182.207 208.613 182.417C208.811 182.627 208.962 182.876 209.058 183.148C209.154 183.42 209.191 183.71 209.168 183.998C209.128 184.595 208.866 185.156 208.432 185.568C207.999 185.981 207.427 186.215 206.829 186.224Z" fill="white"/>
<path d="M237.445 194.029H178.209C177.921 194.035 177.634 193.981 177.368 193.87C177.102 193.759 176.863 193.593 176.665 193.383C176.467 193.173 176.315 192.924 176.22 192.652C176.124 192.38 176.087 192.09 176.11 191.803C176.149 191.205 176.412 190.644 176.845 190.232C177.279 189.82 177.851 189.586 178.449 189.576H237.685C237.973 189.57 238.259 189.624 238.525 189.735C238.791 189.846 239.031 190.012 239.229 190.222C239.427 190.432 239.579 190.681 239.674 190.953C239.77 191.225 239.807 191.515 239.784 191.803C239.745 192.4 239.482 192.961 239.049 193.373C238.615 193.785 238.043 194.019 237.445 194.029Z" fill="white"/>
<path d="M229.899 127.55H220.378C219.951 127.556 219.542 127.722 219.232 128.016C218.921 128.31 218.733 128.71 218.704 129.137C218.692 129.342 218.721 129.547 218.792 129.739C218.862 129.932 218.971 130.108 219.111 130.257C219.252 130.406 219.422 130.524 219.61 130.604C219.799 130.684 220.001 130.725 220.206 130.724H229.728C230.155 130.718 230.564 130.552 230.874 130.258C231.184 129.964 231.372 129.564 231.402 129.137C231.414 128.932 231.384 128.727 231.314 128.535C231.244 128.342 231.135 128.166 230.994 128.017C230.853 127.868 230.683 127.75 230.495 127.67C230.307 127.589 230.104 127.549 229.899 127.55Z" fill="white"/>
<path d="M246.885 127.55H235.847C235.42 127.556 235.011 127.722 234.701 128.016C234.391 128.31 234.202 128.71 234.173 129.137C234.161 129.342 234.191 129.547 234.261 129.739C234.331 129.932 234.44 130.108 234.581 130.257C234.721 130.406 234.891 130.524 235.08 130.604C235.268 130.685 235.471 130.725 235.675 130.724H246.713C247.14 130.718 247.549 130.552 247.859 130.258C248.169 129.964 248.358 129.564 248.387 129.137C248.4 128.932 248.371 128.727 248.301 128.534C248.232 128.341 248.123 128.164 247.982 128.015C247.841 127.866 247.671 127.748 247.482 127.668C247.293 127.588 247.09 127.548 246.885 127.55Z" fill="white"/>
<path d="M242.432 121.985H220.686C220.259 121.989 219.849 122.155 219.538 122.449C219.228 122.744 219.04 123.145 219.012 123.572C218.999 123.777 219.028 123.982 219.097 124.175C219.167 124.368 219.275 124.544 219.415 124.694C219.555 124.843 219.724 124.962 219.912 125.043C220.1 125.125 220.303 125.166 220.508 125.166H242.261C242.688 125.158 243.098 124.99 243.408 124.695C243.717 124.4 243.906 123.999 243.935 123.572C243.947 123.367 243.917 123.162 243.847 122.97C243.777 122.777 243.668 122.601 243.527 122.452C243.386 122.303 243.217 122.185 243.028 122.105C242.84 122.024 242.637 121.984 242.432 121.985Z" fill="white"/>
<path d="M122.108 81.1951C119.865 83.057 117.546 85.0838 115.413 87.1174C114.342 88.1411 113.3 89.1785 112.332 90.2503C111.395 91.2576 110.535 92.3348 109.76 93.4726L109.63 93.6649L109.568 93.7749C109.511 93.8618 109.463 93.9538 109.424 94.0497C109.328 94.2627 109.239 94.5306 109.143 94.8123C108.96 95.4368 108.818 96.0725 108.717 96.7154C108.503 98.1499 108.366 99.5947 108.306 101.044C108.162 104.012 108.162 107.11 108.216 110.14L105.006 110.621C104.202 107.513 103.651 104.344 103.36 101.147C103.206 99.4866 103.167 97.8177 103.243 96.1521C103.298 95.2522 103.412 94.3571 103.586 93.4726C103.682 92.974 103.813 92.4827 103.977 92.0023C104.08 91.7344 104.155 91.487 104.293 91.2053L104.485 90.7931C104.553 90.6694 104.601 90.5939 104.656 90.4839C105.496 88.9638 106.477 87.5261 107.585 86.1899C108.613 84.9074 109.705 83.6783 110.858 82.5073C113.115 80.1923 115.526 78.0323 118.074 76.0422L122.108 81.1951Z" fill="#B55B52"/>
<path d="M120.907 72.9574C117.395 75.0185 112.085 80.3775 112.085 80.3775L118.596 88.2029C118.596 88.2029 127.836 82.6516 128.961 79.5942C130.841 74.4483 124.228 70.9856 120.907 72.9574Z" fill="#7302F2"/>
<path d="M108.072 108.979L108.868 113.63L104.553 113.005C104.553 113.005 103.668 109.845 105.925 108.759L108.072 108.979Z" fill="#B55B52"/>
<path d="M107.277 116.461L103.394 115.252L104.553 113.005L108.868 113.631L107.277 116.461Z" fill="#B55B52"/>
<path d="M147.024 56.5231C147.024 56.9972 147.284 57.3819 147.6 57.3888C147.915 57.3957 148.155 57.0109 148.149 56.5437C148.142 56.0766 147.888 55.6849 147.572 55.6781C147.257 55.6712 147.017 56.0559 147.024 56.5231Z" fill="#263238"/>
<path d="M147.435 55.6851L148.581 55.376C148.581 55.376 148.004 56.2691 147.435 55.6851Z" fill="#263238"/>
<path d="M147.428 56.9905C147.87 58.0789 148.456 59.1027 149.171 60.0341C148.926 60.2017 148.647 60.3142 148.355 60.364C148.063 60.4138 147.763 60.3997 147.476 60.3227L147.428 56.9905Z" fill="#A02724"/>
<path d="M147.62 53.3835C147.575 53.3969 147.528 53.3969 147.483 53.3835C147.145 53.2599 146.783 53.2173 146.425 53.2591C146.068 53.3008 145.725 53.4258 145.425 53.624C145.396 53.6467 145.363 53.6633 145.327 53.6729C145.291 53.6825 145.254 53.6847 145.218 53.6796C145.181 53.6745 145.146 53.662 145.115 53.643C145.083 53.624 145.056 53.5989 145.034 53.569C144.99 53.5096 144.971 53.4352 144.981 53.3619C144.992 53.2886 145.03 53.2224 145.089 53.1774C145.46 52.9297 145.884 52.7717 146.327 52.7157C146.77 52.6597 147.219 52.7072 147.641 52.8545C147.71 52.878 147.768 52.9279 147.801 52.9933C147.834 53.0588 147.841 53.1347 147.819 53.2049C147.802 53.2482 147.776 53.287 147.741 53.318C147.706 53.3491 147.665 53.3715 147.62 53.3835Z" fill="#263238"/>
<path d="M133.043 61.5662C133.358 65.1182 132.171 70.9375 129.496 72.9162C129.496 72.9162 131.513 76.6537 137.975 77.5262C145.089 78.4812 141.748 74.4757 141.748 74.4757C137.968 73.033 138.366 70.1817 139.326 67.6053L133.043 61.5662Z" fill="#B55B52"/>
<path d="M145.672 77.2377C149.054 78.1583 152.607 79.0446 156.092 79.8347C157.848 80.2126 159.605 80.5218 161.361 80.8996C163.117 81.2775 164.88 81.518 166.629 81.7447L167.315 81.834L167.768 81.8821C168.083 81.8821 168.454 81.8821 168.797 81.8821C169.594 81.8265 170.387 81.7186 171.171 81.5592C172.869 81.208 174.548 80.7654 176.199 80.2332C179.581 79.1752 183.011 77.8973 186.365 76.5781L187.888 79.4431C184.726 81.5156 181.407 83.3373 177.962 84.8914C176.18 85.6981 174.346 86.3866 172.474 86.9525C171.473 87.2501 170.453 87.4797 169.421 87.6396C168.852 87.7172 168.28 87.7654 167.706 87.7838H166.773L166.087 87.7289C162.309 87.4668 158.552 86.9666 154.837 86.2311C151.133 85.5401 147.469 84.6502 143.861 83.5654L145.672 77.2377Z" fill="#B55B52"/>
<path d="M185.474 77.7391L186.468 74.3657L190.125 75.7398C190.125 75.7398 189.288 80.8102 186.153 79.4086L185.474 77.7391Z" fill="#B55B52"/>
<path d="M188.588 72.126L192.32 72.5451L190.125 75.7398L186.468 74.3589L188.588 72.126Z" fill="#B55B52"/>
<path d="M122.547 241.785L128.426 242.218L130.175 228.697L124.296 228.264L122.547 241.785Z" fill="#B55B52"/>
<path d="M79.1919 215.574L83.1844 220.013L94.3388 212.29L90.3462 207.852L79.1919 215.574Z" fill="#B55B52"/>
<path d="M86.141 222.527C86.0705 222.537 85.999 222.537 85.9284 222.527C85.2424 222.294 84.7279 220.968 84.5015 220.198C84.4939 220.172 84.4943 220.144 84.5026 220.118C84.5109 220.092 84.5267 220.069 84.548 220.052C84.5694 220.035 84.5953 220.025 84.6224 220.023C84.6495 220.021 84.6767 220.027 84.7004 220.04C84.9131 220.15 86.8065 221.181 86.8682 221.936C86.8749 222.018 86.8601 222.101 86.8252 222.176C86.7903 222.25 86.7366 222.315 86.6693 222.362C86.5169 222.476 86.3307 222.534 86.141 222.527ZM84.8719 220.418C85.2149 221.435 85.6334 222.101 86.0176 222.225C86.1009 222.249 86.1889 222.25 86.273 222.23C86.3572 222.209 86.4346 222.167 86.4978 222.108C86.5283 222.088 86.5532 222.06 86.5701 222.028C86.5869 221.995 86.5951 221.959 86.5938 221.923C86.5595 221.524 85.6197 220.851 84.8719 220.418Z" fill="#7302F2"/>
<path d="M86.3674 220.693C85.7404 220.68 85.124 220.528 84.5633 220.246C84.5426 220.233 84.5256 220.214 84.5136 220.193C84.5017 220.171 84.4952 220.147 84.4947 220.123C84.4941 220.098 84.501 220.073 84.5144 220.053C84.5279 220.032 84.5473 220.015 84.5701 220.006C84.625 219.971 86.0793 219.168 86.8819 219.442C86.9867 219.476 87.0828 219.532 87.1634 219.607C87.244 219.681 87.3072 219.773 87.3484 219.875C87.4034 219.973 87.4226 220.087 87.4025 220.197C87.3825 220.308 87.3245 220.408 87.2387 220.48C86.9803 220.647 86.6735 220.722 86.3674 220.693ZM84.9406 220.123C85.6266 220.404 86.7516 220.535 87.0603 220.274C87.1083 220.226 87.1632 220.157 87.0603 219.985C87.0348 219.919 86.9951 219.86 86.9441 219.811C86.8932 219.763 86.8321 219.726 86.7653 219.703C86.1286 219.653 85.4918 219.8 84.9406 220.123Z" fill="#7302F2"/>
<path d="M84.9747 219.36L81.6819 213.506C81.6277 213.405 81.5388 213.327 81.4316 213.287C81.3243 213.246 81.2061 213.246 81.0988 213.286L76.2351 215.155C76.1107 215.21 75.9995 215.292 75.9091 215.393C75.8186 215.495 75.751 215.615 75.7107 215.745C75.6704 215.876 75.6584 216.013 75.6755 216.148C75.6926 216.283 75.7384 216.413 75.8097 216.529C76.9965 218.549 77.6619 219.463 79.1094 222.026C80.0012 223.606 81.3732 227.062 82.4296 229.336C83.4861 231.61 85.7224 230.71 85.4823 229.679C84.6756 226.657 84.5631 223.49 85.1531 220.418C85.2192 220.055 85.1561 219.681 84.9747 219.36Z" fill="#263238"/>
<path d="M130.985 242.41C130.362 242.398 129.742 242.329 129.132 242.204C129.105 242.198 129.079 242.183 129.06 242.162C129.04 242.142 129.027 242.116 129.023 242.087C129.018 242.058 129.023 242.029 129.037 242.003C129.05 241.977 129.072 241.956 129.098 241.943C129.366 241.806 131.753 240.569 132.459 241.002C132.526 241.039 132.582 241.092 132.622 241.157C132.661 241.222 132.683 241.297 132.686 241.373C132.699 241.501 132.681 241.631 132.633 241.75C132.585 241.87 132.509 241.976 132.411 242.06C131.988 242.333 131.486 242.457 130.985 242.41ZM129.613 242.005C130.909 242.218 131.876 242.163 132.247 241.84C132.309 241.785 132.357 241.715 132.387 241.638C132.416 241.56 132.427 241.476 132.418 241.393C132.419 241.363 132.412 241.333 132.397 241.307C132.383 241.28 132.362 241.258 132.336 241.242C131.931 241.029 130.58 241.538 129.599 242.005H129.613Z" fill="#7302F2"/>
<path d="M129.16 242.204C129.133 242.213 129.104 242.213 129.077 242.204C129.057 242.191 129.041 242.172 129.032 242.151C129.022 242.129 129.019 242.104 129.023 242.08C129.023 241.971 129.304 239.566 130.621 239.566H130.738C131.115 239.6 131.225 239.793 131.252 239.951C131.362 240.638 129.935 241.895 129.194 242.211C129.182 242.211 129.171 242.208 129.16 242.204ZM130.628 239.813C129.777 239.813 129.441 241.187 129.338 241.813C130.072 241.373 131.039 240.377 130.978 239.971C130.978 239.971 130.978 239.848 130.71 239.82L130.628 239.813Z" fill="#7302F2"/>
<path d="M128.797 241.38H122.183C122.069 241.38 121.957 241.42 121.869 241.494C121.782 241.569 121.723 241.672 121.703 241.785L120.818 247.02C120.801 247.151 120.811 247.285 120.849 247.412C120.888 247.538 120.952 247.655 121.039 247.755C121.127 247.855 121.234 247.934 121.354 247.989C121.475 248.044 121.605 248.072 121.738 248.071C124.043 248.03 125.168 247.893 128.062 247.893C129.846 247.893 133.55 248.078 136.013 248.078C138.476 248.078 138.675 245.639 137.653 245.413C133.07 244.423 131.287 243.049 129.771 241.744C129.499 241.511 129.154 241.382 128.797 241.38Z" fill="#263238"/>
<path opacity="0.2" d="M130.175 228.704L129.201 236.213L123.391 235.238L124.289 228.264L130.175 228.704Z" fill="black"/>
<path opacity="0.2" d="M90.3394 207.859L94.3319 212.29L89.722 215.485L85.5854 211.143L90.3394 207.859Z" fill="black"/>
<path d="M119.583 108.402L143.374 111.604C152.601 78.1514 149.877 77.2514 149.877 77.2514C148.094 76.4152 146.261 75.6902 144.389 75.0803L144.067 74.9773C142.53 74.5101 142.208 74.4482 140.157 73.981C136.637 73.3558 133.372 72.8749 129.338 72.5314C129.085 72.5314 128.824 72.4833 128.57 72.4695C127.843 72.4214 127.123 72.3871 126.423 72.3596C125.956 72.3596 125.483 72.3596 125.051 72.3596H122.732C122.273 72.37 121.822 72.4761 121.406 72.6712C120.991 72.8662 120.62 73.146 120.319 73.4926C120.017 73.8392 119.791 74.2449 119.655 74.6839C119.519 75.1229 119.476 75.5855 119.529 76.0422C121.566 93.6099 120.921 99.4017 119.583 108.402Z" fill="#7302F2"/>
<path opacity="0.2" d="M144.06 84.8159C144.225 86.3686 147.806 89.2061 149.047 88.4435C149.404 86.5816 149.665 85.0082 149.85 83.7441C148.053 83.6067 144.533 81.6211 144.06 84.8159Z" fill="black"/>
<path d="M140.197 76.9834C140.026 71.4871 153.327 77.5399 156.38 78.9071L152.978 88.1204C152.978 88.1204 148.525 87.9693 145.692 86.3272C144.081 85.3415 142.736 83.9733 141.778 82.3437C140.82 80.714 140.277 78.8731 140.197 76.9834Z" fill="#7302F2"/>
<path d="M131.026 54.998C131.465 60.8104 131.527 63.2769 134.531 66.2999C139.038 70.8412 146.138 69.2335 147.456 63.4555C148.642 58.2546 147.723 49.6253 141.968 47.2343C140.732 46.6801 139.373 46.4582 138.026 46.5904C136.679 46.7226 135.389 47.2044 134.284 47.9883C133.179 48.7721 132.298 49.8309 131.726 51.0602C131.155 52.2895 130.914 53.6467 131.026 54.998Z" fill="#B55B52"/>
<path d="M131.534 48.8627C125.703 47.3993 125.517 52.2979 125.641 54.8812C125.764 57.4645 121.477 58.7012 121.477 61.9372C121.477 66.1556 124.653 68.6702 116.929 69.9481C110.391 71.0268 108.374 79.2095 118.047 83.9982C128.755 89.2884 144.911 81.8409 142.949 74.7574C139.944 63.8265 145.343 63.8609 144.746 57.7462C144.3 53.3079 148.498 53.088 146.989 49.3848C145 44.5412 131.026 40.2884 131.534 48.8627Z" fill="#263238"/>
<path d="M124.783 57.0592C123.981 52.827 124.42 50.0238 126.087 48.7116C128.234 47.0146 131.533 48.4849 131.671 48.5467L131.389 49.1719C131.389 49.1719 128.323 47.7978 126.505 49.2475C125.058 50.3948 124.708 52.9781 125.455 56.9286L124.783 57.0592Z" fill="#263238"/>
<path d="M118.191 68.739C116.685 68.6915 115.199 68.3895 113.793 67.8458L114.047 67.2069C114.095 67.2069 118.719 69.0482 120.859 67.2687C121.902 66.403 122.197 64.7816 121.744 62.4594L122.43 62.3289C122.938 64.9328 122.561 66.7809 121.312 67.8252C120.409 68.4841 119.306 68.8072 118.191 68.739Z" fill="#263238"/>
<path d="M143.161 57.3409C143.106 58.4252 143.386 59.5002 143.964 60.4189C144.76 61.7174 145.837 61.477 146.186 60.3777C146.536 59.2784 146.475 57.5127 145.398 56.5714C144.321 55.6302 143.271 56.1386 143.161 57.3409Z" fill="#B55B52"/>
<path d="M137.111 110.759C137.111 110.759 127.863 149.92 123.542 172.38C118.987 196.103 91.9856 215.458 91.9856 215.458L86.0586 209.35C86.0586 209.35 103.442 194.111 107.908 171.961C116.97 127 110.837 117.945 119.57 108.402L137.111 110.759Z" fill="#263238"/>
<path d="M92.4932 216.337L85.0913 208.704L87.1699 206.464L95.7655 214.049L92.4932 216.337Z" fill="#7302F2"/>
<path opacity="0.2" d="M132.199 119.264C125.01 125.516 125.785 147.701 126.54 157.698C129.551 143.483 133.18 127.653 135.307 118.495C134.545 117.931 133.516 118.117 132.199 119.264Z" fill="black"/>
<path d="M143.045 111.624C143.045 111.624 147.202 158.089 144.931 175.815C142.571 194.248 130.525 234.358 130.525 234.358L122.108 233.266C122.108 233.266 128.968 193.513 130.223 175.265C131.554 155.341 125.634 109.309 125.634 109.309L143.045 111.624Z" fill="#263238"/>
<path d="M132.364 234.839L120.276 233.279L120.462 229.7L133.578 230.978L132.364 234.839Z" fill="#7302F2"/>
<path d="M119.364 106.966L118.06 108.938C117.964 109.096 118.143 109.288 118.417 109.323L143.374 112.71C143.586 112.71 143.779 112.655 143.806 112.524L144.245 110.463C144.279 110.319 144.101 110.168 143.868 110.133L119.755 106.897C119.689 106.875 119.619 106.869 119.551 106.881C119.482 106.893 119.418 106.923 119.364 106.966Z" fill="#407BFF"/>
<path opacity="0.3" d="M119.364 106.966L118.06 108.938C117.964 109.096 118.143 109.288 118.417 109.323L143.374 112.71C143.586 112.71 143.779 112.655 143.806 112.524L144.245 110.463C144.279 110.319 144.101 110.168 143.868 110.133L119.755 106.897C119.689 106.875 119.619 106.869 119.551 106.881C119.482 106.893 119.418 106.923 119.364 106.966Z" fill="#D9CFE6"/>
<path d="M122.327 110.078L121.682 109.996C121.552 109.996 121.463 109.9 121.483 109.817L122.073 107.103C122.073 107.028 122.211 106.98 122.341 106.994L122.986 107.083C123.116 107.083 123.205 107.179 123.192 107.255L122.595 109.968C122.581 110.051 122.458 110.099 122.327 110.078Z" fill="#263238"/>
<path d="M138.641 112.311L137.996 112.222C137.865 112.222 137.776 112.126 137.79 112.05L138.387 109.336C138.387 109.261 138.524 109.206 138.654 109.227L139.299 109.309C139.43 109.309 139.519 109.405 139.498 109.488L138.908 112.201C138.888 112.277 138.771 112.332 138.641 112.311Z" fill="#263238"/>
</svg>
