<svg width="47" height="47" viewBox="0 0 47 47" fill="none" xmlns="http://www.w3.org/2000/svg">
<path fill-rule="evenodd" clip-rule="evenodd" d="M23.5 47C36.4787 47 47 36.4787 47 23.5C47 10.5213 36.4787 0 23.5 0C10.5213 0 0 10.5213 0 23.5C0 36.4787 10.5213 47 23.5 47ZM36.7339 13.7487H29.1528L27.4479 12.0418L26.7403 11.75H20.7442L20.0367 12.0418L18.3318 13.7487H10.7506L9.75129 14.7481V32.7365L10.7506 33.7358H36.7339L37.7332 32.7365V14.7481L36.7339 13.7487ZM35.7345 15.7474V31.7371H11.75V15.7474H18.7455L19.453 15.4556L21.1579 13.7487H26.3266L28.0315 15.4556L28.739 15.7474H35.7345ZM14.0414 18.0388C14.2288 17.8514 14.483 17.7461 14.7481 17.7461C15.0131 17.7461 15.2673 17.8514 15.4547 18.0388C15.6421 18.2262 15.7474 18.4804 15.7474 18.7455C15.7474 19.0105 15.6421 19.2647 15.4547 19.4521C15.2673 19.6396 15.0131 19.7448 14.7481 19.7448C14.483 19.7448 14.2288 19.6396 14.0414 19.4521C13.854 19.2647 13.7487 19.0105 13.7487 18.7455C13.7487 18.4804 13.854 18.2262 14.0414 18.0388ZM26.5689 20.9157C25.8192 20.166 24.8024 19.7448 23.7423 19.7448C22.6821 19.7448 21.6653 20.166 20.9157 20.9157C20.166 21.6653 19.7448 22.6821 19.7448 23.7423C19.7448 24.8024 20.166 25.8192 20.9157 26.5689C21.6653 27.3185 22.6821 27.7397 23.7423 27.7397C24.8024 27.7397 25.8192 27.3185 26.5689 26.5689C27.3185 25.8192 27.7397 24.8024 27.7397 23.7423C27.7397 22.6821 27.3185 21.6653 26.5689 20.9157ZM19.5024 19.5024C20.6269 18.3779 22.152 17.7461 23.7423 17.7461C25.3325 17.7461 26.8577 18.3779 27.9822 19.5024C29.1067 20.6269 29.7384 22.152 29.7384 23.7423C29.7384 25.3325 29.1067 26.8577 27.9822 27.9822C26.8577 29.1067 25.3325 29.7384 23.7423 29.7384C22.152 29.7384 20.6269 29.1067 19.5024 27.9822C18.3779 26.8577 17.7461 25.3325 17.7461 23.7423C17.7461 22.152 18.3779 20.6269 19.5024 19.5024Z" fill="url(#paint0_linear)"/>
<defs>
<linearGradient id="paint0_linear" x1="28.6087" y1="0" x2="10.2174" y2="36.7826" gradientUnits="userSpaceOnUse">
<stop stop-color="#4D60C7"/>
<stop offset="1" stop-color="#8C7EEE"/>
</linearGradient>
</defs>
</svg>
