<svg width="24" height="24" viewBox="0 0 24 24" fill="none" xmlns="http://www.w3.org/2000/svg">
<path fill-rule="evenodd" clip-rule="evenodd" d="M16.364 8.72728C16.364 9.88459 15.9043 10.9945 15.0859 11.8128C14.2676 12.6312 13.1577 13.0909 12.0004 13.0909C10.843 13.0909 9.73314 12.6312 8.9148 11.8128C8.09646 10.9945 7.63672 9.88459 7.63672 8.72728C7.63672 7.56998 8.09646 6.46007 8.9148 5.64173C9.73314 4.82339 10.843 4.36365 12.0004 4.36365C13.1577 4.36365 14.2676 4.82339 15.0859 5.64173C15.9043 6.46007 16.364 7.56998 16.364 8.72728ZM14.1822 8.72728C14.1822 9.30594 13.9523 9.86089 13.5431 10.2701C13.134 10.6792 12.579 10.9091 12.0004 10.9091C11.4217 10.9091 10.8667 10.6792 10.4576 10.2701C10.0484 9.86089 9.81854 9.30594 9.81854 8.72728C9.81854 8.14863 10.0484 7.59368 10.4576 7.18451C10.8667 6.77534 11.4217 6.54547 12.0004 6.54547C12.579 6.54547 13.134 6.77534 13.5431 7.18451C13.9523 7.59368 14.1822 8.14863 14.1822 8.72728Z" fill="#747474"/>
<path fill-rule="evenodd" clip-rule="evenodd" d="M12 0C5.37273 0 0 5.37273 0 12C0 18.6273 5.37273 24 12 24C18.6273 24 24 18.6273 24 12C24 5.37273 18.6273 0 12 0ZM2.18182 12C2.18182 14.28 2.95964 16.3789 4.26327 18.0458C5.1788 16.8435 6.35989 15.8692 7.71429 15.1989C9.06869 14.5286 10.5597 14.1805 12.0709 14.1818C13.5625 14.1804 15.0348 14.5195 16.3756 15.1732C17.7163 15.827 18.8901 16.7781 19.8076 17.9542C20.7529 16.7145 21.3893 15.2675 21.6642 13.733C21.9392 12.1985 21.8448 10.6206 21.3889 9.1298C20.933 7.63902 20.1286 6.27823 19.0423 5.16004C17.9561 4.04185 16.6192 3.19839 15.1422 2.69946C13.6653 2.20054 12.0908 2.06048 10.5489 2.29088C9.00711 2.52128 7.54232 3.11552 6.27575 4.02442C5.00918 4.93333 3.97725 6.13077 3.26534 7.51767C2.55343 8.90457 2.18202 10.4411 2.18182 12ZM12 21.8182C9.74613 21.8216 7.56029 21.0462 5.81236 19.6233C6.51592 18.6161 7.45237 17.7937 8.54203 17.2262C9.63169 16.6587 10.8423 16.3628 12.0709 16.3636C13.2842 16.3627 14.4802 16.6512 15.5596 17.2052C16.6389 17.7592 17.5706 18.5628 18.2771 19.5491C16.5156 21.0182 14.2937 21.8214 12 21.8182Z" fill="#747474"/>
</svg>
