<svg width="12" height="18" viewBox="0 0 12 18" fill="none" xmlns="http://www.w3.org/2000/svg">
	<path d="M11.7023 0.128903L0.309375 8.39296C-0.103125 8.69296 -0.103125 9.30703 0.309375 9.60468L11.7023 17.8711C11.7304 17.8914 11.7635 17.9036 11.798 17.9063C11.8325 17.909 11.8671 17.902 11.8979 17.8863C11.9288 17.8705 11.9546 17.8465 11.9726 17.8169C11.9906 17.7874 12.0001 17.7534 12 17.7187L12 15.9609C12 15.8414 11.9414 15.7289 11.8453 15.6586L2.66719 9L11.8453 2.3414C11.9414 2.27109 12 2.15859 12 2.03906L12 0.281247C12 0.128903 11.8266 0.0398393 11.7023 0.128903Z" fill="#7302F2" />
</svg>
