<svg width="12" height="18" viewBox="0 0 12 18" fill="none" xmlns="http://www.w3.org/2000/svg">
	<path d="M0.297656 0.128903L11.6906 8.39296C12.1031 8.69296 12.1031 9.30703 11.6906 9.60468L0.297657 17.8711C0.269636 17.8914 0.23653 17.9036 0.202008 17.9063C0.167486 17.909 0.132896 17.902 0.102073 17.8863C0.071249 17.8705 0.0453968 17.8465 0.02738 17.8169C0.00936317 17.7874 -0.000113494 17.7534 -8.22276e-09 17.7187L-8.50592e-08 15.9609C-9.02841e-08 15.8414 0.0585927 15.7289 0.154687 15.6586L9.33281 9L0.154686 2.3414C0.0585921 2.27109 -6.88379e-07 2.15859 -6.93604e-07 2.03906L-7.7044e-07 0.281247C-7.77099e-07 0.128903 0.173437 0.0398393 0.297656 0.128903Z" fill="#7302F2" />
</svg>
